<mxfile host="app.diagrams.net" agent="Mozilla/5.0 (Macintosh; Intel Mac OS X 10_15_7) AppleWebKit/537.36 (KHTML, like Gecko) Chrome/133.0.0.0 Safari/537.36" version="26.1.1">
  <diagram name="Page-1" id="G_--yGS-JPewDYgaFanC">
    <mxGraphModel dx="1674" dy="1266" grid="1" gridSize="10" guides="1" tooltips="1" connect="1" arrows="1" fold="1" page="1" pageScale="1" pageWidth="850" pageHeight="1100" math="0" shadow="0">
      <root>
        <mxCell id="0" />
        <mxCell id="1" parent="0" />
        <mxCell id="XdNitLlG15K0FlTrxvzR-1" value="" style="sketch=0;points=[[0,0,0],[0.25,0,0],[0.5,0,0],[0.75,0,0],[1,0,0],[0,1,0],[0.25,1,0],[0.5,1,0],[0.75,1,0],[1,1,0],[0,0.25,0],[0,0.5,0],[0,0.75,0],[1,0.25,0],[1,0.5,0],[1,0.75,0]];outlineConnect=0;fontColor=#232F3E;fillColor=#7AA116;strokeColor=#ffffff;dashed=0;verticalLabelPosition=bottom;verticalAlign=top;align=center;html=1;fontSize=12;fontStyle=0;aspect=fixed;shape=mxgraph.aws4.resourceIcon;resIcon=mxgraph.aws4.s3;" vertex="1" parent="1">
          <mxGeometry x="403.65999999999997" y="280" width="78" height="78" as="geometry" />
        </mxCell>
        <mxCell id="XdNitLlG15K0FlTrxvzR-2" value="" style="outlineConnect=0;dashed=0;verticalLabelPosition=bottom;verticalAlign=top;align=center;html=1;shape=mxgraph.aws3.rds;fillColor=#2E73B8;gradientColor=none;" vertex="1" parent="1">
          <mxGeometry x="690" y="280" width="72" height="81" as="geometry" />
        </mxCell>
        <mxCell id="XdNitLlG15K0FlTrxvzR-4" value="" style="shape=image;verticalLabelPosition=bottom;labelBackgroundColor=default;verticalAlign=top;aspect=fixed;imageAspect=0;image=data:image/png,iVBORw0KGgoAAAANSUhEUgAABLAAAAejCAYAAABfi9lnAAAABGdBTUEAALGPC/xhBQAAACBjSFJNAAB6JgAAgIQAAPoAAACA6AAAdTAAAOpgAAA6mAAAF3CculE8AAAABmJLR0QA/wD/AP+gvaeTAAAAB3RJTUUH6AcUCREQGicnbAAAgABJREFUeNrs/XmU3Hd95/u/P99utWypWvIWZGMwODZmETZWV1XbxoYoDGsgQAgGwr4HzGLMZhaDCwOyVF1dltvSSTjnd8NkktmcuXfuzG/m3rnLmcPM/d0k2JLJDSQ3GRQD9sTbIRhHkrGl7vr8/sAk3mT3UtX9rW89Hn8mYNzP7q7lpe63xgIAgL754Ac/+LWU0t/ecccdf6cGAEB/jEsAANAfO3fuPOP+++//YERMR8TLFQEA6I9CAgCA/hgbG5vLOZ8YES9rNptvUAQAoD8MWAAAfdDpdF6RUnpdznk8IiLnvHvr1q01ZQAAVs6ABQCwQnNzc+sjYu5R/+enH3fccV9QBwBg5QxYAAArdPTo0c9FxDmP/r+nlD5Vr9efoxAAwMoYsAAAVqDT6TwjIj57jP/3RErpBpUAAFbGgAUAsDJ7cs4bnuD//9Jms/kmmQAAls+ABQCwTLOzs6+NiNc82X8u5zzroDsAwPIZsAAAlqHb7R6fc75ukf/xpx1//PFfUg0AYHkMWAAAy7CwsPD5iPjlJfxXPlmv189VDgBg6QxYAABL1G63z0opfWaJ/7Xxoij2RkRSEABgaQxYAABLfQFVFNdHxHFL/e/lnF/UaDTeoiAAwBJff0kAALB4MzMzvxERr17BP6Jbr9c3KwkAsHgGLACARep2u8enlLor/MecmlL6spoAAItnwAIAWKRer3dVRDyzD/+oj09PT79AUQCAxTFgAQAsQrfbPTsiPtWnf9x4r9fbEw66AwAsigELAGARer3eXESs7+M/8pJms/k2ZQEAnpwBCwDgSczOzl4aEa/q9z8359w5//zzT1AYAOCJGbAAAJ5Aq9XakHOeGdA/fsvY2FhLZQCAJ2bAAgB4ArVa7eqIeMag/vkppY82m83zlQYAODYDFgDAMczOzp4TEZcP+H9mLOe8Nxx0BwA4JgMWAMAx5Jx/J/p7uP1YXthsNt+lOADA4zNgAQA8jpmZmbdExEtW8X9y17nnnnui8gAAj2XAAgB4lF27dk2mlDqr+b+Zc37K+vXrv6o+AMBjGbAAAB5lbGzs6og4fQ3+pz/caDSmfQYAAB7JgAUA8DCdTud5EfHxNXxttsdrNACAx75IAgDgH+2JiHVr+L/fbDQa7/FpAAD4RwYsAICHzM7Ovj0ifrUE/yrter1+is8IAMDPGbAAAOLnh9tzzrtK8q9zUkrJQXcAgIcYsAAAImJ8fPyaiHhqif6VPliv1y/wmQEAMGABAMTMzMzzc84fKdvrtKIo9l566aVjPkMAwKgzYAEAIy3nnGLtD7cf69+t/oMf/OD9PksAwKjzJ3oAwEibnJx8V0rpE/365z3wwANx4MCBfv4rvnDLli3fvOuuu+732QIARpWfwAIARtbc3NymiLi25P+aJ42Pj+/w2QIARpkBCwAYWUePHv16RJxW9n/PnPN7p6enL/IZAwBGlQELABhJ3W733Jzzh4blNVuv19vjoDsAMKoMWADAyMk5p16v942IGB+if+2pH/7wh7/tswcAjCJ/igcAjJxNmza9NyI+Moh/9gCOuP+DlNILTznllG/efffdh30WAYBR4iewAICRcu21157Y6/V2DuO/e875xImJiZ0+iwDAqDFgAQAjZXx8/OsppV8a4g/h3c1m88U+kwDAKDFgAQAjo9Pp1FNKHxzyDyPlnPds37593GcUABgVBiwAYCS0Wq0iIvZENW6Annvw4MHLfFYBgFFhwAIARkKtVnt/RFxYlY8npfTVer1+ms8sADAKDFgAQOV1u92TIuLrFfuwNqWUdvnsAgCjwIAFAFReznlnRJxSwQ/t7Y1GY7vPMABQdQYsAKDSut1uI+f8vop+eCki9tTr9XU+0wBAlRmwAIDKarVaRa/X21vx1zxbU0of9dkGAKrMgAUAVNbk5ORvR8T0CHyoX7noootO9xkHAKrKgAUAVNKOHTtOzjl/dUQ+3Mn5+fm2zzoAUFUGLACgkiYmJtoRcfKofLw557dOTU29xGceAKgiAxYAUDmdTqcZEe8etY87pXSDg+4AQBUZsACASrnxxhvHIuIbo/g6J6X0vKIoLvdVAABUjQELAKiU22677bKI2DaqH3/O+WoH3QGAqjFgAQCVMTMz85SIuGbEM9SOHj0666sBAKgSAxYAUCUzEXGCDPHmZrP5ShkAgKowYAEAldButy9OKb1DiZ/r9XpzZ5999nolAIAqMGABAEPvxhtvHCuKYm9EJDV+LqX0rM2bN1+hBABQBQYsAGDo/ehHP/pYRLxAiUdKKX3pwgsvfKYSAMCwM2ABAENt9+7dW1JKVyvxuDbMz893ZAAAhp0BCwAYavPz87PhcPsT+c1Go/FrMgAAw8yABQAMrU6nc0lEvFWJJ3X99u3bj5MBABhWBiwAYCi1Wq3xiHC4fXHOPnTo0KdkAACGlQELABhKk5OTn4iI85RYtC9OT0+fKQMAMIwMWADA0Gm326fmnK9SYkmO7/V6XRkAgGFkwAIAhu8FTFFcFxGblViy19fr9VfLAAAM3es/CQCAYdLpdF4cEW9WYnlSSg66AwBDx4AFAAyNVqs1kXP+3XC4fSXOOnTo0JUyAADDxIAFAAyNjRs3XpFSeq4SK/b5Cy644FkyAADDwoAFAAyFXbt2PS2l5HB7f6xfWFiYkwEAGBYGLABgKIyNjV0XETUl+uaVjUbjtTIAAMPAgAUAlN7MzMxLI+KNSvTdDeedd95GGQCAsjNgAQCl1mq1JlJKNygxEGesX7/eQXcAoPQMWABAqdVqtU9HxHOUGIyc85WNRuPZSgAAZWbAAgBKa3Z29ukR8QUlBmoiIhx0BwBKzYAFAJTZ9RHhRtPgvXx6evo3ZAAAysqABQCUUrvdfnnO2aiySnq93vUOugMAZWXAAgBKZ25ubn1RFA63r66nT0xM+HVNAKCUDFgAQOkcOXLkyog4R4lV9+l6ve5gPgBQOgYsAKBUdu7ceUZEfFaJNTGRUvKTbwBA6RiwAIBSGR8f3xMOt6+ll9br9UtlAADKxIAFAJRGt9t9ZUT8uhJrK6XU3bp1a00JAKAsDFgAQCl0u93je73eXiVK4WkbNmy4SgYAoCwMWABAKfR6vc9FxC8rUQ4550/V6/VzlQAAysCABQCsuXa7fVY43F424ymlPRGRpAAA1poBCwBY+xckRXF9RBynROm8uNFovFkGAGDNXy9KAACspU6n8/qIeLUSpXVdvV7fLAMAsJYMWADAmul2u8dHRFeJUju1KIovyQAArCUDFgCwZhYWFr4YEWcqUW4558unpqbOUwIAWCsGLABgTXS73bNTSp9SYiiMF0WxNxx0BwDWiAELAFgTCwsLDrcPl0uazeZbZQAA1oIBCwBYdZ1O540ppV9TYrjknGfPP//8E5QAAFabAQsAWFWtVmtDRMwoMZS2jI+PXy0DALDaDFgAwKqq1WpfiohnKjG0PtZsNs+XAQBYTQYsAGDVtNvtZ0XEFUoMtbGc855w0B0AWEUGLABg1aSU5iJivRJD7+J6vf5OGQCA1WLAAgBWxezs7JtTSq9UoiIvIoui7aA7ALBqrz0kAAAGbdeuXZM551klqiPn/JTx8fGvKgEArAYDFgAw+BccRfHliDhdicq5rNlsNmUAAAb+elICAGCQOp3O81JKlytRzdeSOee9XlMCAAN/0SEBADBgN0TEOhkqq9loNN4tAwAwSAYsAGBgZmZm3hoRL1Gi8tr1ev0UGQCAQTFgAQADsWvXrsmU0owSI+HkoiiukQEAGBQDFgAwEGNjY1+JiKcqMRpyzr/daDSmlQAABsGABQD0Xbfb3RoRH1Vi5F5XOugOAAzshQYAQN/knFOv19sTDrePokaz2Xy/DABAv41JAAD006ZNm94ZEVeM6sf/wAMPxIEDB0b5S+Di00477ffuvPPO+303AAD94iewAIC+mZub25Rz3qnESDspInbIAAD0kwELAOibI0eOfC0iTlNitKWU3jc1NXWhEgBAvxiwAIC+6Ha750bEh5UgIoqiKPZeeumlzlUAAP15cSEBALBSDzvcPq4GD5m69dZbPygDANAP/lQMAFixWq32npTSx5VwxP3hiqJ44SmnnPLNu++++7AaAMCKXldIAACsxLXXXntiSsnhdh4j53zixMTEtUoAACtlwAIAVmTdunVfi4inKMExvKfZbL5YBgBgJQxYAMCytdvtqYj4bSV4AinnvGf79u3uowEAy2bAAgCWpdVqFUVR7Ak3NXly5x48eNDfUAkALJsBCwBYlo0bN74vIi5SgsVIKX2tXq+fpgQAsBwGLABgybrd7kkR8XUlWIJNRVE46A4ALIsBCwBYsl6vd21K6ZeUYClyzu9sNBrblQAAlsqABQAsSafTqUfE+5VgGVJE7KnX6+ukAACWwoAFACxaq9UqImKv1xCswNaU0kdkAACWwotPAGDRarXaByPiAiVYoWu2bdv2VBkAgMUyYAEAi7Jjx46TI+KrStAHk0VRtGUAABbLgAUALMr69et3RcQpStAPKaW31ev1X1UCAFgMAxYA8KQ6nU4z5/weJegzB90BgEUxYAEAT+ihw+17vG6g31JKz4uIjysBADwZL0QBgCe0cePGyyJiWgkGIaV09UUXXXS6EgDAEzFgAQDHNDMz85SU0jVKMECTR48e7cgAADwRAxYAcEwppXZEnKgEA/aWZrP5ShkAgGMxYAEAj6vdbl8cEe9UgtXQ6/Xmzj777PVKAACPx4AFADzGjTfeOFYUxZ6ISGqwGlJKz9q8efMnlAAAHo8BCwB4jNtuu+2jEXG+EqymlNKXt23b9gwlAIBHM2ABAI+we/fuLRHRUoI1sGFsbMxBdwDgMQxYAMAjPPQ3wp2gBGvkjY1G41UyAAAPZ8ACAP5Bp9O5JKX0NiVYYw66AwCPYMACACIiotVqjUeEw+2UwdknnHDCp2QAAH7BgAUARERErVa7PCJeoAQlcdX09PSZMgAAEQYsACAi2u32qRHxJSUokeMXFhZmZQAAIgxYAEBEFEXRjYjNSlAmKaXfqNfrr1YCADBgAcCI63Q6L46ItyhBGaWUrt++fftxSgDAaDNgAcAIc7idIXDW4cOHPysDAIw2AxYAjLBarfbJiDhXCcos5/y5ZrP5y0oAwOgyYAHAiNq1a9fTwuF2hsPxOee9MgDA6DJgAcCIGhsb60ZETQmGxCubzeavywAAo8mABQAjaGZm5qURcakSDJOc8556vb5BCQAYPQYsABgxrVZrIqV0gxIMoTMi4koZAGD0GLAAYMRs3LjxUxHxHCUYRimlK6enp89RAgBGiwELAEbI7Ozs01NKX1SCIba+1+v5CUIAGDEGLAAYITnn3RGxUQmG3Mvr9frrZQCA0WHAAoAR0W63Xx4Rb1CCKkgpXX/eeecZYwFgRBiwAGAEtFqtiaIo5pSgQs6YmJj4vAwAMBoMWAAwAiYnJ6+MiGcrQcV8ptFo+LoGgBFgwAKAitu5c+cZOecrlaCCJiLCQXcAGAEGLACouPHx8RvC4Xaq62WNRuONMgBAtRmwAKDCOp3OKyLitUpQcddt3bq1JgMAVJcBCwAqam5ubn1EONzOKHjahg0bvigDAFSXAQsAKurBBx/8fEScowSjIOf8yampqecqAQDVZMACgApqt9tnpZQcbmeUTBRF8bsRkaQAgOoxYAFAFZ/gi2J3RBynBCPmxc1m800yAEAFX99KAADVMjMz87qIeI0SjKKc8+56vb5ZCQCoFgMWAFRIt9s9PqV0nRKMsFMj4ioZAKBaDFgAUCG9Xu8LEXGmEoyylNInpqamzlMCAKrDgAUAFdHtds+OiE8rATE+Nja2Jxx0B4DKMGABQEUsLCxcHw63Q0RE5JxfVK/Xf0sJAKgGAxYAVMDs7OxvppR+TQn4RymlroPuAFANBiwAGHKtVmtDzrmjBDzGlpTS1TIAwPAzYAHAkJucnLwqIp6pBDyuj01PT79ABgAYbgYsABhi7Xb7WTnnTyoBxzTe6/X2hoPuADDUDFgAMMRSSnMRsV4JeEIXNxqNd8gAAMPLgAUAQ2pmZuZNKaVXKgGL0j7//PNPkAEAhpMBCwCGUKvV2pBSaisBi7ZlfHz8GhkAYDgZsABgCNVqtVZEPEMJWJLLGo3GNhkAYPgYsABgyHQ6nedFxCeUgCUbi4hveA0MAMPHkzcADJ8bImKdDLAszWaz+S4ZAGC4GLAAYIh0Op3fioiXKAHLl3OemZ6ePlkJABgeBiwAGBK7du2ajIgZJWDFTl5YWHDQHQCGiAELAIblSbsoWhFxuhKwcimlDzUajWklAGBIXgtLAADl1+12t6aUPqYE9PV18F6vhwFgeJ64AYASyzmnXq+3Jxxuh35rNJvN98kAAOU3JgEAlNvk5OQ7IuIKJYbDAw88EAcOHBBieFx82mmn/d6dd955vxQAUF5+AgsASmxubm5TROxUAgbmpJTS12UAgHIzYAFAiR09evSrEfFUJWCg3j81NXWhDABQXgYsACipmZmZ5+ecL1MCBv+aeGxsbM+ll17qvAYAlPXJWgIAKJ+cc4qIPRExrgasyvdc/dZbb/2AEgBQTv6UCQBKaNOmTe+OiMuVGD6OuA+voigu3rJly+/dddddDroDQNmepyUAgHKZm5vblHPeoQSsrpzziWNjY9cqAQDlY8ACgJI5cuTIjog4TQlYE++dnp6+SAYAKBcDFgCUyOzs7LaI+JASsGZSr9f7xvbt292fA4ASMWABQEm0Wq0i57w33KiEtXbuoUOHDMkAUCIGLAAoiVqt9t6I8KtLUA5fr9frfpUXAErCgAUAJXDttdee6HA7lMqmiPA9CQAlYcACgBIYHx+/NqX0S0pAeaSU3tVsNn9FCQBYewYsAFhjnU6nnlJ6vxJQOinnvKder6+TAgDWlgELANZQq9UqIsLhdiiv5xdFcZkMALC2DFgAsIYmJyc/EBEXKAHllXO+Ztu2bU9VAgDWjgELANZIt9s9Kef8NSWg9DaNjY3tkgEA1o4BCwDWSK/X2xURpygBQ+Ht9Xr9V2UAgLVhwAKANdDtdhsR8V4lYHiklG5w0B0A1oYBCwBWWavVKnq93l7PwzB0tkbEx2QAgNXnhTMArLLJyckPR8S0EjB8Ukqtiy666HQlAGB1GbAAYBXt2LHj5JzzV5SAoTV59OjRGRkAYHUZsABgFU1MTMxExMlKwFD7rampqZfIAACrx4AFAKtkdnb2hRHxbiWgAi+ii+J3zj777PVKAMAqPfdKAACDd+ONN47lnPdGRFIDKuGcE0444XIZAGB1GLAAYBX86Ec/+khEnK8EVMrV27Zte4YMADB4BiwAGLDdu3dvSSk53A7Vs2F8fNxBdwBYBQYsABiw+fn5mYg4QQmonpzzpY1G41VKAMBgGbAAYIA6nc4lEfF2JaC6cs7XO+gOAINlwAKAAWm1WuMRsSccbodKSyk968QTT/ykEgAwOAYsABiQWq32sYh4gRJQfTnnL1144YXPVAIABsOABQAD0G63T42Iq5WAkXH8/Pz8rAwAMBgGLAAYgLGxsdmI2KwEjJQ31Ov1V8sAAP1nwAKAPmu32y/KOf+WEjB6UkrXb9++/TglAKC/DFgA0EetVmu8KIq94XA7jKqzDh48+BkZAKC/DFgA0EcbN268IiLOVQJGV0rp89PT02cqAQD9Y8ACgD5pt9unppSuUgJG3vG9Xm+3DADQPwYsAOjXk2pRXB8Rm5QAIuK1U1NTr5EBAPr0WlsCAFi52dnZfxIRb1IC+IcX2kWxp16vb1ACAPrwvCoBAKxMq9Wa6PV6NygBPMozUkqflQEAVs6ABQArVKvVPplSeq4SwOP43PT09DkyAMDKGLAAYAVmZ2efHhFfVAI4hvU55zkZAGBlDFgAsAK9Xu+6iKgpARxLzvkVjUbjdUoAwPIZsABgmTqdzstSSr+pBLAIc+edd95GGQBgeQxYALAMrVZrIiIcbgcW64z169d/TgYAWB4DFgAsQ61W+2xEPFsJYLFyzp9tNBoeNwBgGQxYALBEO3fuPCMi/CQFsFR+chMAlsmABQBLtG7durmIcMsGWI6XNRoNt/MAYIkMWACwBJ1O5xU5Z3+bGLAS123dutXfXgoAS2DAAoBFmpubWx8Rc0oAK/T044477gsyAMDiGbAAYJGOHj36uYg4RwlgpVJKn5qamnquEgCwOAYsAFiETqfzjIj4rBJAn0wUReGgOwAskgELABZnT855gwxAH/2TZrP5JhkA4MkZsADgSczOzr42Il6jBNBvOefdF1xwwSYlAOCJGbAA4Al0u93jc87XKQEMyGkLCwtXyQAAT8yABQBPYGFh4fMR8ctKAAN0Rb1eP1cGADg2AxYAHEO73T4rpfQZJYABGy+KYm9EJCkA4PEZsADgWE+SRXF9RBynBDBoOecXNRqNtygBAMd4bS4BADzWzMzMb0TEq5UAVlG3Xq9vlgEAHsuABQCPfgfZ7R6fUuoqAayyU1NKX5YBAB7LgAUAj9Lr9a6KiGcqAayBj09PT79ABgB4JAMWADxMu91+VkR8SglgjYz3er094aA7ADyCAQsAHv7E+PPD7euVANbQJY1G4+0yAMDDXqdLAAA/Nzs7e2lEvEoJoARmzj///BNkAICfM2ABQES0Wq0NOecZJYCS2LJu3bqvyAAAP2fAAoCIqNVqV0fEM5QAyiLn/JFms3m+EgBgwAKAmJ2dPSciLlcCKJmxnPPecNAdAAxYAJBz/p1wuB0opxc2m813yQDAqDNgATDSZmZm3hIRL1ECKKucc2d6evpkJQAYZQYsAEbWrl27JlNKHSWAkju51+s56A7ASDNgATCyxsbGro6I05UAhsCHG43GtAwAjCoDFgAjqdvtbo2IjysBDNHr9j1evwMwyk+EADByer3eDRGxTglgiDTr9fp7ZQBgFBmwABg5s7Ozb4+IX1UCGDYppV31ev0UJQAYNQYsAEbKrl27JnPOu5QAhtRJKaWvyQDAqDFgATBSxsbGvhoRT1UCGGIfqNfrF8gAwCgxYAEwMmZmZp4fEZcpAQz7a/iiKPZeeumlY1IAMDJPfhIAMApyzil+/jd4OdwOVOExrf6DH/zg/UoAMCr8qQ0AI2FycvJdKaVPKMGgPfDAA3HgwAEhWA0v3LJlyzfvuuuu+6UAoOr8BBYAlTc3N7cpIq5VAqiYk8bHx3fIAMAoMGABUHlHjx79ekScpgRQNTnn905PT1+kBABVZ8ACoNK63e65OecPKQFU9fV8r9fb46A7AJV/wpMAgKrKOader/eNiBhXA6iwqR/84AeGegAqzZ/UAFBZtVrtfSmljyjBanLEnTVyyWmnnfb7d9555yEpAKgiP4EFQCVde+21J4bD7cDo2JRS+roMAFSVAQuASlq3bt2OlNIvKQGMkHc3m81fkQGAKjJgAVA5nU6nHhEfUAIYMSnnvGf79u3u/gFQOQYsACql1WoVEbEn3HkERtPzDx48eJkMAFSNAQuASqnVau+PiAuVAEZVSumr27Zte6oSAFSJAQuAyuh2uydFhCPGwKjbNDY2tlMGAKrEgAVAZeScd0bEKUoAxNsbjcZ2GQCoCgMWAJXQ7XYbOef3KQEQEREpIvbU6/V1UgBQBQYsAIZeq9Uqer3eXs9rAI+wNSI+JgMAVeCFPgBDr1arfSgippUAeKSUUuuiiy46XQkAhp0BC4ChtmPHjpMj4holAB7X5Pz8fFsGAIadAQuAoTYxMdGOiJOVAHh8Oee3Tk1NvUQJAIaZAQuAodXpdJoR8W4lAJ5YSukGB90BGGYGLACG0o033jgWEd/wXAbw5FJKz0spfUIJAIaVF/0ADKXbbrvtsojYpgTAorW2bdv2DBkAGEYGLACGzu7du7eEw+0AS7WhKAoH3QEYSgYsAIbO0aNH2xFxghIAS5NSelOz2XylEgAMGwMWAEOl3W5fnFJ6hxIAy9Pr9ebOPvvs9UoAMEwMWAAMjRtvvHGsKIq9EZHUAFielNKzNm/efIUSAAwTAxYAQ+NHP/rRxyLiBUoArExK6UsXXnjhM5UAYFgYsAAYCrt3796SUmopAdAXG+bn5zsyADAsDFgADIX5+fnZiNisBEDf/Gaj0fg1GQAYBgYsAEqv3W6/KCLeqgRA312/ffv242QAoOwMWACUWqvVGi+KYk843A4wCGcfPHjw0zIAUHYGLABKbXJy8hMRcZ4SAIORUvrC9PT0mUoAUGYGLABKq91un5pzvkoJgIE6vtfrXScDAGVmwAKgvE9SRbE7HG4HWA2vm5qaeo0MAJT2vYEEAJRRp9N5cUS8SQmAVXpjUBS7HXQHoLTPUxIAUDatVmsi5/y74XA7wGo669ChQ1fKAEAZGbAAKJ2NGzdekVJ6rhIAq+7z09PT58gAQNkYsAAolV27dj0tpeRwO8DaWJ9znpMBgLIxYAFQKmNjY9dFRE0JgLWRc35Fo9F4rRIAlIkBC4DSmJmZeWlEvFEJgDV3w3nnnbdRBgDKwoAFQCm0Wq2JlNINSgCUwhnr16930B2A0jBgAVAKk5OTn4mI5ygBUA455ysbjcazlQCgDAxYAKy52dnZp+ecP68EQKlMRISD7gCUggELgDX30N945dYKQPm8vNlsvkEGANaaAQuANdVut18eEa9XAqCccs67HXQHYK0ZsABYM3Nzc+uLonC4HaDcnj4xMfEFGQBYSwYsANbMkSNHroyIc5QAKL1P1+t1f9EGAGvGgAXAmti5c+cZEfFZJQCGwkRKyU/MArBmDFgArInx8fE94XA7wDB5ab1ev1QGANaCAQuAVdftdl8ZEb+uBMBwSSl1t27dWlMCgNVmwAJgVXW73eN7vd5eJQCG0tOOP/74L8kAwGozYAGwqnq93uci4peVABhan6zX6+fKAMBqMmABsGra7fZZ4XA7wLAbTyntiYgkBQCrxYAFwOo96RTF9RFxnBIAQ+/FjUbjzTIAsGrvJSQAYDV0Op3XR8SrlQCojOvq9fpmGQBYDQYsAAau2+0eHxFdJQAq5dSiKBx0B2BVGLAAGLiFhYUvRsSZSgBUS8758unp6RcoAcCgGbAAGKhut3t2SulTSgBU0niv13PQHYCBM2ABMFC9Xm8uHG4HqLJLms3m22QAYJAMWAAMTKfTeWNEvEoJgGrLOXfOP//8E5QAYFAMWAAMRKvV2hARM0oAjIQtY2NjLRkAGBQDFgADMTk5+eWIeKYSAKMhpfTRZrN5vhIADIIBC4C+a7fbz8o5f0IJgJEylnN20B2AgTBgAdB3KaW5iFivBMDIubher79TBgD6zYAFQF/Nzs6+OaX0SiUARvQNRlG0zz333BOVAKCvzy8SANAvu3btmsw5zyoBMLpyzk9Zv379NUoA0E8GLAD696RSFF+OiNOVABh5lzWbzaYMAPTtvYYEAPRDp9N5XkrpciUAiIgi57zX+w0A+vbEIgEAfXJDRKyTAYCHNBuNxntkAKAfDFgArFin03lbRLxECQAeZVe9Xj9FBgBWyoAFwMremezaNRkRbSUAeBwnp5S+KgMAK2XAAmBFxsfHr4mIpyoBwDF8sF6vXyADACthwAJg2brd7tac80eUAOCJ3nMUReGgOwArezKRAIDlyDmnXq+3JxxuB+DJnzPqzWbz/UoAsFxjEgCwHJs2bXpnRFyhBDzSAw88EAcOHBACHuviLVu2fPOuu+66XwoAlspPYAGwZHNzc5tyzjuVAGAJTiqK4usyALAcBiwAluzIkSNfi4jTlABgKVJK75uamrpQCQCWyoAFwJJ0u91zI+LDSgCwnPcfRVHsvfTSS50yAWBpTyASALBYDzvcPq4GAMs09cMf/vC3ZQBgKfzJBwCLtmnTpvdGxMeVgGNzxB2eXErphaeccso377777sNqALAYfgILgEW59tprT8w5X6sEACuVcz5xYmLCXwYCwKIZsABYlHXr1n0tIp6iBAB98u5ms/liGQBYDAMWAE+q3W5PRYR7JQD0U8o579m+fbu7igA8KQMWAE+o1WoVRVHsDXcTAei/cw8ePOhvtgXgSRmwAHhCGzdufF9EXKgEAIOQUvpavV4/TQkAnogBC4Bj6na7J0XE15UAYIA2pZQcdAfgCRmwADimXq93bUrpl5QAYMDe0Wg0tssAwLEYsAB4XJ1Opx4R71cCgFWQImJPvV5fJwUAj8eABcBjtFqtIiL2ep4AYBVtTSl9VAYAHo83JgA8Rq1W+2BEXKAEAKvsK9u2bXuqDAA8mgELgEfYsWPHyRHxVSUAWAOTRVG0ZQDg0QxYADzC+vXrd0XEKUoAsBZSSm+bmpp6iRIAPJwBC4B/0Ol0mjnn9ygBwFpKKd3goDsAD2fAAiAiHG4HoDxSSs8riuJyJQD4BW9SAIiIiI0bN14WEU0lACiDnPOXL7rootOVACDCgAVARMzMzDwlpXSNEgCUyOTRo0dnZQAgwoAFQESklNoRcaISAJTMm5vN5itlAMCABTDi2u32xRHxTiUAKKNerzd39tlnr1cCYLQZsABG2I033jhWFMWeiEhqAFBGKaVnbd68+RNKAIw2AxbACLvttts+GhHnKwFAmaWUvnzhhRc+UwmA0WXAAhhRu3fv3hIRLSUAGAIb5ufnZ2QAGF0GLIARdfTo0U5EnKAEAEPijY1G49dkABhNBiyAEdTpdC5JKb1NCQCGzPXbt28/TgaA0WPAAhgxrVZrPCIcbgdgGJ196NChT8kAMHoMWAAjplarXR4RL1ACgCH1xenp6TNlABgtBiyAEdJut0+NiC8pAcAQO77X63VlABgtBiyAUXrQL4rrImKzEgAMudfX6/VXywAwQu9lJAAYDZ1O58UR8WYlAKiClJKD7gAjxIAFMAIcbgeggs46fPjwZ2UAGA0GLIARUKvVPhkR5yoBQJXknD/XbDZ/WQmA6jNgAVTcrl27nhYOtwNQTcfnnPfKAFB9BiyAihsbG+tGRE0JACrqlc1m89dlAKg2AxZAhc3MzLw0Ii5VAoAqyznvOe+88zYqAVBdBiyAimq1WhMppRuUAGAEnLFu3ToH3QEqzIAFUFG1Wu3TEfEcJQAYBSmlK6enp89RAqCaDFgAFTQ7O/v0iPiCEgCMkPW9Xs9PHgNUlAELoIJyzrsjwi0QAEbNy6enp39DBoDqMWABVEy73X55RLxBCQBGUa/Xu95Bd4DqMWABVEir1ZooimJOCQBG2NMnJiY+LwNAtRiwACpkcnLyyoh4thIAjLjP1Ot1f5EJQIUYsAAqYufOnWfknK9UAgBiIqXkoDtAhRiwACpifHz8hnC4HQB+4aWNRuONMgBUgwELoAI6nc4rIuK1SgDAI1y3devWmgwAw8+ABTDk5ubm1keEw+0A8FhP27Bhw1UyAAw/AxbAkHvwwQc/HxHnKAEAj5VzvmJqauq5SgAMNwMWwBBrt9tnpZQcbgeAY5soiuJ3IyJJATC8DFgAw/wgXhS7I+I4JQDgCb242Wy+SQaAIX7vIwHAcJqZmXldRLxGCQB4cjnn3fV6fbMSAMPJgAUwhLrd7vEppeuUAIBFOzUiHHQHGFIGLIAh1Ov1vhARZyoBAIuXUvrE1NTUeUoADB8DFsCQ6Xa7Z0fEp5UAgCUbL4pibzjoDjB0DFgAQ2ZhYeH6cLgdAJbrkmaz+VYZAIaLAQtgiMzOzv5mSunXlACA5cs5zzroDjBcDFgAQ6LVam3IOXeUAIAV25JSaskAMDwMWABDolarfSkinqkEAPTFx6anp18gA8BwMGABDIF2u/2siLhCCQDom7Fer+egO8CQMGABDIGU0lxErFcCAPrq4kaj8Q4ZAMrPgAVQcjMzM29KKb1SCQDov5TSzPnnn3+CEgDlZsACKLFWq7UhpdRWAgAGI+f8lPHx8WuUACg3AxZAidVqtVZEPEMJABioyxqNxjYZAMrLgAVQUp1O53kR8QklAGDgxiLiG94fAZSXB2iA8rohItbJAACrotloNN4tA0A5GbAASmhmZuatEfESJQBgVbWnp6dPlgGgfAxYACWza9euSYfbAWBNnJxz/qoMAOVjwAIombGxsa9ExOlKAMDqyzn/dqPRmFYCoFwMWAAl0u12t0bER5UAgDV9j7TXeyWA8j04A1ACOefU6/X2hMPtALDWGs1m830yAJTHmAQA5TA5OfmOiLhCCRhuDzzwQBw4cEAIGH4Xn3baab9355133i8FwNrzE1gAJTA3N7cpInYqAQClcVJK6esyAJSDAQugBI4ePfrViHiqEgBQKu+fmpq6UAaAtWfAAlhjMzMzz885X6YEAJTv/dLY2NieSy+91OkVgLV+QJYAYO3knFNE7ImIcTUAoJTP1fVbb731g0oArC1/kgCwhmq12ntSSpcrAdXhiDtUT1EUL9yyZcvv3XXXXQ66A6zVY7EEAGtjbm5uk+OwAFB+OecTx8bG/GUrAGvIgAWwRo4cObIjIk5TAgCGwnump6cvkgFgbRiwANZAu92eiogPKQEAQyP1er1vbN++3d1KgDVgwAJYZa1WqyiKYk+4QwgAw+bcQ4cO+QMogDVgwAJYZbVa7b0R4VcQAGA4fb1erzsBALDKDFgAq6jb7Z6Uc96hBAAMrU1FUVwrA8DqMmABrKKFhYUdKaVfUgIAhlfO+Z3NZvNXlABYPQYsgFXS6XTqKaX3KwEAQy/lnPfU6/V1UgCsDgMWwCpotVpFROwNh9sBoCqen1L6iAwAq8OABbAKJicnPxARFygBAJVyzbZt254qA8DgGbAABuyhw+1fUwIAKmdybGxslwwAg2fAAhiwXq+3KyJOUQIAKunt9Xr9V2UAGCwDFsAAdTqdZkS8VwkAqDQH3QEGzIAFMCAPHW7f47EWAKotpfS8iPi4EgCD400VwIBMTk5+OCKmlQCA6kspXX3RRRedrgTAYBiwAAZgx44dJ+ecv6IEAIyMyaNHj3ZkABgMAxbAAExMTHQi4mQlAGCkvGVqauolMgD0nwELoM9mZ2dfGBHvUgIARvANVlH8ztlnn71eCYA+P75KANA/N95441jOeW9EJDUAYCSdc8IJJ1wuA0B/GbAA+uhHP/rRRyLifCUAYKRdvW3btmfIANA/BiyAPtm9e/eWlJLD7QDAhvHx8RkZAPrHgAXQJ/Pz8zMRcYISAEDO+dJGo/EqJQD6w4AF0AedTueSiHi7EgDAw8w56A7QHwYsgBVqtVrjEbEnHG4HAB7p7BNOOOFTMgCsnAELYIUmJyc/HhEvUAIAeBxXXXjhhc+UAWBlDFgAK9But0/NOX9ZCQDgGI4/evRoVwaAlTFgAazkQbQouhGxWQkA4FhSSr9Rr9dfrQTACt57SQCwPO12+0UR8RYlAIAnk1K6fvv27ccpAbA8BiyAZWi1WuNFUewNh9sBgMU56+DBg5+RAWB5DFgAy7Bx48YrIuJcJQCAxUopfb7ZbP6yEgBLZ8ACWKLrrrvutJTSVUoAAEt0fM75OhkAls6ABbBECwsLuyNikxIAwDK8dmpq6jUyACyNAQtgCWZnZ/9JRLxJCQBg2W/CimJPvV7foATAEh47JQBYnFarNdHr9W5QAgBYoWeklD4rA8DiGbAAFmnjxo2fSik9VwkAoA8+Nz09fY4MAItjwAJYhNnZ2aenlL6gBADQJ+tzznMyACyOAQtgEXq93nURUVMCAOiXnPMr6vX665UAeHIGLIAn0el0XpZS+k0lAIB+Syldf955521UAuCJGbAAnkCr1ZqICIfbAYBBOWP9+vWfkwHgiRmwAJ5ArVb7bEQ8WwkAYFByzp9tNBpebwA8AQMWwDHs3LnzjIjwJ6IAwKD5iW+AJ2HAAjiGdevWzUWEmxQAwGp4WaPRcHMT4BgMWACPo9PpvCLn/DolAIBVdN3WrVv9rccAj8OABfAoc3Nz6yNiTgkAYJU9fcOGDV+UAeCxDFgAj3L06NHPRcQ5SgAAqy3n/MmpqannKgHwSAYsgIfpdDrPiIjPKgEArJGJoigcdAd4FAMWwCPtyTlvkAEAWEP/pNlsvkkGgH9kwAJ4yOzs7Gsj4jVKAABrLed8/QUXXLBJCYCfM2ABRES32z0+57xbCQCgJE5dWFi4SgaAnzNgAUTEwsLC5yPiTCUAgBK5Ympq6jwZAAxYANFut89KKX1GCQCgZMbHxsb2RESSAhh1BizAA2FRXB8RxykBAJRNzvlF9Xr9t5QARv59mwTAKOt0Om+IiFcrAQCUVUpptl6vb1YCGGUGLGBkdbvd4yNiVgkAoOROTSldLQMwygxYwMjKOX8pIp6pBAAwBD42PT39AhmAUWXAAkZSu91+Vs75k0oAAENivNfrOegOjCwDFjCaD34/P9y+XgkAYIhc0mg03i4DMJLv4SQARs3s7OylEfEqJQCAITRz/vnnnyADMGoMWMBIabVaG3LOM0oAAENqy7p1674iAzBqDFjASKnValdHxDOUAACGVc75I41GY5sSwCgxYAEjY3Z29pyIuFwJAGDIjUWEg+7ASDFgASMj5/w74XA7AFANL2w2m++WARgVBixgJHQ6nd+KiJcoAQBURc55Znp6+mQlgFFgwAIqb9euXZMR4XA7AFA1Jy8sLFwjAzAKDFhA5Y2NjV0dEacrAQBUTUrpQ41GY1oJoOoMWECldbvdrRHxcSUAgAq/p9vrvR0wCg92AJXV6/VuiIh1SgAAFdao1+vvlQGoMgMWUFmzs7Nvj4hfVQIAqLqU0q56vX6KEkBVGbCASpqbm9uUc96lBAAwIk5KKX1NBqCqDFhAJR05cuSaiHiqEgDACPlAvV6/QAagigxYQOXMzMw8PyIuUwIAGLX3d0VR7L300kvHpAAq9wAnAVAlOecUEXvC4XYAYDRfC9VvvfXWDygBVI1lHqiUycnJd6WUPqEEsFYeeOCBOHDggBDAmimK4uItW7b83l133XW/GkBlHtskAKpibm5uU0RcqwQAMMpyzieOjY15TQRUigELqIyjR49+PSJOUwIAIN47PT19kQxAVRiwgErodrvn5pw/pAQAQEREpF6v56A7UBkGLGDo5ZxTr9f7RkSMqwEA8A+2/eAHP/AHfEAlWOOBoVer1d6XUvqIEkAZOOIOlMwlp5122u/feeedh6QAhpmfwAKG2rXXXntiONwOAHAsmyJihwzAsDNgAUNt3bp1O1JKv6QEAMDjSym9q9ls/ooSwDAzYAFDq9Pp1CPiA0oAADyhlHPeU6/X10kBDCsDFjCUWq1WERF7wi0/AIDFeH5RFJfJAAwrAxYwlGq12vsj4kIlAAAWJ+d8zbZt256qBDCMDFjA0Ol2uydFxNeVAABYkk1jY2M7ZQCGkQELGDo5550RcYoSAABL9vZ6vf6rMgDDxoAFDJVut9vIOb9PCQCAZUkppRscdAeGjQELGBqtVqvo9Xp7PXYBAKzI1oj4mAzAMPEmEBgatVrtQxExrQQAwMqklFoXXXTR6UoAw8KABQyFHTt2nBwR1ygBANAXk0ePHp2RARgWBixgKExMTMxExMlKAAD0zW9NTU29RAZgGBiwgNLrdDrNiHiXEgAA/eWgOzAsDFhAqd14441jEfENj1cAAP2XUnpeSukTSgBl5w0hUGq33XbbZRGxTQkAgIFpbdu27RkyAGVmwAJKa/fu3VvC4XYAgEHbUBRFWwagzAxYQGkdPXq0HREnKAEAMFgppTc1Go1XKQGUlQELKKV2u31xSukdSgAArI6c8/Vnn332eiWAMjJgAaXTarXGi6LYGxFJDQCA1ZFSetaJJ574SSWAMjJgAaVTq9U+FhEvUAIAYHXlnK+68MILn6kEUDYGLKBUHjrcfrUSAABrYsP8/PysDEDZGLCAUllYWOhGxGYlAADWzBsajcavyQCUiQELKI12u/2inPNvKQEAsOau3759+3EyAGVhwAJK4aHD7XvC4XYAgDI4++DBg5+WASgLAxZQCpOTk5+IiPOUAAAoh5TSF6anp89UAigDAxaw5trt9qk556uUAAAoleN7vd51MgBlYMAC1v6BqCh2h8PtAABl9LqpqanXyACs+ftGCYC11Ol0XhwRb1ICAKCkbxqLYreD7sCaPxZJAKyVVqs1kXP+3XC4HQCgzM46dOjQ52QA1pIBC1gztVrtkyml5yoBAFB6n5uenj5HBmCtGLCANbFr166nRcQXlQAAGArrc85zMgBrxYAFrImxsbHrIqKmBADAcMg5v6LRaLxOCWAtGLCAVdfpdF4WEW9UAgBg6Mydd955G2UAVpsBC1hVrVZrIiJuUAIAYCidsX79+itlAFabAQtYVZOTk5+JiGcrAQAwnHLOVzYaDa/ngFVlwAJWzc6dO8/IOX9eCQCAoeYn6oFVZ8ACVs34+Pj1EeFmAgDA8HtZs9l8gwzAajFgAaui3W6/PCJerwQAQDXknHdv3brV3yoNrAoDFjBwc3Nz64ui8GPmAADV8vTjjjvuCzIAq8GABQzckSNHroyIc5QAAKiWlNKn6vX6c5QABs2ABQzUzp07z0gp+auWAQCqaSKl5CftgYEzYAEDNT4+vifnvEEJAIDKemm9Xr9UBmCQDFjAwHS73VdGxK8rAQBQbSmlroPuwCAZsICB6Ha7x/d6vb1KAACMhKcdf/zxX5IBGBQDFjAQvV7vcxHxy0oAAIyMT9br9XNlAAbBgAX0XbvdPisiPqsEAMBIGS+KYm9EJCmAfjNgAf1/YCmK6yPiOCUAAEZLzvlFjUbjLUoAfX+fKQHQTzMzM78REa9WAgBgZHXr9fpmGYB+MmAB/Xul0u0en1KaVQIAYKSdmlL6sgxAPxmwgL7p9XpXRcSZSgAAjLyPT09Pv0AGoF8MWEBfdLvdsyPiU0oAABAR471eb0846A70iQEL6IterzcXEeuVAADgIZc0m823yQD0gwELWLFOp/PGiHiVEgAAPFzOuXP++eefoASwUgYsYEVardaGiJhRAgCAx7FlbGysJQOwUgYsYEUmJye/HBHPVAIAgMeTUvpos9k8XwlgJQxYwLK12+1n5Zw/oQQAAE9gLOe8Nxx0B1bAgAUsW0rJ4XYAABbjhc1m810yAMtlwAKWZWZm5i0ppVcqAQDAIu0699xzT5QBWA4DFrD0Vx67dk2mlDpKAACwWDnnp6xfv/6rSgDLYcAClv7AURRfjojTlQAAYIk+3Gg0pmUAlvw+VAJgKTqdzvNSSpcrAQDAMt+D7vFeFFjOgwfAUuyJiHUyAACwTM1Go/EeGYClMGABi9bpdN4WEb+qBAAAK9Su1+unyAAslgELWJRdu3ZNRkRbCQAA+uCklJKD7sCiGbCARRkfH78mIp6qBAAAffLBer1+gQzAYhiwgCfV7Xa35pw/ogQAAP18P1oUxd5LL710TArgSR8wJACeSM459Xo9h9sBABjEa836D37wg/crATwZSzfwhDZt2vTOiLhCCYDFeeCBB+LAgQNCACzeC7ds2fLNu+66634pgGPxE1jAMc3NzW3KOe9UAgCAATppfHx8hwzAEzFgAcd05MiRr0XEaUoAADBIOef3Tk9PX6QEcCwGLOBxdbvdcyPiw0oAALAa7017vd4eB92BYz5ISAA82sMOt4+rAQDAKpn64Q9/+NsyAI/Hug08xqZNm94bER9XAmDpHHEHWL6U0gtPOeWUb959992H1QAezk9gAY9w7bXXnphzvlYJAABWW875xImJCX+JEPAYBizgEcbHx78eEU9RAgCANfLuZrP5YhmAhzNgAf+g3W5PpZQ+qAQAAGso5Zz3bN++3T1W4B8YsICIiGi1WkVRFHvDbTwAANbeuQcPHrxMBuAXDFhARERs3LjxfRFxoRIAAJRBSumr9Xr9NCWACAMWEBHdbveklNIOJQAAKJFNKSUH3YGIMGABEdHr9a6NiFOUAACgZN7RaDS2ywAYsGDEdTqdekS8XwkAAEooRcSeer2+TgoYbQYsGGGtVquIiL0eCwAAKLGtKaWPygCjzZtWGGGTk5O/HREXKAEAQMl95aKLLjpdBhhdBiwYUTt27Dg553yNEgAADIHJ+fn5tgwwugxYMKImJiba4XA7AABDIuf81qmpqZcoAaPJgAUjqNPpNCPi3UoAADBMUko3OOgOo8mABSPG4XYAAIZVSul5RVFcrgSMHm9gYcRs3LjxsohoKgEAwDDKOV/toDuMHgMWjJCZmZmnpJQcbgcAYJjVjh49OisDjBYDFoyQlFI7Ik5UAgCAIffmZrP5ShlgdBiwYES02+2LI+KdSgAAUAW9Xm/u7LPPXq8EjAYDFoyAG2+8cawoij0RkdQAAKAKUkrP2rx58xVKwGgwYMEI+NGPfvSxiDhfCQAAqiSl9KULL7zwmUpA9RmwoOJ27969JaV0tRIAAFTQhvn5+Y4MUH0GLKi4o0ePdiLiBCUAAKio32w0Gr8mA1SbAQsqrNPpXJJSepsSAABU3PXbt28/TgaoLgMWVFSr1RqPiL3hcDsAANV39qFDhz4lA1SXAQsqqlarXR4R5ykBAMCI+OL09PSZMkA1GbCggtrt9qkR8SUlAAAYIcf3er2uDFBNBiyo4jd2UVwXEZuVAABgxLy+Xq+/Wgao4PtcCaBaOp3OiyPizUoAADCKUkoOukMFGbCgQh463L4nHG4HAGB0nXXo0KErZYBqMWBBhdRqtU9GxLlKAAAw4q5sNpu/LANUhwELKmLXrl1PC4fbAQAgIuL4nPNeGaA6DFhQEWNjY92IqCkBAAAREfHKRqPxWhmgGgxYUAEzMzMvjYhLlQAAgEe44bzzztsoAww/AxYMuVarNZFSukEJAAB4jDPWrVv3WRlg+BmwYMjVarVPR8RzlAAAgMdKKV3ZaDSerQQMNwMWDLHZ2dmnR8QXlAAAgGNaHxFzMsBwM2DBcLs+IvxOPwAAPLGXT09P/4YMMLwMWDCk2u32y3POnoQBAGARer3e9Q66w/AyYMEQarVaE0VR+DFoAABYvKdPTEw4vwFDyoAFQ2hycvLKiHCIEgAAlubT9XrdX4AEQ8iABUNm586dZ+Scr1QCAACWbCKldIMMMHwMWDBkxsfHbwiH2wEAYLleWq/XL5UBhosBC4ZIp9N5RUS8VgkAAFi+lFJ369atNSVgeBiwYEjMzc2tjwiH2wEAYOWetmHDhqtkgOFhwIIh8eCDD34+Is5RAgAAVi7n/Kl6vX6uEjAcDFgwBNrt9lkpJYfbAQCgf8ZTSnsiIkkB5WfAgmH4Ri2K3RFxnBIAANBXL240Gm+WAYbgfbEEUG6dTuf1EfEaJQAAYCCuq9frm2WAcjNgQYl1u93jI6KrBAAADMypRVF8SQYoNwMWlFiv1/tCRJypBAAADE7O+fKpqanzlIDyMmBBSXW73bMj4tNKAADAwI0XRbE3HHSH0jJgQUktLCxcHw63AwDAarmk2Wy+VQYoJwMWlNDs7OxvppR+TQkAAFg9OefZ888//wQloHwMWFAyrVZrQ865owQAAKy6LePj41fLAOVjwIKSqdVqX4qIZyoBAABr4mPNZvN8GaBcDFhQIu12+1kRcYUSAACwZsZyznvCQXcoFQMWlEhKaS4i1isBAABr6uJ6vf5OGaA8DFhQEjMzM29KKb1SCQAAKMGb5aJoO+gOJfqelADWXqvV2pBSaisBAADlkHN+yvj4+FeVgHIwYEEJ1Gq1VkQ8QwkAACiVy5rNZlMGWHsGLFhjnU7neRHxCSUAAKB875lzznu9d4YSfDNKAGvuhohYJwMAAJRSs9FovFsGWFsGLFhDMzMzb42IlygBAACl1q7X66fIAGvHgAVrZNeuXZMOtwMAwFA4uSiKa2SAtWPAgjUyNjb2lYg4XQkAACi/nPNvNxqNaSVgbRiwYA10u92tEfFRJQAAYKjePzvoDmv4DQisopxz6vV6e8LhdgAAGDaNZrP5fhlg9Y1JAKtrcnLyHRFxhRIA1fTAAw/EgQMHhACorotPO+2037vzzjvvlwJWj5/AglU0Nze3KSJ2KQEAAEPrpIjYIQOsLgMWrKKjR49+NSJOUwIAAIZXSul9U1NTFyoBq8eABauk2+2em3O+TAkAABj+99JFUey99NJLneWB1fqmkwAG72GH28fVAACASpi69dZbPygDrA5rMayCWq32npTSx5UAqD5H3AFGR1EULzzllFO+effddx9WAwb8/SYBDNbc3NymlNLXlQAAgGrJOZ84MTFxrRIweAYsGLAjR45cGw63AwBAVb2n2Wy+WAYYLAMWDFC73Z6KiN9WAgAAKivlnPds377dvVsYIAMWDEir1SqKotgTbs0BAEDVnXvw4MEPywCDY8CCAanVau+NiIuUAACA6kspfa1erzsdAgNiwIIB6Ha7J+WcdygBAAAjY1NRFA66w4AYsGAAFhYWdqSUfkkJAAAYHTnndzYaje1KQP8ZsKDPOp1OPaX0fiUAAGDkpIjYU6/X10kB/WXAgj5qtVpFROwNh9sBAGBUbU0pfUQG6C8DFvRRrVb7YERcoAQAAIy0a7Zt2/ZUGaB/DFjQJ91u96SI+KoSAAAw8iaLomjLAP1jwII+yTm3I+IUJQAAgJTS2+r1+q8qAf1hwII+6HQ6zZzze5QAAAAexkF36BMDFqzQQ4fb9/h+AgAAHi6l9LyI+LgSsHLecMMKTU5OfjgippUAAAAeLaV09UUXXXS6ErAyBixYgR07dpycc/6KEgAAwDFMHj16tCMDrIwBC1ZgYmKiExEnKwEAADyBtzSbzVfKAMtnwIJlmp2dfWFEvEsJAADgyfR6vbmzzz57vRKwPAYsWIYbb7xxLOe8NyKSGgAAwJNJKT1r8+bNn1AClseABctw2223fTQizlcCAABYrJTSl7dt2/YMJWDpDFiwRLt3794SES0lAACAJdowNjbmoDssgwELlmh+fn4mIk5QAgAAWIY3NhqNV8kAS2PAgiXodDqXRMTblQAAAFbAQXdYIgMWLFKr1RqPiD3hcDsAALAyZ59wwgmfkgEWz4AFizQ5OfnxiHiBEgAAQB9cNT09faYMsDgGLFiEdrt9as75y0oAAAB9cvzCwsKsDLA4BixYzDdKUXQjYrMSAABAv6SUfqNer79aCVjE+3IJ4Im12+0XRcRblAAAAPotpXT99u3bj1MCnpgBC55Aq9UaL4pibzjcDgAADMZZhw8f/qwM8MQMWPAENm7ceEVEnKsEAAAwKDnnzzWbzV9WAo7NgAXHcN11152WUrpKCQAAYMCOzznvlQGOzYAFx7CwsLA7IjYpAQAArIJXNpvNX5cBHp8BCx7HzMzMSyPiTUoAAACrJee8p16vb1ACHsuABY/SarUmUko3KAEAAKyyMyLiShngsQxY8CgbN278VEQ8RwkAAGC1pZSunJ6ePkcJeCQDFjzM7Ozs01NKX1ACAABYI+t7vZ7fCIFHMWDBw+Scd0dETQkAAGANvbxer79eBvhHBix4SKfTeVlEvEEJAABgraWUrj/vvPM2KgE/Z8CC+Pnh9ojwY7oAAEBZnDExMfF5GeDnDFgQEbVa7bMR8WwlAACAEvlMo9HwPgXCgAWxc+fOMyLic0oAAAAl4zdF4CEGLEbeunXr5iLC75YDAABl9LJGo/FGGRh1BixGWqfTeUXO+XVKAAAAJXbd1q1b/W3pjDQDFiNrbm5ufUTMKQEAAJTc0zZs2PBFGRhlBixG1oMPPvj5iDhHCQAAoOxyzp+cmpp6rhKMKgMWI6nT6TyjKIrPKAEAAAyJiaIofjcikhSMIgMWo2pPznmDDAAAwBB5cbPZfJMMjCIDFiNnZmbmdRHxGiUAAIBhk3PeXa/XNyvBqDFgMVK63e7xKaXrlAAAAIbUqRFxlQyMGgMWI2VhYeHzEXGmEgAAwLBKKX1iamrqPCUYJQYsRka32z07peRwOwAAMOzGx8bG9oSD7owQAxYjY2Fh4fqIOE4JAABg2OWcX1Sv139LCUaFAYuR0Ol03pBS+jUlAACAqkgpdR10Z1QYsKi8Vqu1ISJmlQAAACpmS0rpahkYBQYsKm9ycvKqiHimEgAAQAV9bHp6+gUyUHUGLCqt3W4/K+f8SSUAAICKGu/1envDQXcqzoBFtb/Ai+L6iFivBAAAUGEXNxqNd8hApd/fS0BVzc7OXhoRr1ICAAAYAe3zzz//BBmoKgMWldRqtTbknGeUAAAARsSW8fHxa2SgqgxYVFKtVrs6Ip6hBAAAMEIuazQa22SgigxYVM7s7Ow5EXG5EgAAwIgZi4hveK9PFfmipnJyzr8TDrcDAACjqdlsNt8lA1VjwKJSOp3Ob0XES5QAAABGVc55Znp6+mQlqBIDFpWxa9euyYhwuB0AABh1Jy8sLDjoTqUYsKjOF3NRtCLidCUAAIBRl1L6UKPRmFaCyrznl4Aq6Ha7W1NKH1MCAADgH97v7/W+nyp9QcPQ6/V6N0TEOiUAAAD+QaPZbL5PBqrAgMXQm52dfXtE/KoSAAAAj5Rz3lmv109RgmFnwGKozc3Nbco571ICAADgcZ2UUvq6DAw7AxZD7ciRI9dExFOVAAAAOKb3T01NXSgDw8yAxdCamZl5fkRcpgQAAMATv/cfGxvbc+mll45JwdB+EUvAMMo5p4jYEw63AwAALOY9VP3WW2/9gBIMK+srQ2nTpk3vjojLlQCgbB544IE4cOCAEACUTlEUF2/ZsuX37rrrrvvVYOi+fiVg2Dx0uH2HEgAAAIuXcz5xbGzsWiUYRgYshs6RI0d2RMRpSgAAACzZe6enpy+SgWFjwGKodLvdcyPit5UAAABYltTr9b6xffv2cSkYJgYshkbOOfV6vW9EhAdaAACA5Tv30KFDH5KBYeKIO0OjVqu9L6X0ESUAKDNH3AEYEpecdtppv3/nnXcekoJh4CewGArXXnvtiRHh2CAAAEB/bIoIfzkWQ8OAxVBYt27djpTSLykBAADQHymldzWbzV9RgmFgwKL0Op1OPSI+oAQAAEBfpZzznnq9vk4Kys6ARam1Wq0iIvaEe20AAACD8PyiKC6TgbIzYFFqk5OTH4iIC5UAAAAYjJzzNdu2bXuqEpSZAYvS6na7J+Wcv6YEAADAQG0aGxvbJQNlZsCitHLOOyPiFCUAAAAG7u31ev1XZaCsDFiUUrfbbeSc36cEAADA6kgp3eCgO2VlwKJ0Wq1W0ev19vr6BAAAWFVbI+JjMlBGBgJKp1arfSgippUAAABYXSml1kUXXXS6EpSNAYtS2bFjx8kRcY0SAAAAa2Ly6NGjMzJQNgYsSmViYmImIk5WAoBh9dOf/jQWFhaEAGCY/dbU1NRLZKBMkgSURafTaUbEn4ZhFYAhk3OOu+66K/76r/86Dh8+HN/73vdi48aNsWnTppiYmBAIgGH0337605+ed+DAgQeloAzGJKAMbrzxxrH77rvv30fEU9UAYFj0er247bbb4qabboq/+Zu/iZ/97GcxPj4ed999dxw5ciQOHjwYP/vZz2JsbCzWrfOXOgEwVE4+7rjjDt5xxx3/txSUwbgElMFtt912WURsUwKAYfDggw/GrbfeGn/zN38TDz744JP+Z++5556YmJiITZs2xcaNGyMlPwQPwFC4etu2bf/6O9/5zo+kYK0ZsFhzu3fv3jI/P+9wOwCld/jw4fj+978fP/zhD5d85+rIkSPx4x//OH7605/G5ORkTE5ORlH4rXkASm3D+Pj4TES8SQrWmgGLNXf06NF2SukEJQAoq3vvvTcOHDgQt99+e+ScV/TPmp+fj3vvvTfuu+++2LhxY2zevDnGx70kA6Cccs6XNhqNV+3bt+9/VYO15OfXWVOdTueSiPivvhYBKOEL9n84zP53f/d3i/7vHXfccfHd73538S/GUnLwHYCyPyd+/7777jvXQXfWkj/uY820Wq3xiNgTxisASqTX68Xtt98ef/3Xfx0HDx5cjTcFcejQoTh06FCsX78+Nm/eHBs2bPCJAKA0UkrPOvHEEz8ZEdeqwVoxYLFmarXaxyLiBUoAUAZLOcw+yH8HB98BKKOc85cuvPDCf/mnf/qnP1SDtWDAYk08dLj9aiUAWGsrOcw+KA6+A1BCx8/Pz89GxG9KwVowYLEmFhYWuhGxWQkA1ko/D7MPioPvAJTMG+r1+qv379//H6VgtfmZdFZdu91+UVEU/8XXHwCrbbmH2ZdiqUfcl/TCzcF3ANbe39Rqted/61vfekAKVpM/wmNVtVqt8aIoHG4HYFWt9mH2QXHwHYASOOvgwYOfiYivSsFqMmCxqiYnJz+Rcz5PCQBWQxkOsw/yY3PwHYC1kFL6/PT09B/edNNNP1CD1WLAYtW02+1Tc85fUgKAQSvjYfZBcfAdgDVwfK/X2x0Rr5OC1WLAYtUURbE7IjYpAcCgDMNh9kFx8B2AVfbaqamp19xyyy3/QQpWg58zZ1V0Op0XR8S3fM0B0G+rcZh9KQZ5xH1JL/IcfAdg8H6Uc37e/v3775eCQfPHcgxcq9WayDn/bnKYA4A+qsph9kFx8B2AVfCMlNJnI6IlBYNmwGLgarXaJyPiuUoA0A9VPsw+yGYOvgMwIJ+bnp7+FzfddNN/k4JBMmAxULt27XpaRHxRCQBWapQOsw+Kg+8ADMD6nPNcRLxSCgbJgMVAPXS4vaYEAMs1yofZB8XBdwD6Kef8ikaj8bp9+/b9OzUYFD87zsB0Op2XRcT/rgQAy3ghXKrD7EtRliPuS3pB6OA7ACt325EjR57353/+54elYBD8URsD0Wq1JiLiBiUAWAqH2deGg+8A9MEZ69ev/1xEfEkKBsGAxUBMTk5+Juf8bCUAWAyH2cv1uXDwHYDlyDl/ttFo/OG+ffv+Wg36zYBF3+3cufOMnPPnlQDgyTjMXl4OvgOwDL/4TZyXS0G/GbDo/xfV+Pj1EbFRCQCOxWH24eHgOwBL9LJGo/Gb+/bt+x+loJ/8PDh91W63X14Uxf+mBACPNsyH2ZdiGI+4L+nFo4PvADy523/2s5897y/+4i8OSUG/+OMz+mZubm79kSNHHG4H4BEcZq8WB98BWISnH3fccV+IiC9IQb8YsOibo0ePfi4izlECgAiH2Uflc+zgOwCPJ6X0qampqT+45ZZb/l816AcDFn2xc+fOMyLis0oA4DD76HHwHYDHMVEUxQ0R8VIp6AcDFv35Qhof35Nz9vsDACPMYXYcfAfgUf5Js9l8080333yjFKyUn/FmxWZnZ1+bc/53SgCMnlE5zL4UVT/ivqQXmg6+AxBx59jY2HO+/e1v/70UrIQ/EmNFut3u8b1e7zolAEaLw+wshoPvAETEaQsLC1eFkzOskAGLlb6B+VxE/LISAKPBYXZW8rXj4DvAyLqiXq//wf79+/2IMstmwGLZ2u32WWFFBxgJDrPTLw6+A4yk8aIo9kbEr0SEQ5ks74tIAparKIrrI+I4JQCqy2F2BsXBd4DRknN+UaPReMu+ffv+pRosh5/bZllmZmZ+I6X0PykBUMkXmA6zr4Aj7st8UergO8AouCvn/Jz9+/ffJwVL5Y+5WLKHDrfPKgFQLQ6zs5YcfAcYCaemlL4cEZ+SgqUyYLGcNzhXRcSZSgBUg8PslPFr0sF3gMr6+PT09D+76aab/h8pWAoDFkvS7XbP7vV61nKACnCYnbJz8B2gksZ7vd6eiHhxOOjOUr5wJGAper3eXESsVwJgeDnMzrBx8B2gci5pNBpv37dv3x9IwWL5WWwWrdPpvDEi/kgJgOHjMPvqccR9FV7AOvgOUAV3z8/PP+fP/uzPfioFi+GPrliUVqu1ISI6SgAMF4fZqSIH3wEqYcu6deu+EhGXS8FiGLBYlMnJyS/nnJ+hBMBwcJidUfpad/AdYDjlnD/SbDa/efPNN/+ZGjwZAxZPanZ29pyc8yeUACg/h9kZVQ6+AwylsZzz3oi4JBx050kYsHhSOeffCYfbAUrNYXb4OQffAYbOC5vN5rtuvvnmfyoFT8TPV/OEZmZm3pJS+pdKAJSPw+zl5Ih7yV7sOvgOMAz+riiKZ990001e0HBM/jiKY9q1a9dkSsnhdoCScZgdFs/Bd4ChcHKv1/tKRHxUCo7FgMUxjY2NXR0RpysBUA4Os8PKv4ccfAcorQ83Go1/tm/fvpuk4PEYsHhcnU7neRHxcSUA1p7D7NBfDr4DlFIREXsi4sKI6MnBoxmwOJY9EbFOBoC14zA7DJaD7wCl06zX6+/dv3///0cKHs3PTPMYnU7nbRHxh0oArD6H2YefI+5D/MLYwXeAMvhJzvnZ+/fv/7EUPJw/YuIRdu3aNRkRbSUAVtcvDrP/1V/9VRw6dEgQWAMOvgOUwkkppa9FxIek4OEMWDzyC2J8/Jqc81OVAFgdDrNDeb83HXwHWDMfqNfr39y/f/+3peAXPAvzD7rd7tZer/edcPsKYOAcZq8uv0JYTePj4w6+A6yilNL+Zz7zmRf80R/9kRdKRETEmAREROSc0x//8R//64g4Sw2Awbn33nvje9/7Xtxyyy3xk5/8xHH2ChofH4977rlHiIrp9XrxwAMPxMGDB2N+fj4mJiYMWQCD9dSf/vSnd9xxxx37pSDCgMVDJicn3xURn1ACoP9+cZh9//798Zd/+Zdx3333iVJhBqzqfz8fOXLkH4as8fHxGBvzkhpgQF64ZcuWb9511133S4EbWMTc3NymI0eOXKsEQH85zA7V5eA7wKo4aXx8fEdEfEAKDFjE0aNHvx4RpykB0B8Os8Pofc87+A4wGDnn905PT//eTTfd9CdqjDbPrCOu2+2e2+v1bgljJsCKOcxOhCPuOPgOMAC3nHnmmdMOuo82v7A/wh463P5vI+IZagAsn8PsPJwbWDj4DtB3p/30pz+954477rhZitFlwBphmzZtem9EfEQJgKVzmJ1jMWDx8McJB98B+uaS00477ffvvPNOh0VH9TWWBKPp2muvPTHn7HA7wBI5zA4slYPvAH2xKaX09Yh4rxSjyYA1qp/48fGvR8RTlABYHIfZgX49ljj4DrBs7242m79/8803/xcpRo9nyxHUbreniqK4KfwKKcCTcpidpXLEnaVw8B1gyb5Xq9W2fetb35qXYsSeMyUYLa1WqyiKYm8YrwCe0L333hsHDhyI22+/3VF2YGDm5+fj3nvvjfvuuy82btwYmzdvjvFxL9EBnsDzDx48eFlEzEkxWjw7jpharfb+iLhQCYDH+sVh9r/+67+Ov/u7vxMEWDW9Xi8OHjwYhw4dio0bN8amTZtiYmJCGIDHkVL66rZt2/7Nd77znTvUGB0GrBHS7XZP6vV6X1cC4LFvHB1mB8rAwXeARdk0Nja2MyLeKcXoMGCN1hu0ayPiFCUAfs5hdqDsj1EOvgMc09sbjcbv7du371tSjAbPgCOi2+02er3etyPCdVBg5DnMziA54s6gOPgO8Bh/kXPetn///qNSjMDzoATV12q1il6vtzeMV8CIc5gdGGYOvgM8xtaU0kcj4jopqs8z3giYnJz87ZzztBLAKHKYHagaB98BHuErF1100Y1/8id/8rdSVJsBq+J27Nhxcs75GiWAUXyD5zA7UGUOvgNERMTk/Px8OyLeJkW1GbAqbmJioh0OtwMjxGF2YFQf+xx8B0ZVzvmtU1NT/8Mtt9zyn9WoLs9qFdbpdJoR8afh9hUwAhxmpywccacMHHwHRk3O+S8j4nwH3atrTIJquvHGG8fuu+++fx8RT1UDqLJ77703vve978Utt9wSP/nJTxxnpxTDwT333CMEa6rX68UDDzwQBw8ejPn5+ZiYmDBkAZWWUvqllNLBO+6444/VqOhrLAmq6Uc/+tGHU0rblACqyGF2gMVx8B0YMa1t27bd+J3vfOdHUlSPAauCZmZmnpJS+qoSQBXfiDnMDrB0Dr4DI2JDURTtiHizFNVjwKqglFI7Ik5QAqgKh9kB+vuY6uA7UOH3w29qNpvfvPnmm/+TGhX73EpQLe12++KiKP4vn1ugChxmZxg54s6wcfAdqJqc8/fvu+++cw8cOOBPPivEEfcKufHGG8f+/u///t9FxKlqAMPMYXaGfQxwxJ1h4uA7UDUppZPXr19/+M477/z/qVGh11gSVMePfvSjj6WUXqAEMIwcZgdYWw6+A1WSUvrShRde+K/+9E//9IdqVIMBqyJ27969ZX5+/molgGF8w+QwO0B5OPgOVMSG+fn5TkS8UYpqMGBVxPz8/Gw43A4MEYfZAYbjsdrBd2CI/Waj0fi1ffv2/S9SDD/PPhXQ6XQuiYj/6vMJDAOH2ak6R9ypMgffgSF0oFarnfutb33rASmG/DlIguHWarXGI2JvGK+Akrv33nvjwIEDcfvttzvKDjCk5ufn495774377rsvNm7cGJs3b47xcW8pgFI7++DBg5+OiK9JMdw82wy5Wq12eUScpwRQRg6zA1STg+/AMEkpfWF6evqf33TTTT9QY3gZsIZYu90+NSK+pARQxjc2DrMDVJ+D78CQOL7X610XEa+XYngZsIZYURTXRcRmJYCycJgdYLSfAxx8B0rsdVNTU6+55ZZb/oMUw8kzypDqdDovjohv+RwCZeAwO/wjR9zh5xx8B0rob2q12vMddB9OYxIMn1arNbFu3br/kFL6JTWAtXTvvffG9773vbjlllviJz/5iePs8NCb9nvuuUcIRl6v14sHHnggDh48GPPz8zExMWHIAtbaSUeOHJm/4447/osUQ/gaS4Lhs3HjxitSSs9VAlgLDrMDsBQOvgMl8/np6el/edNNN/03KYaLAWvI7Nq162kppauUANbiDYjD7AAsl4PvQEmszznPRcQrpRguBqwhMzY2dl1E1JQAVssvDrMfOHAgjhw5IggAfXlucfAdWCs551c0Go3X7tu379+rMTw8SwyRmZmZl6aU/g8lgNXgMDssjyPusHQOvgNr4LYjR44878///M8PSzEkzxUSDIdWqzWRUrpBCWDQ7r333jhw4EDcfvvtjrIDsCrm5+fj3nvvjfvuuy82btwYmzdvjvFxb1WAgTpj/fr1V0bEl6UYDp4VhkStVvt0RDxHCWAQHGYHoAwcfAdW+TXwlY1G45/v27fvr9UoPwPWEJidnX16zvkLSgCDeKPgMDsAJXxT6eA7sBomImIuIl4hRfkZsIbD9RGxUQagXxxmB2CYnrMcfAcG6OXNZvMNN9988/8kRbl55C+5drv98qIo/jclgH5wmB0GzxF3GCwH34EBuP3IkSPPddC93MYkKK+5ubn1vV7v30fEKWoAK3HvvffG9773vbjlllviJz/5iePsMOA31/fcc48QMCC9Xi8eeOCBOHjwYMzPz8fExIQhC1ipzWNjY3HHHXf8ZylK/BpLgvI6cuTIlRHxbCWA5XCYHYAqc/Ad6LNP1+v1P9i/f/9fSVFOBqyS2rlz5xkR8VklgOW8oHeYHYBR4eA70CcTKaUbIuJlUpSTAausn5jx8RvC4XZgCRxmB8BzoYPvwIq8tF6vX7p///4/kqJ8PJqXULfbfWWv1/tflQAWw2F2KBdH3KE8HHwHluG//+xnP3vuX/zFX/hVhpJxxL1kut3u8b1e7z9GxIlqAE/kxz/+cXz3u9+N73znOw6zQ8neMDviDuXg4DuwDJvWrVs3fscdd/yfUpTsNZYE5bKwsHBlSumXlQAej8PsALB0Dr4DS/TJer3+h/v37/cj1SViwCqRdrt9VkrpSiWAx3vh7TA7AKyMg+/AIo2nlPZExPaI8GsOZfmkSFAeRVFcHxHHKQH8gsPsADC451gH34En8OJGo/Hmffv2/SspysEjdEl0Op3XR8S/VQKIcJgdhpkj7jCcHHwHHsddOefn7N+//z4pSvA4LcHae+hwe1cJ4Mc//nH8zd/8Tfzt3/6to+wAsIrm5+fj3nvvjfvuuy82btwYmzdvjvFxb5dgxJ1aFMWXIuLTUqw9j8glsLCw8MWU0plKwGhymB0AysPBd+BRr9Uvn56e/oObbrrp/1FjbRmw1li32z271+t9SgkYzRfIDrMDQGnftDr4DkREjPd6vT0R8eJw0H1tPxESrK2FhYXrU0oOt8MIcZgdAIbvudvBdxhplzSbzbfdfPPNfyjF2vGou4ZmZ2d/M+f8b5SA0eAwO4wGR9yh+hx8h5F09/z8/HP+7M/+7KdSrNFjrwRro9Vqbcg5d5SA6nOYHQCqxcF3GElbxsbGWhHxCSnWhkfZNVKr1b4UEc9UAqrJYXYAqD4H32G0pJQ+2mw2/+nNN9/8Z2qsPgPWGmi328+KiCuUgGq+kHWYHQBGi4PvMDLGcs57IuJF4aD7qjNgrYGU0lxErFcCqsNhdgDgF68JHHyHSru4Xq+/c//+/b8vxerySLrKZmdn35xz/ldKQDU4zA48miPuwMM5+A7Vk1K654EHHnjOd7/73XvVWMXHUwlWz969e2s/+9nPZpWA4ecwOwCwGA6+Q/XknJ+yfv36ayLiY2qsHo+cq+j++++/OqV0uhIwtE9UDrMDAMvi4DtUzmXNZvOf3XzzzTdLsToMWKuk0+k8LyIuVwKG8wWnw+wAQD84+A6VUeSc90bEhRHRk2PwDFir54aIWCcDDA+H2QGAQb/WcPAdhlqz0Wi8Z9++ff+DFIPn0XEVzMzMvDWl9M+VgOHgMDuwEo64A8vl4DsMpb/LOT9n//79P5ZiwI+REgzWrl27JlNKbSWg/BxmBwDWkoPvMJROTil9NSI+LMVgeTQcsLGxsa9EhMPtUFIOswMAZePgOwydD9br9X+6f//+b0sxOAasAep2u1t7vd5HlYByvjB0mB0AKDMH32FoFEVR7I2I6XDQfWDGJBjYk0364z/+438dEWepAeXx4IMPxve///349re/Hbfffrvj7EDfjY+Pxz333CME0FcLCwtx+PDhuP/++yOlFOvWrXPwHcrlqaeffvodd9xxx34pBsOANSCbNm16Z0RcoQSUw+HDh+Mv//IvY9++fXHPPfc4zg4MjAELGKSFhYW4//774/Dhw5FzjomJCUMWlMfFW7Zs+eZdd911vxQDeI0lQf/Nzc1tOnLkyE4lYO05zA4AVJGD71BKJxVF8fWI+KAU/ecRbgCOHj361Yg4TQlYGw6zAwCjwsF3KJeU0vumpqZ+75ZbbvlTNfrcVoL+6na75/Z6vVvCOAhr8gLOYXZgrR133HHx3e9+VwhgzTj4DmvuljPPPHP6j/7oj9wt6SM3sProocPtN0bEmWrA6nGYHSgTN7CAtebgO6y50+67776777jjjpul6B8DVh/VarX3pJQ+rgSsDofZgTIyYAFl4eA7rJ2U0gtPOeWUb959992H1ejTaywJ+uPaa689MaXkcDusAofZAQAWz8F3WH055xMnJiaujYj3qdEfHrX6ZN26dV+LiKcoAQN7AnCYHQBgBRx8h1X3nmaz+fs333zzf5Vi5fz8aB+02+2poihuCr+SCQN5oeUwOzBMHHEHhomD7zBw363ValPf+ta35qVYGT+BtUKtVqsoimJPGK+grx588MG49dZb48CBA46yAwAM8DXXPffcExMTE7Fp06bYuHGjO1nQX+cePHjwwxFxgxQrY8BaoVqt9t6IuEgJ6I/Dhw/H97///fjhD3/oKDsAwCo5cuRI/PjHP46f/vSnMTk5GZOTk1EUhTDQBymlr9Xr9X+zf//+O9VYPgPWCnS73ZMWFhZ2+BMKWDmH2QEA1p6D7zAQmx76S9/eJcXyeSRagYfGq19SApbHYXYAgHJy8B367h2NRuOb+/bt+5YUy+NHh5ap0+nUI+Lb4fYVLOsFkcPsQFU54g5UlYPvsGJ/kXPetn///qNSLJ2fwFqGVqtVRMTeMF7BkjjMDgAw3K/lHHyHFdmaUvpoRFwnxdIZsJahVqt9MCIuUAIWx2F2AIDq+MXB93vvvTcmJydj06ZNDr7D4n1l27Zt//o73/nOHVIsjQFribrd7km9Xu+rSsCTc5gdAKC6FhYW4qc//Wn8/d//vYPvsHiTRVG0I+LtUiyNR5clyjm3I+IUJeCY3yMOswMAjBAH32FpUkpvm5qa+r1bbrnlP6uxhG4SLF6n02lGxJ9GhJ+Phcd54eIwO4Aj7gARDr7Dk8k5/2VEnO+g++L5CaxFeuhw+54wXsEjOMwOAMDjvUZ08B2OLaX0vJTS5RHRUWNxDFiLNDk5+eGc87QS8HMOswMA8GQcfIdjyzl/+aKLLvqXf/Inf/K3ajw5A9YizMzMPCXn7HA7hMPsAAAsnYPv8Lgmjx49OhsRb5HiyXnEWISU0q6IOFEJRpXD7AAA9IOD7/AYb242m//05ptv/k9SPDG/hPwk2u32xUVR/F9aMaovMBxmB1gaR9wBlsbBd0Zdzvn7991337kHDhx4UI1jG5Pg2G688caxv//7v/+fI+I0NRglDz74YHz/+9+Pb3/723H77bc7zg6wBOPj43HPPfcIAbBICwsLcfjw4bj//vsjpRTr1q1z8J2RklI6ef369YfuvPPO/1uNYzNgPYELLrjg4xHxbiUYFYcPH46//Mu/jH379sU999zjODvAMhiwAJZnYWEh7r///jh06FDknGNiYsKQxchIKb3wjDPO+Bf//b//95+qcYzXWBI8vt27d2+Zn59vKcEocJgdAICycPCdEbVhfn5+JiIuleLxeRQ4hqNHj3ZSSicoQVU5zA4AQJk5+M4IemOj0fi1ffv2/S9SPJafx3wcnU7nkoj4r/pQ1RcCDrMDDI4j7gCD4+A7I+BArVY791vf+tYDUjySn8B6lFarNR4Re8J4RcU8+OCDceutt8aBAwccZQcAYGhf095zzz0xMTERmzZtio0bN7qTRdWcfejQoU9FxNeleCQD1qNMTk5+POf8AiWoisOHD8f3v//9+OEPf+goOwAAlXDkyJH48Y9/HPfee29MTk7Gpk2boigKYaiKL05PT/+Lm2666QdS/CMD1sO02+1Tc85fVoIqcJgdAICqc/Cdijq+1+t1I+I3pPhHvrMfpiiKbkRsVoJh5TA7AACjyMF3Kuj19Xr91fv37/+PUvycXxZ+SLvdflFRFP9FE4b1CdthdoBycMQdoBwcfKcC/qZWqz3fQfef8xNY8fPD7UVR7A3jFUPGYXYAADj2a2UH3xlyZx0+fPizEXGNFAasiIio1WqfjIhzlWBYOMwOAACL4+A7wyzn/Llms/mHN998862j3mLkB6xdu3Y9LSK+5NuCYeAwOwAALI+D7wyp43POeyPiVaMeYuS/W8fGxroRUfM9QVn94jD7X/3VX8VPfvITQQAAYAUcfGcIvbLZbP76zTff/P8d5Qgj/QvAMzMzL00p/R++FyjrE6vD7ADDxxF3gOHj4DtD4LYjR44878///M8Pj2qAkf0JrFarNZFSusH3AGXjMDsAAKz+a3AH3ym5M9atW/fZiLh6VAOM7IC1cePGT0XEc3wPUBYOswMAwNpy8J0ySyldOT09/c9vuumm/zaKH/9IDlizs7NPzzl/wZc/ZeAwOwAAlIuD75TU+l6vd0NEvGIUP/iR/A7MOe8Oh9tZ269Bh9kBAKDkHHynhF4+PT39GzfddNO/HbUPfOR+qbfT6bwsIv53X/Os1ROgw+wA1eaIO0C1OfhOCdx+5MiR547aQfeR+gmsVqs1EREOt7PqHGYHAIDqvLZ38J019vSJiYnPR8RVo/RBj9SANTk5eWXO+dm+1lkthw4digMHDjjMDgAAFePgO2vsM/V6/Q/379//V6PyAY/MgLVz584zcs5X+hpnNTjMDgAAo8HBd9bIRErphoh42ah8wCPzXbVu3bq5nPNGX+MMisPsAAAwuhx8Zw28tNFovHHfvn3/ZhQ+2JH4Rd1Op/OKiPhPvrYZ1BOVw+wA/IIj7gD8goPvrIL//rOf/ey5f/EXf1H5N6NjVf8A5+bm1i8sLPz7iDjZ1zX99OCDD8b3v//9+Pa3vx2333674+wARETE+Ph43HPPPUIAEAsLC3H48OG4//77I6UU69atc/Cdfts0MTExdscdd/yflX+NVfUP8MEHH/x8SukcX9P0i8PsAADAUjj4ziDlnK+Ympr6/VtuueX/rfLHWekBq91un5VScridvnCYHQAAWAkH3xmQiaIofjcitkdEZd+sVvo7pSiK3RFxnK9llsthdgAAoN8cfGcAXtxsNt908803/+uqfoCV/eXbmZmZ16WU/mdfwyz3CcVhdgCWwxF3AJbDwXf64K6c83P2799/XxU/uEr+BFa32z2+1+td52uXpXrwwQfj1ltvjQMHDjjKDgAArOp7kXvuuScmJiZi06ZNsXHjRgffWapTI+KqiPhMFT+4Sg5YvV7vCxFxpq9dFsthdgAAoAwcfGclUkqfmJqa+oNbbrnlz6v2sVVuwOp2u2f3er1P+7JlMRxmBwAAysjBd5ZpvCiKvRHx4qjYQffxCn6TX59ScridY3KYHQAAGBYOvrMMlzSbzbfefPPN/7xKH1SlfqG20+m8ISL+R1+rHOuB32F2AAbNEXcABs3Bdxbh7pzzs6t00L0yP4HVarU2RMSsr1EezWF2AACgau9xHHznSWxJKbUi4oqqfECVGbAmJyevyjk/09cov+AwOwAAUGUOvvMkPjY9Pf1Pb7rppv+nCh9MJQasdrv9rJzzJ31tEuEwOwAAMFocfOcYxnq93t6IeFFU4KB7Jb6ii6K4PiLW+9ocXQ6zAwAAo87Bdx7HxY1G4x379u37/7N354FRlffi/z/PObOdmQFEbSsoVPS297b2FjUuDQyYbnS1pb2VlkAWRW0ViZIFaKt1FCtLZtCCVrvY+ysC17pUe7+2vVt7gUzADQtWBEMIQ2nCZCWQSQKTyXl+f4i9VlG2LDNz3q//aklm5n3OLOeTc55Zne0PJOsvkq2urp6hlPoV+6RzX6BZmB0AkElYxB0AkElY8B1KqZa+vr5/3Lp1a2c2P46sPgMrHA77lVLL2R2dh4XZAQAAAODEjp1Y8N3ZtNbvd7lcd4tIWTY/jqweYAWDwbCIfJDd0TlYmB0AAAAATh4LvjvezZdddtm/vvTSS3/K1geQtQOsSCTyURG5jX3QGViYHQAAAABOHwu+O5YpIj8RkU+IiJ2NDyCb99JVIuJmH8xdLMwOAAAAAIODBd8d6fLLLrus9KWXXvpFNt75rLzwNRKJzBSRdex7uftCysLsAIBsxSLuAIBsxYLvjtBuGMY/vvDCC+3Zdsez7gysZcuWjRCRava53MPC7AAAAAAwvMdkLPie887SWi8WkZuz7Y5n3QDLMIywiJzLPpc7WJgdAAAAADIHC77nNq31ty+77LL/76WXXnohm+53Vg2wVqxYcZFt2/PY3XIDC7MDAAAAQOZiwfecZYjIgyJypWTRgu5mttxRrbXatGnTYyJyIfta9npzYfaXXnpJdu7cKYcOHSIKACCnuFwuaWlpIQQAIKeO41KplHR1dUk6nRaXyyWmaRImu40999xzG5uaml7OljucNXvciBEjikSknH0sO9m2LX/5y1/k+eefl927d0tvby9RAAA5iQEWACCXvTnI6u3tFdM0xe12EyV7TR4zZswv9u/f35MVn7Gy4U6uXLlyZCqVWsq+lX1YmB0AAAAAcvNYjwXfs96ZSqkfisi3s+HOZsUAK5VK3S0iY9m3sgcLswMAAABA7mPB96x3/aWXXvqvL7/88nOZfkczfjxaXV39MaXUyyLCeYlZgIXZAQBO5/P55M9//jMhAACOZBgGC75nGaXUlvPPP//KJ554IqPPPsnoNbCOLtz+uFLqAnapjN5OLMwOAMBRrIEFAHD68SELvmedsQcOHEjs37//pUy+kxm9F40cObJURG5lX8pMLMwOAMA7McACAOANLPiePQzDmPSBD3zgF4lEImMXdM/Y8/mOLtx+L7tR5mFhdgAAAADAyRxDsuB7ZtNajzZNc6mIzMnU+5ixA6yjw6sx7EaZg4XZAQAAAACncZzPgu+Z7dorrrji5y+88MLmTLxzGTnyjEajl2itX5QMv8TRKViYHQCAE8ci7gAAnBgWfM9Ifw4Gg5euX78+nWl3LOMGREcXbn9KRMaz3wzrdmBhdgAATgFrYAEAcOLHnSz4nnE+kEqlWpuaml7ItDuWcXtGMBico5Sayz4zPFiYHQCA08MACwCAk8eC7xklNGbMmF/u378/mVGfsTLpzixZsmS0iCxhXxl6LMwOAAAAAMiEY1MWfB92Iw3DWCIipZl0pzJqgOV2u+8VkfexrwwdFmYHAAAAAGQaFnwfXlrr4ssvv/xfX3zxxQ2Zcp8yZowZiUTyROR5YeH2IcHC7AAADA4WcQcAYOCx4PuweFVrfemWLVv6MuHOZMRWD4fDhog8KAyvBtWbC7Pv3LlTOjo6CAIAAAAAyAq2bUtXV5ckk0kJBAIycuRI8Xg8hBlcHzu6Rvn9mXBnMmKANWLEiBu01leybwzeE33fvn2yc+dOSSaTBAEAAAAAZCWttSSTSUkmk+L1emXUqFHi9/sJM3juvuSSSx7/05/+1DTcd2TYB1grVqw407bte9gnBh4LswMAAAAAcvmYlwXfB90I0zSXiUjRcN+RYR9g2ba9TETOZp8YOCzMDgAAAABwChZ8H3Sz8/LyfrFly5b/Hc47MayjyRUrVlxm2/bzIsKeNQBYmB0AgOHHIu4AAAwvFnwfeFrr10Tk4uFc0H3YtmQ4HDZs235QGF6d7k7EwuwAAAAAABzFgu8DTyn1Ua11mYhEh+s+DNsAKxgMfkdErmA3OPUnJAuzAwAAAABwbCz4PrCUUnfm5+c/tnnz5sbhuP1hGWDde++9Z4nI3Wz+k8fC7AAAAAAAnPyxNAu+n7YRfX19ERGZORw3PiwDLI/HUy0iZ7HtTxwLswMAAAAAcHpY8P20fevSSy/92csvv/zHob7hIR83RqPRSVrrmAzzAvLZgoXZAQDILiziDgBA9mDB91NS19nZ+fH6+vojQ3mj5lDe2OOPP24ePHjwGREZw/Z+d28uzP7SSy/Jzp075dChQ0QBACBLuFwuaWlpIQQAAFly/J1KpaSrq0vS6bS4XC4xTZMw7+0sn8/X1dTUVDukn7GG8sb27t07Vyl1Cdv62FiYHQAAAACAoceC7yftzksuueRXf/rTn/YO1Q0O2QDr/vvv/0A6nb6LbfxOLMwOAAAAAEDmHKOz4Ptx+V0uV7WIzBiqGxyyAVY6na4WkTPYxv+HhdkBAAAAAMhMLPj+3rTW11x22WVfeOmll34/FLc3JCPESCQSEpGNwsLtIsLC7AAA5DIWcQcAIDex4Psx1Xd2dn5sKBZ0H/Ti4XDYJSIPiMOHV28uzL5z507p6OhgFwcAAAAAIIvYti1dXV2STCYlEAjIyJEjxePxOD3LP5xxxhkVInLvYN/QoA+wgsHgPBGZ6OQdnIXZAQAAAADIDSz4/g63f+ITn1j33HPPxQfzRgZ1gLV8+fJzROROJ249FmYHAAAAACD3j/1Z8F2svr6+FSLy9cG8kUEdYJmmGdVaj3LSVmNhdgAAAAAAnMXpC74rpb6Wl5f3pS1btvx20G5jsH7x8uXLpxiGsUEcsvYVC7MDAAARFnEHAACOXfB9dzAY/Nj69esPD8YvH5SK4XDYZRhGzi/czsLsAAAAAADg7Ry64PuFXV1dVSKyeDB++aAMsAKBwHwR+Xgu74gszA4AAAAAAN6L0xZ8V0p99/LLL1/74osvNgz07x7wAdby5cvPUUrdnosbgoXZAQAAAADAqXDIgu+W1vo+EfnqQP/iAR9gGYZxv4iMzKX6LMwOAAAAAAAGggMWfP/KpZde+uWXX3752YH8pQM66otGo5/WWv9PrhRnYXYAAHCyWMQdAACcjBxd8H2v1vqjW7Zs6RmoXzhgZcLhsMe27VXZfvobC7MDAAAAAIChkqMLvn9QKbVARMID9QsHbIAVDAbLReQj2bzDsDA7AAAAAAAYDjm44PuiK664Yt0LL7xQNxC/bEAGWNFodJzW+vvZWJOF2QEAAAAAQCbJkQXfvVrrlSLy+YH4ZQMywLJt+z6lVDCbKrIwOwAAAAAAyGTZvuC71vpzeXl507ds2fLM6f6u0x7fRSKRz4rIf2VLPBZmBwAAg4lF3AEAwGDJ0gXf/5JKpT76yiuvdJ/OLzmtRxsOhz0isirTS7EwOwAAAAAAyHZZuuD7eK/Xu0hE7jidX3JaA6wRI0ZUaa3/MZM3LAuzAwAAAACAXJJtC75rrRdcdtlla1566aXXT/V3nPIAa+nSpeO11t/NxDAszA4AAAAAAJwgSxZ8f/MKvmmn+gtOeYDlcrl+JCKBTKrBwuwAAAAAAMCJsmDB989edtll//LSSy89dSo/fEojuUgk8jkR+Y9MKcDC7AAAIFOwiDsAAMgEGbrg+77e3t6Pbt++/aTXeTJP9gdWrlzp7e/v/3cROWs4H/GbC7O/9NJLsnPnTjl06BB7JwAAGHYul0taWloIAQAAhpXWWlKplHR1dUk6nRaXyyWmaQ733Rrl8XiMpqamP5z0Z6yT/YG+vr5FIvLh4XqkLMwOAAAAAABwYjJtwXetdfmll166+uWXX95xMj93UgOspUuXjheRBcPxAFmYHQAAAAAA4NRlyILvHsMwVonIZ07mh05qgOVyuR7QWg/pmI6F2QEAAAAAAAZOBiz4/unLL798xosvvvj4if7ACY/ZotHoV7TWvxmqR8LC7AAAIBuxiDsAAMg2w7Tge8I0zX98/vnnT2hR8xO6VytWrLBs275vsO/5mwuz79y5Uzo6OtiDAAAAAAAABplt29LV1SXJZFICgYCMHDlSPB7PYN/sOf39/bfLCS5VdUIDrP7+/u8qpS4YzFAszA4AAAAAADB8hmHB9/mXXnrpmpdffvmV4/3D4w6wli9ffqFSqmow7iULswMAAAAAAGSeIVrw3WWa5gMicpWIvOf6UccdYBmG8SMR8Q3kvWNhdgAAAAAAgMw32Au+a62n5OXlzdyyZcu69/p37zk6q66u/ppS6tcDdadYmB0AAOQ6FnEHAAC5bJAWfE9orf9py5YtB9/tH7zrLR1duD16uveAhdkBAAAAAABywyAt+H6OUupOESl/t3/geo87dLuITDidB8TC7AAAAAAAALlnEBZ8n3fFFVf88oUXXth2rP/zmAOsFStW/INt2xWncmsszA4AAAAAAOAcA7Tgu8u27QdEZKocY0H3Yw6wbNteKSLek7kVFmYHAAAAAABwrgFY8D102WWXzX7ppZceffv/8Y5xWDQavUZr/fiJ/mYWZgcAAPg/LOIOAADwhlNc8L05nU7/09atWzvf+h//7qfD4bBfa119vN/EwuwAAAAAAAB4L6e44PsH3G73XSJy61v/498NsEaMGPEDrfUH3+uGWZgdAAAAAAAAJ+pkF3zXWs+9/PLL//XFF1/c+uZ/+9sAKxqNflhrfduxfpCF2QEAAAAAAHC6TnDBd1Nr/aCIhOTogu5/G2BprR+Sty3czsLsAAAAAAAAGGgnsOD7pMsvv7z0xRdf/FeRo4u4V1dXf0sp9W9v/gsWZgcAADg1LOIOAABw8t5lwfd2wzD+8YUXXmh3LVu2bIRSKsLC7AAAAAAAABgO77Lg+1n9/f13i8hcl9Z68d69e89lYXYAAAAAAAAMp2Ms+H5TXl7eatfWrVsn7tu3T2zbphIAAAAAAAAywpEjR6S9vb1/xIgRlxqPPfbYJydMmDDtrLPOaiUNAAAAAAAAhptSSizL2nb22WePq6+vf+jvvqewsLBwcXNz86Kenh4XqQAAAE4ei7gDAACcHq/X2+b3+wt37dr132/+t7/7fsJ169bdcf75539g/PjxvzdNk68fBAAAAAAAwJAwTbNv5MiRdzU2Nr7vrcMrERH1bj80a9asy7u6uh5rbW29gIQAAAAnhjOwAAAATo5SSvx+/wa32/2V+vr6Q8f8N8f7JUVFRRWJROKHyWTSS1IAAID3xgALAADgxHm93maXy/W1vXv3bn6vf2cc7xc9+uij0QkTJpw5bty4p10uF5cVAgAAAAAA4LS43e5UMBj8bmNj4znHG16JnMAZWG91ww03XNzc3PxUW1vbBVozywIAAHg7zsACAAB4d4ZhaL/f/4yIFMbj8cMn+nPqVG6suLi4pLm5+cFDhw4FSA8AAPB/GGABAAAcm2VZDV6v9+r6+vrXTvZnjVO5wdWrV//yyJEjZ0yYMOGnHo/HZhMAAAAAAADgWNxud8+IESNu3Ldv34WnMrwSOcUzsN6qqKhoQnd399OJRGIilxUCAACn4wwsAACAN5imqS3LeiYej88QkfTp/C41UHeqpKRkZktLy8OdnZ0j2UQAAMCpGGABAACnU0qJz+d71e/3f+X111/fMxC/0xyoO7dt27ZXZ8+evdy27ZFHjhy5Ip1OG2wyAADgNC6XS1paWggBAAAcyev1dvr9/ll79+4ta29v7xyo36sG484WFRW9//Dhw483NTVdZdsskQUAAJyDM7AAAIATmabZb1nWI/F4/CYRGfBhkBrMO19SUjKtvb19TXt7+/vYlAAAwAkYYAEAACc5erngtmAw+IUdO3bsH7TbGYoHU1hYuLi5uXlRT0+Pi00LAAByGQMsAADgFF6vt8Pr9RY3NDT8drBva0jWqVq3bt0d559//gfOO++8DYbB0lgAAAAAAADZyjTNvpEjR97d2Nh41lAMr0SG6Ayst5o1a9blXV1dj7W2tl7AJgcAALmGM7AAAECuUkqJ3+/fMHr06Olbt27tHNLbHq4HXVRUVJFIJH6YTCa97AIAACBXMMACAAC5yOv1Nrtcrq/v3bt303Dc/rBdz/foo49GJ0yYcOa4ceOedrlcml0BAAAAAAAgs7jd7lQwGPxeY2PjOcM1vBIZxjOw3uqGG264uLm5+am2trYLtGaWBQAAshdnYAEAgFxgGIYOBALPHjly5FtNTU09w31/VCbFKS4uLmlubn7w0KFDAXYVAACQjRhgAQCAbGdZVsOIESO+8tprr23PlPuUUV8JuHr16l8eOXLkjAkTJvzU4/HY7DIAAAAAAABDw+1294wYMeLGffv2XZhJwyuRDDsD661KSkou7OrqeiqRSEzkskIAAJAtOAMLAABkG9M0tWVZz5x11lnf3LJlS18m3keV6RFLSkpmtrS0PNzZ2TmSXQoAAGQ6BlgAACBbKKXE5/PtcLvd0xsaGuoy+b6amR5z27Ztr86ePXu5bdtjDh8+fEk6nVbsYgAAIFO5XC5paWkhBAAAyGher7fT7/fP3rt37y0HDhxoz/T7m1XDoKKiovcfPnz48aampqtsmyWyAABA5uEMLAAAkMlM0+y3LOuReDx+k4hkzXAlK89mKikpmdbW1ra2o6PjbHY9AACQSRhgAQCATHT0csFtwWDwCzt27Nifdfc/m+MXFhYuTiQSi3p7e13sigAAIBMwwAIAAJnG6/V2eL3e4oaGht9m62MwsnkDrFu37o4JEyZ84LzzzttgGAZ7JAAAAAAAwFGmafaNHDlyWWNj41nZPLwSyfIzsN6qqKjoyoMHD65rbW29gF0UAAAMF87AAgAAw00pJX6/f8Po0aOnb926tTMnHlOubaTZs2dXNjc335NMJr3ssgAAYKgxwAIAAMPJ6/U2u1yur+/du3dTLj2unLvubs2aNZEJEyacOW7cuKddLpdm1wUAAAAAALnO7XanAoHA9xsbG8/JteGVSA6egfVWN9xww8XNzc1PtbW1XaA1sywAADD4OAMLAAAMJcMwtGVZ/9HT0zOjtbU1mauPUzlhYxYXF8/bv3//smQyabFrAwCAwcQACwAADBXLshqCweBXd+zY8WquP1ZHfHXf6tWrV/X19Y2cMGHCTz0ej80uDgAAAAAAspXb7e4ZMWLEt/ft23ehE4ZXIg45A+utSkpKLuxGwJcdAACAAElEQVTq6noqkUhM5LJCAAAw0DgDCwAADBbDMLTf738mEAh8a/v27SknPXbl1I1eXFxc2Nra+nBnZ+cIngIAAGCgMMACAAADTSklPp9vVyAQ+PLOnTvrnNjAdOrG37Zt259nz569zLbtMT09PZf09/crnhIAAOB0uVwuaWlpIQQAABgQXq/3oGVZRXv37r2pra2t3akdGNqISFFR0fsPHz78eFNT01W2zRJZAADg1HEGFgAAGAimafZblvVIPB6/SUQcP6xggPUW11577edaWlrWdHR0nE0NAABwKhhgAQCA03H0csFtwWDwCzt27NhPkaNdSPBOhYWFixOJxKLe3l4XNQAAwMlggAUAAE6V1+vt8Pv9Jbt27XqWGn+PAda7KC4uPqu3t/cpLisEAAAngwEWAAA4WaZp9lmW9UA8Hi+nxrExwDqO4uLiT3Z2dq5ubW09jxoAAOB4GGABAIATpZQSv9+/YfTo0dO3bt3aSZH3aEWCEzN79uzK5ubme5LJpJcaAADg3TDAAgAAJ8Lr9Tb7fL5/2b17dy01js8gwYlZs2ZNZMKECWeOGzfuaZfLpSkCAAAAAABOltvtTo0YMeL7jY2N5zC8OnGcgXUK5syZc0lra+uTbW1tF2jNLAsAAPwfzsACAADHYhiGtizrDz09PV9rbW1NUuTkMMA6DcXFxfMSicTyrq4uHzUAAIAIAywAAPBOlmU1BIPBr+7YseNVapwaLiE8DatXr16VSqVGTJgw4acej4evKgQAAAAAAH/jdrt7Ro0a9Z19+/ZdyPDq9HAG1gApKSm5sKur66lEIjGRywoBAHAuzsACAACGYWi/3/9MIBD41vbt21MUOX0MsAZYcXFxYWtr68OdnZ0jqAEAgPMwwAIAwNksy2oIBAJf2LlzZx01Bg6XEA6w1atXr7vyyivP4LJCAAAAAACcw+PxHBwxYsQ1+/btu5Dh1cDjDKxBVFxcPL67u/tXiUTiE7bNLAsAACfgDCwAAJzFNM1+y7IeicfjN4kIB/+DhAHWECgtLf18a2vrox0dHWdTAwCA3MYACwAAZ1BKic/n2+b3+7/4+uuvN1FkkHuTYOgUFhYuTiQSi3p7e13UAAAgNzHAAgAg93m93g7Lskrr6+v/HzWGBgOsITZz5syz0+n0k01NTVdxWSEAALmHARYAALnLNM10IBD4SUNDwy3UGFoMsIZJcXHxJzs7O1e3traeRw0AAHIHAywAAHKPUkr8fv+G0aNHT9+6dWsnRYZhG5BgeM2aNWtBS0vL3clk0ksNAACyHwMsAAByi9frbQ4EAt+oq6uLUWP4GCQYXmvXrl0+YcKEM8eNG/e0y+XSFAEAAAAAYPi53e7UqFGjbm9sbDyH4dXw4wysDDJnzpxLWltbn2xra7tAa2ZZAABkI87AAgAgu715uWBPT8+XW1tbkxTJkO1CgsxTVFRU1tzcvKyrq8tHDQAAsgsDLAAAspdlWQ2BQGD6zp07eTPPMAywMlRpaanvyJEjP2tqaipMpVJc6gkAQJZggAUAQPZxu909lmVVNDQ0PEyNzMQAK8OVlJRc2NXV9VQikZjIZYUAAGQ+BlgAAGQPwzC03+9/JhAIfGv79u0pimQuBlhZori4uLC1tfXhzs7OEdQAACBzMcACACA7HL1c8As7d+6so0bm49K0LLF69ep1V1555RkTJkz4qcfjsSkCAAAAAMDJ83g8XaNHj561b9++CxleZQ/OwMpCc+bM+WBnZ+djiUTiE7bNLAsAgEzCGVgAAGQm0zT7Lct6JB6P3yQiHExnGQZYWay0tPTzra2tj3Z0dJxNDQAAMgMDLAAAMotSSnw+3zbLsr5UV1fXSJEs3Y4kyH6FhYWLE4nEot7eXhc1AAAYXgywAADIHF6vt8OyrGvr6+v/nRrZjQFWjpg5c+bZ6XT6yaampqu4rBAAgOHDAAsAgOH3lssFv02N3MAAK8cUFxd/sqOj49/a29s/QA0AAIYeAywAAIaPUkr8fv+G0aNHT9+6dWsnRXJo25IgN82aNWtBS0vL3clk0ksNAACGDgMsAACGh9frbQ4EAt+oq6uLUSP3GCTITWvXrl0+YcKEM8eNG/e0y+XSFAEAAAAA5CK3250aNWrUHY2NjecwvMpdnIHlAHPmzLmktbX1yba2tgu0ZpYFAMBg4gwsAACGxpuXC/b09Hy5tbU1SZEc394kcI6ioqKyRCKxLJlM+qgBAMDgYIAFAMDg8/v9ez0ez9fr6+tfpoYzMMBymNLSUt+RI0d+1tTUNCuVSrH9AQAYYAywAAAYPG63u9eyrPKGhoaHqeEsDDAcqqSk5MKurq6nEonERC4rBABg4DDAAgBg4BmGof1+/zOBQOBb27dvT1HEeRhgOdysWbNmt7e3//jgwYMjqAEAwOljgAUAwMCyLKvB7/d/8fXXX3+dGs5lksDZ/vznP78ye/bsZbZtj+np6bmkv7+foSYAAKfB5XJJS0sLIQAAOE0ej6c7EAh8Z+/evde2t7e3U8TZGFbgb+bMmfPBAwcO/IbLCgEAOHWcgQUAwOkxTdO2LOvn8Xj8JhGxKQIRBlg4htLS0i+2trau7ujoOIsaAACcHAZYAACcGqWU+Hy+bZZlfamurq6RIvi7/YMEeDeFhYWLE4nEot7eXhc1AAA4MQywAAA4eV6v94Db7b42Ho//hho4FgZYeE8zZ848O51OP9nU1HSVbXPmJgAAx8MACwCAE2eaZr9lWY/E4/FvUwPvhQEWTkhJScmn29vb17a3t3+AGgAAvDsGWAAAHJ9SSvx+f61lWV/duXMnC7Tj+PsMCXAyZs2ataClpWVxMpn0UAMAgHdigAUAwHvzer3Nfr9/xq5duzZSAyfKIAFOxtq1a5dPmDBh9Lhx4552uVx8VSEAAAAA4IS43e7UqFGjftDY2HgOwyucLM7AwikrKSnJO3DgwONtbW0XaM0sCwAAEc7AAgDg7Y5eLrjB7XZ/pb6+/hBFcEr7EQlwuoqKisoSicSyZDLpowYAwOkYYAEA8Hfvi391uVzfiMfjz1MDp4NLCHHaHn300ZXnnnvu6HHjxj3tdrs5FQsAAAAAHM7tdveOHDny5r/+9a/jGF5hIHAGFgZUYWHhhw4fPvxEIpGYyGWFAAAn4gwsAICTGYah/X7/M4FA4Fvbt29PUQQDhQEWBsWsWbNmt7e3//jgwYMjqAEAcBIGWAAAp7Isq8GyrC/V1dXtpAYGmkkCDIY///nPr8yePXuZbdtjenp6Lunv72dYCgBwBJfLJS0tLYQAADiGx+PpDgQC39m7d++17e3tbRTBYGCogEE3Z86cDx44cOA3XFYIAHACzsACADiFaZq2ZVk/j8fjN4mITREMJgZYGDKlpaVfbGtrW93e3n4WNQAAuYoBFgAg1ymlxOfzbTt6uWAjRTAk+x0JMNQKCwsXJxKJRb29vS5qAAByDQMsAEAu83q9B9xu97XxePw31MBQYoCFYTFz5syz0+n0k01NTVfZNmeaAgByBwMsAEAuMk2z37KsR+Lx+LepgeHAAAvDqqSk5NPt7e3r2tvb308NAEAuYIAFAMglSinx+/3PGYYxfc+ePc0UwbDtiyRAJjh6WeHC3t5eNzUAANmMARYAIFd4vd5mv98/Y9euXRupgeHGAAsZ45prrgkqpVY3NTVN7+/vZ98EAGQlBlgAgGzndrtTlmX9sKGh4W5qIFMwJEDGKSkpyTtw4MDjra2tF1ADAJBtGGABALLV0csFN7jd7q/U19cfoggyav8kATLVrFmzbmtpaVmSTCZ91AAAZAsGWACALH3/+qvL5fpGPB5/nhrIRAYJkKnWrl17/7nnnjt63LhxT7vdbk0RAAAAABhYbre7d+TIkXP/+te/jmN4hUzGGVjICoWFhR86fPjwE4lEYqLWzLIAAJmLM7AAANnAMAzt9/ufCQQC39q+fXuKIsh0DLCQVUpLS4v279//40OHDgWpAQDIRAywAACZzrKsBsuyvlRXV7eTGsgWJgmQTbZu3fpKUVHRMtu2x/T09FzCtxUCADKNy+WSlpYWQgAAMo7H4+kOBAI37d2799r29vY2iiCbcPCPrDVnzpwPHjhw4DdcVggAyCScgQUAyDSmadp+v3/dnj17rhWRNEWQjRhgIeuVlpZe09zc/LPOzs5R1AAADDcGWACAjDngV0p8Pt+2o5cLNlIEWb0/kwC5orCwcHEikVjU29vrogYAYLgwwAIAZAKv13vA7XZfF4/Hn6EGcgEDLOSUmTNnnp1Op59samq6yrZtggAAhhwDLADAcDJNs9+yrEfi8fi3qYFcwgALOam4uPgzHR0da9vb299PDQDAUGKABQAYloN7pcTv9z9nGMb0PXv2NFMEObePkwC57OhlhQt7e3vd1AAADAUGWACAoeb1epsty/pmfX39BmogVzHAQs675pprgkqp1U1NTdP7+/vZ5wEAg4oBFgBgqJim2RcIBH7Y0NBwFzWQ6ziYh2OUlJTkHThw4PHW1tYLqAEAGCwMsAAAg34g/8blghvcbvdX6uvrD1EEjtjvSQCnKSkpmd/U1HRvMpn0UQMAMNAYYAEABpPX6212u93T4/H4c9SAkxgkgNP88pe/vO/cc88dPW7cuKfdbremCAAAAIBM53a7e0eMGHFLY2PjOQyv4EQqGo2Waq1fqKysfI0ccJrrr7/+Ix0dHY8nEomPac0sCwBw+jgDCwAwkAzD0H6//5lAIPCt7du3pygCp8nPz/8HwzDy1NKlS0e5XK4XlVK/d7vdd5SVlXH9LByntLS0aP/+/T8+dOhQkBoAgNPBAAsAMFAsy2rw+Xxf3rVr1w5qwGny8vL8lmUtELELRYwrlYjI8uXLJxuGsUFEmpVS3y0vL39UKcXpKHCUgoIC19ixYx9sbGy8PpVKcXktAOCUMMACAJwut9vd7fP5bt2zZ88j1IAThUKhq0X0KhEZp5TxqZqamg1/W8S9urr6bqXUHUf/50at9byqqqpXyAanKSoqmtDd3f10IpGYyGWFAICTxQALAHCqDMOwA4HAuj179lwrImmKwGny8/P/yeUyfqS1TBMR0Vrurq2tvVPkLd9CGA6HXcFgsEZEPnH0P9kislZEyisrK9vICKcpKSmZ0dLS8tPOzs5R1AAAnCgGWACAk6WUEp/Pt83r9X65vr7+rxSB0xQUFJyRTqfvEtE3i4jr6H9+qbf38KQtW7b0ibxlgCUict99913Q39+/VURGvOU/d4jI3ePHj39gxowZ/WSF0xQWFi5OJBKLent7XdQAABwPAywAwMnwer0H3G73dfF4/BlqwIFUKBQqEtHVIvL+t/z3bhF1aSwWq/vbP3z7T0aj0eu01u+4zlYp9bKIzKuoqNhEXzhNUVHR+w8fPvx4U1PTVbZtEwQA8K4YYAEAToRpmv2WZT0Sj8e/TQ04USgUylNKr9Ja8t/5/+rrYrFN//rW/6KO9UsikchjIvLNY/xfWkTWuFyuqttuu62Z3HCa2bNnf/bAgQNrOzo63kcNAMCxMMACALyXNy8XdLlcn9uzZw/H1XCcK6644iyPx/MDEX2LiBzrC9R+HYvV/ss7njvH+mX33XffGbZtb9Naj3+X2+vWWke6u7vvDYfDKfLDaY5eVriwt7fXTQ0AwFsxwAIAvBuv19tsWdY36+vrN1ADTlNQUOBKp9NzReQuEf1ua003plJ9E1944YX2t/8f6t1+cSQSmSoifxQR8z1uv84wjFvLy8v/g00Bp7nxxhtHdXV1Pbpv374v9/f3K4oAAEQYYAEA3sk0zb5AIPDDhoaGu6gBJwqFQgUislJE//N7/DNbKXtaTc3mPxzr/3zPg+7q6upqpVTlCdyXZ03TnDd//vw4mwVOM2vWrMu7uroea21tvYAaAAAGWACAvx1wKyV+v3+D2+3+Sn19/SGKwGny8/PPNU21REQVncAzZnksFlv4rv/ve/3oT37yE3dXV1etiFx+AverV2u9vLu7e2k4HD7MZoLTlJSUzG9qaro3mUz6qAEAzsUACwAg8sblgm63e3o8Hn+OGnCaiy66yDN69OibRPQ9IhI83r/XWv7U2dn5ie3bt7/rMlXHvezpvvvu+4ht2y9prf0neD/3KaVur6ioWM0mg9PceOON/s7OzjX79++fnk6nuawQAByIARYAOJvb7e71+XxVe/bseZAacKJQKHS1iL5fRE70KqXDtq0v37Rp06vv9Y9O6AA7EoncLCIn++T7g4iUVVZWvsbmg9MUFxd/vKur67Hm5uaPaK0JAgAOwgALAJzJMAzt9/ufcblcM+vr649QBE6Tn5//D6Zp3i+iv3QyP6e13FRbW/vw8f6dOrFfplU0Gv2NiFx9kve/Tyn1kNvtvqOsrIzrfeE4JSUlxc3NzQ8ePHgwSA0AcAYGWADgPJZlNXi93qvr6+s5gQOOk5eX57csa4GIXiQi3pP88d/HYrVfEpHjnvlhnMhvU0ppj8czR0QSJ3lH3FrrslQqtTMajRZrrbmkCo7yy1/+cvXhw4dHT5gw4acej8emCAAAAJA73G5394gRI27Yt2/fhQyv4EShUOhqy/LtENF3yskPr1r6+tLXygkMr0RO8AysN0Uikc+JyO9P9ufeYqNSqqyiomIbmxlOU1RUNKG7u/vpRCIxkcsKASB3cQYWAOQ+0zS1ZVnPxOPxGSKSpgicJhQKTRTRq0Rkyin+Cq2UvrqmZtNvT/QHTnoQFY1GV2mtbzmNx2mLyFoRKa+srGxjs8NpiouLv9na2vrTzs7OkdQAgNzDAAsAcpdSSnw+3zaPx3P17t2791EEThMKhUaLSFhEzxUR8zSeTStjsditJ/MTxsneRFdXV5WIvHIaj9cQkSIReT0Sidz6+OOPm+wCcJLVq1f/6ne/+90ZH/rQh5ZZltVPEQAAACDzeb3eTr/f//V9+/ZdzPAKDmSEQqFiEb1TRJfJaQ2v5LX+/v5FJ/tDp3Qp4IoVKy6ybfslEfENQIQ/2bY9b8GCBbXsD3CaoqKi9x8+fPjxpqamq2ybJbIAIBdwBhYA5BbTNPsty3okHo9/mxpwosmTJ1+mlKwSkU8MwK87IqKujMViJ7201Ckvqh6JRCpEJDJAPbSIrLFte8GCBQsS7B5wmtmzZ3/2wIEDazs6Ot5HDQDIbgywACA3vHm5oMvl+tyePXuaKQKnKSgoOCedTt0loq6XU7iC71i0lvm1tbX3n9Jz8tRvVKtoNPpbEfnCAPbp1lpHuru77w2Hwyl2FzhNYWHh4ubm5kU9PT0uagBAdmKABQDZz+v1NluW9c36+voN1IDT5OXluS3LullE7hLRowbwV/93LFb7OTnBbx18u1OeoCmldH9///Ui0j6ADyaglLozGAz+ecWKFZ9nt4HTrFu37o7zzz//A+PHj/+9aZp8VSEAAAAwhEzT7Bs5cuRdjY2N5zC8ghNNnjz5k5ble1lE3z/Aw6s2pYwSOcXhlchpnIH1pkgkMl1Enh6kds+apjlv/vz5cXYjOM2sWbMu7+rqeqy1tfUCagBA9uAMLADIPkop8fv9G9xu91fq6+sPUQROU1Bw5XnptHmviCoapGfZjFgs9sRp/YaBuBuRSORnInL9IHXs1Vov7+7uXhoOhw+zW8FpioqKKhKJxA+TyaSXGgCQ+RhgAUB28Xq9zW63e3o8Hn+OGnCa/Px8yzTNMhF9u4gEB+lmfhKL1X7ndH/JAC3CpW8TkdcH6YFaRy8rrItGo8XsXnCaRx99NDphwoQzx40b97TL5eKyQgAAAGAAuN3uI2eccUZ5Y2PjOQyv4EShUOhq0zS2i+ilMkjDK6Wk3uVyVw7I7xqoOxWJRPJEZJOIeAa58R9EpKyysvI1djc4zQ033HBxe3v744lE4kNaM8sCgEzEGVgAkNkMw9B+v/8ZESmMx+Nc5QPHmTp16oe07r9fa/niIN9UWil7ck3N5hcG4pepgbxn0Wj0+1rre4agd59S6iG3231HWVkZ1yfDcYqLi0taWloeOHjwYJAaAJBZGGABQOayLKvB6/VeXV9fzwkRcJxp06YFenp6qkT0IhEZgiVq1HdjsdjSgfptxkDeta6uriUisn4Iuru11mWpVGpnNBot1lordkU4yerVq395+PDh0RMmTPipx+OxKQIAAAC8O4/H0zNixIgb9u3bdyHDKziQCoVC1/T0dO8Q0XfKkAyvpGbMmDHVA/ogBvoeLlu27DzTNF8RkdFDuDFeMAxjXnl5+Qvsl3CaoqKiCd3d3U8nEomJXFYIAMOPM7AAIHOYpqkty3omHo/PEJE0ReA0U6fmX2LbxkoRCQ3hzXbatr5406ZNewfylw7KmUuRSOQbIvLEEG8XW0TWikh5ZWVlG7spnKa0tPRbzc3NP+ns7BxJDQAYPgywAGD4KaXE5/Nt83g8V+/evXsfReA0oVBotIiERfRcETGH9vmnZ9bUbHpswH/vYN3hSCSyRkRmDcN26hCRu8ePH//AjBkz+tlt4SThcNioq6uLJBKJst7eXpMiADD0GGABwPDyer2dXq93TkNDw6+pAQcyQqHQbBEdEZH3DfWNKyW/rKmpLR2U3z1Yd3rp0qWjXC7XVhE5f5g22p9s2563YMGCWvZfOE1RUdH7Dx8+/HhTU9NVts0SWQAwlBhgAcDwME2z37KsR+Lx+HdEhLU14DiTJk263DCMB0T0FcN0F/b09aUvfv755wfly/YGdfHz5cuXTzYMY4MM8elqb6FFZI1t2wsWLFiQYHeG05SUlExrb29f097e/j5qAMDQYIAFAEPrzcsFR44c+fnt27dz3AfHmTJlyhit+5eJqNkyyHOe95C2bT1106ZNmwftuT7YjyASiSwWkduHeXt2a60j3d3d94bD4RS7N5ymsLBwcXNz86Kenh4XNQBgcDHAAoCh4/V62/x+f+GuXbv+mxpwmry8PLdlWTeL6LtFZJjXQtbhWGzTXYN5C8ZgP4RkMnmXiDw3zNs1oJS6MxgM/nnFihWfZzeH06xbt+6O888//wPjx4//H9NkaSwAAABkN9M0+0aOHHl3Y2Pj+xhewYmmTp30Kcvy/UlE3y/DPLxSSl7s7T1y76DfzlA8mPvuu++C/v7+rSIyIkO29bOmac6bP39+nN0eTjNr1qzLu7q6Hmttbb2AGgAw8DgDCwAG80BZid/v33D22Wd/dcuWLQcpAqeZOnXqONtO/1BEFWXIXUoahnnpxo0bdw3683+oHlE0Gr1Oa/1IBm33Xq318u7u7qXhcPgwTwM4TVFRUUUikfhhMpn0UgMABg4DLAAYHF6vt9nlcn1t7969m6kBp8nPz7dM01wooheKiC9z7pkqicViq4fklobyYUUikcdE5JsZth/8VSn1/YqKitU8JeA0N954o7+zs3PN/v37p6fTaUURADh9DLAAYGC53e6U1+u9Mx6PL6UGnCgUCl2ttV6plJyfSfdLa3mqtrb2G0N1e0N6wHrfffedYdv2Nq31+AzcJ/5oGEZZeXn5dp4ecJobbrjh4ubm5qfa2tou0JpvHAaA08EACwAGhmEY2u/3PyMihfF4nKtm4DihUOjDIvpHIpKBa3mrv/b390/cvHlzx5Dd4lA/xEgkMlVE/leGYAH5U9CnlHrI7XbfUVZWdoinC5ymuLi4pLm5+cFDhw4FqAEAp4YBFgCcPsuyGkaMGPGV1157jRMM4DjTpk0L9PT0VIno74qIJwPvoq21fKa2tvZ/h/JGh3yIVFlZuVFrvSJD9xO31roslUrtjEajxVprLqmCo6xevfqXR44cOWPChAk/9Xg8NkUAAAAwpAdkbnfPiBEjbty3b9+FDK/gQCoUChX39HTXi+g7JTOHV6KULBvq4ZXIMJyBJSKycuVKbyqV2iwil2T4zvOiYRi3lJeXv8DzCE5z3XXXXdDZ2fnrRCIxkcsKAeDEcQYWAJw80zS1ZVnPxOPxGSKSpgicZsqUKZdqba8UkcmZfU/1ywcOHMzfvn17aqhvedjOMLrvvvs+Ytv2S1prf4bvR7aIrPV4PBVlZWWtPK3gNCUlJTNbWloe7uzsHEkNADg+BlgAcBIHpEqJz+d71e/3f+X111/fQxE4TX5+/pmmad4poueKiJnhd7dba8mrra19fVheL4bzkUej0bla6weyZL/qEJG7x48f/8CMGTP6eZrBScLhsLF79+6VjY2N3+nt7TUpAgDvjgEWAJwYr9fb6fV65zQ0NPyaGnAgIxQKzRbRURE5OxvusFL6xpqaTT8bttsfzgevtVbRaPQ3InJ1Fu1kf7Jte96CBQtqeb7BaYqKit5/+PDhx5uamq6ybZbIAoBjYYAFAO/NNM1+y7IeicfjN8kbV7wAjjJ16qSptq1WicjHs+U+ay2/qa2tnT6c92HYFylfuXLl+1Kp1Csick4W7W9aRJ5USlVUVFTs4+kHpykpKZnW3t6+pr29/X3UAIC/xwALAN7l4PONywW3BYPBL+zYsWM/ReA0kydPHquUXiqiZksGzGNOQnNfX3ri888/3zysryGZUCISiXxORH6fZRtQRKRbax3xer1LysrKjvB0hNMUFhYubm5uXtTT0+OiBgC8gQEWALyT1+vt8Hq9xQ0NDb+lBpwmLy/PbVnWzSJ6sYiMyLK7r7WWL9fW1v5uuO9IxgyMotHoKq31LVm6P9aJyG2VlZW/56kJp5kzZ86Zhw4d+jWXFQLAGxhgAcD/MU2zLxAILGloaLiTGnCiKVPyP621sVJEPpqdj0CtiMViFRlxTzIlSTgc9gWDwRdE5J+zeN98VmtdVlVVxbdnwHGKi4uv6Ozs/LfW1tYLqAHAyRhgAcAblwv6/f4No0ePnr5169ZOisBpJk2adKFhqCUick0WP4ztLpf7svXr1x/OiNeVTCpTXV39MaXUiyLiy+IN3Ku1Xm6a5rLy8vJenrZwmtmzZ1c2Nzffk0wmvdQA4EQMsAA4ndfrbXa5XF/fu3fvJmrAafLy8vyWZS0Q0Qslu2cbR5QyrqipqXklU+6QkUl1qqqqXhWR27N8f7WUUnfatl0XjUaLefrCadasWROZMGHCmePGjXva5XJpigAAADiD2+1OBYPB7zU2Np7D8ApOFAqFrrYs32si+k7J7uGVKKWrMml4JZKBi6ZrrVU0Gv2tiHwhR/bhPxqGUVZeXr6dpzOc5oYbbri4ubn5qba2tgu0ZpYFwBk4AwuA0xiGoQOBwLNHjhz5VlNTUw9F4DSTJ0/+R6XUj0T053LjEan/jMViXxCRjDqIy8hv/Vu2bNlY0zRfEZGzcmR/7lNKPeR2u+8oKys7xNMbTnPttdd+e//+/SsOHjzopwaAXMcAC4CTWJbVEAwGv7pjx45XqQGnKSgoOCOdTi0SUfNFxJMjD6vV5XJ/fP369YlMu2MqU4tFIpHpIvJ0ju3f+5VSi8rLyx9VSnE6Cpz24u4aO3bsg42NjdenUimDIgByFQMsAE7gdrt7fD7fbXv27PkZNeBAKhQKFYno5SLygVx6YFrLV2tra/89I6NncrhoNPpzrfWcHNzZXzQM45by8vIXeN7DaUpKSi7s6up6KpFITOSyQgC5iAEWgFxmGIb2+/3PBAKBb23fvj1FETjNlClTLhWxH9Ba8nPv0ekfx2Kb5mbqvcvoAVZ1dXVAKbVFRP4xB/d7W0TWejyeirKyslZeBuA0JSUlM1taWh7u7OwcSQ0AuYQBFoBcpJQSn8+3w+12T29oaKijCJwmPz//TNM07xTRc0XEzMFn+Y7e3t7LtmzZkrHr2KlMTxiJRPJEZJPkzvWkb3dARO4aP378AzNmzOjnZQFOEg6Hjbq6uof2799//eHDh7msEEBOYIAFINd4vd5Or9d7fUNDw1PUgNMUFBS40un0dUrpe7XOmXW6367PtvXkTZs2vZjJd1JlQ8loNPp9rfU9Of68+JOIlFVWVsZ4iYDTFBUVvf/w4cOPNzU1XWXbNkEAZDUGWAByhWma/ZZlPRKPx2+SN64gARxlypQpV2ltrxSRj+fy41RKFtTU1FZn/P3MhpjhcNgIBoN/EJGCHH9+aBF5UilVUVFRsY+XCzhNSUnJtLa2trUdHR1nUwNAtmKABSD7D2aV+Hy+bcFg8As7duzYTxE4TX5+/rmmqZaIqNmSJXOTU6W1bBw7duynnnjiiYy/IixrNsSyZcvOM03zFREZ7YDnS7fWOuL1epeUlZUd4eUDTlNYWLg4kUgs6u3tdVEDQLZhgAUgm3m93g6v11vc0NDwW2rAafLy8tyWZd0soheLyAgHPOROETUxFov9JRvubFZNEiORyDdE5AkHPX/qROS2ysrK3/NSAqeZM2fOmYcOHfo1lxUCyDYMsABkI9M0+wKBwIqGhoZF1IAThUKhz4jIShH9Eac8Zq3lW7W1tb/KlvubdafCRSKRNSIyy2HPpWe11mVVVVV7eFmB01x33XWhjo6ONc3NzR+kBoBswAALQDZRSonf798wevTo6Vu3bu2kCJwmPz//H0xT3SeivuysR65/EYttmpNVr1fZlnjp0qWjXC7XVhE532HPq16l1Eqfz3fP3Llzk7zMwGlmz55d2dzcfE8ymfRSA0AmY4AFIFt4vd5ml8v19b17926iBpwmLy/Pb1nWAhG9UER8Dnv4DVrLxbW1tV3ZdKezcjGy5cuXTzYMY4OImA58nv1VKfX9ioqK1bzkwGluvPFGf2dn55r9+/dPT6fTiiIAMhEDLACZzu12p3w+31179uy5lxpwolAodLWIXiUiTrzKI621TKmtrX0u2+541h4ARiKRxSJyu4Ofc380DKOsvLx8Oy8/cJo5c+Zc0tra+mRbW9sFWmuCAMgoDLAAZCrDMLRlWf/R09Mzo7W1las64Dj5+fn/5HIZP9Japjm3grojFovdk5X3PFuTh8NhVzAYrBGRTzj4+denlHrI7XbfUVZWdoiXIzhNcXHxvEQisbyrq8tHDQCZggEWgExkWVZDMBj86o4dO16lBpymoKDgjHQ6fZeIvllEnPxN57Vjxoy96oknnujPxjuf1Zfg3HfffRf09/dvFWd8veV72a+UWlReXv6oUorTUeC0NyPX2LFjH2xsbLw+lUoZFAEw3BhgAcgkbre7x+/3l+/evfsn1IADqVAoVCSiq0Xk/Q5PcdDlSl+8fv1z8ax9BNm+Caqrq+copX7O81JERF40DOOW8vLyF0gBpykpKbmwq6vrqUQiMZHLCgEMJwZYADKBYRja7/c/EwgEvrV9+/YUReA0kydPvkwpWSXOvmrrb7SW2bW1tWuz+THkxCLIkUjkMRH5JrukiIjYIrLW4/FUlJWVtZIDTlNcXFzY2tr6cGdn5whqABgODLAADOsBnlLi8/l2BQKBL+/cubOOInCaK6644iyPx/MDEX2LiHCFxhueiMVqZ2T7g8iJjWma5neUUn9hn/zbNi1KpVKvRyKRWx9//HGTJHCS1atXr7vyyivPmDBhwk89Ho9NEQAA4BRer/dgMBi8Zt++fR9meAWnKSgocIVCoVs9Hs9uEV0mDK/etE9EfTsXHkjOfA39ihUrrrJt+4/spO+wVUTmVVZWxkgBp7nxxhvHdHZ2PtHY2DjZtpllARganIEFYKiZptlvWdYj8Xj8JnnjigzAUUKhUIGIXiUiH6PG37FF1Kdjsdj6XHgwKpe2THV1dbVSqpJ99B20iDyplKqoqKjYRw44TWlp6edbW1sf7ejoOJsaAAYbAywAQ3Yw98blgtuCweAXduzYsZ8icJr8/PxzTVMtEVFF1DjmKOCeWGzTHTnzmpdLm2blypXeVCr1nIhczI56TN1a64jX611SVlZ2hBxwmsLCwsWJRGJRb2+vixoABgsDLABDwev1dvj9/pJdu3Y9Sw04zUUXXeQZPXr0TSL6HhEJUuSYtvT2Hs7fsmVLX648IJVrW+i+++77iG3bL2mt/eyv72qXiNxaWVn5e1LAaWbOnHl2Op1+sqmp6SouKwQwGBhgARhMpmn2WZb1QDweL6cGnCgUCl0tou8XkQuo8a66RdSlsVgsp9bCU7m4paLR6Fyt9QPss8f1rNa6rKqqag8p4DTFxcWf7OzsXN3a2noeNQAMJAZYAAblwE0p8fv9G0aPHj1969atnRSB00ydOvVDWvffr7V8kRrHfcWYE4vFfpFzjyoXN5XWWkWj0d+IyNXsuMfVq5Ra6fP57pk7d26SHHCa2bNnVzU3Ny9OJpNeagAYCAywAAw0r9fbHAgEvlFXV8cXM8Fxpk2bFujp6akS0YtEhM/sx/d0LFb79Vx8YDn5jX1KKe3xeOaISIJ997gsrfXC3t7eHdFotJgccJo1a9ZUT5gw4cxx48Y97XK5NEUAAECmcLvdqREjRny/sbHxHIZXcKJQKHR1T0/3ayL6TmF4dSIaU6m+G3L1walc3nKRSORzIvL7XH+cA+yPhmGUlZeXbycFnGbOnDmXtLa2PtnW1naB1syyAJwazsACcLoMw9CWZf2hp6fna62trVwlAceZNGnSxYahVorIFGqcMFspe1pNzeY/5OoDzPnBTiQSeUBE5rIvn5Q+pdRDbrf7jrKyskPkgNMUFxfPSyQSy7u6unzUAHCyGGABOB2WZTUEg8Gv7tix41VqwGlCodBoEQmL6LkiYlLkxGkt1bW1tQty+TEaub4Rk8lkpYjwKfLkuLXWZalUamckErkxHA4bJIGTrF69etWoUaNGTZgw4V89Hg9fVQgAAAb/A7jb3TNq1Kjv7Nu370KGV3AgIxQKFYvo10V0mTC8Olmvut3uH+T6g3TEpXXV1dUfU0q9KCKcTXFqXtRaz6uqqnqeFHCakpKSC7u6up5KJBITuawQwIngDCwAJ3XUbhja7/c/EwgEvrV9+/YUReA0kyZNutww1CoRuZIap+SwYdhXbNy4Oec/fDhmbahIJFIhIhH27VNmi8haj8dTUVZW1koOOE1xcXFha2vrw52dnSOoAeC9MMACcKIsy2oIBAJf2LlzZx014DRTpkwZo3V/WERdLw64OmzwqLmxWOzHjnikTtmk4XDYCAaD/ykin2EHPy0HROSu8ePHPzBjxox+csBJwuGwUVdX91BjY+P1qVSKN1kAx8QAC8DxeDyeg36//4b6+vonqAGnycvLc1uWdbOIvltERlLktPxHLFb7RRFxxKUijvp2vmXLlo01TfMVETmL/fy0bRWReZWVlXydLxxnzpw5H+zs7HwskUh8wrZZIgvA32OABeDdmKbZb1nWI/F4/CZ54woHwFGmTp30KdtWK0XkImqctlaXy/3x9evXJ5zygJXTtnAkEpkuIk+zrw8ILSJPKqUqKioq9pEDTlNaWvr51tbWRzs6Os6mBoA3McAC8I6DLqXE5/Nt8/v9X3z99debKAKnKSi48rx02rxXRBVRY6COxdVXYrHYs456LXXilo5Goz/XWs9hnx8w3VrriNfrXVJWVnaEHHCawsLCxYlEYlFvb6+LGgAYYAF4K6/X22FZVml9ff3/owacJj8/3zJNs0xE3y4iQYoMDK1lVW1tbZnTHrcj13CxbftWEXmd3X7ABJRSd6ZSqT9Ho9EvkgNOs27dujs+8IEPjDnvvPM2GAZLYwEAABHTNNMjR458sLGx8SyGV3CiUCh0tWka20X0UmF4NZBes217oRMfuHLqFo9EInkisllE3Oz/A+5ZrXVZVVXVHlLAaYqLiz958ODBtS0tLWOoATgTZ2ABzqaUEr/fv2H06NHTt27d2kkROE0oFPqwiL5fRL5AjQF3RERdGYvFtjny9dXJWz4SidwuIot5DgyKXqXUSp/Pd8/cuXOT5IDTzJo1a0FLS8vdyWTSSw3AWRhgAc7l9XqbA4HAN+rq6viiIzjOtGnTAj09PVUiepGI8Bl4ECgl5TU1tfc59fE7+lqXZDJ5r4is52kwKCyt9cLe3t4d0Wi0mBxwmrVr1y6fMGHCmePGjXva5XJpigAAkLvcbndq1KhRtzc2Np7D8AoOpEKh0DU9Pd07RPSdwvBqsPx3TU3tjxy9ozl9D1i2bNl5pmm+IiKjeT4Mqv81DGNeeXn5dlLAaebMmXNJa2vrk21tbRdozSwLyHWcgQU46GDq6OWCPT09X25tbeWqAzjO1Kn5l9i2sUpEJlNjUB0wDHPixo0b9zn6NZf9QCQajV6jtX6cEoOuTyn1kNvtvqOsrOwQOeA0RUVFZc3Nzcu6urp81AByFwMswBksy2oIBALTd+7cyRMejhMKhUaLSFhEzxURkyKDTc2IxWJPOL4CO8IbIpHIGhGZRYkhkRCRO5PJ5M/D4bBNDjhJaWmp78iRIz9ramqalUqleA0GchADLCC3ud3uHsuyKhoaGh6mBhzICIVCs0V0RETeR46hoH4Wi8VupAMDrL9ZunTpKJfLtVVEzqfGkHlRaz2vqqrqeVLAaUpKSi7s6up6KpFITOSyQiC3MMACcvSo3TC03+9/JhAIfGv79u0pisBppkzJv0Jrc5WIvoIaQ2a31nJJbW1tFykYYP2d5cuXTzYMY4NwCuRQskVkrcfjqSgrK2slB5ympKRkVnNz80MHDx4cQQ0gNzDAAnLP0csFv7Bz5846asBppkyZMkbr/mUiajYzhCGVFlGhWCzGCR9HsfO9TSQSWSwit1NiyB0QkbvGjx//wIwZM/rJAScJh8NGXV3dQ42NjdenUimDIkB2Y4AF5A6Px9Pl9/tvqq+vX0sNOE1eXp7bsqybRfTdIjKSIkNLa/lebW3tEkr8HwZY7zyQdAWDwRoR+QQ1hsVWEZlXWVnJ1w/DcebMmfPBgwcPPrV///4822Z5OCBbMcACsp9pmrZlWT+Px+M3yRtXDACOMmVK/qe1NlaKyEepMSxqxowZ+8knnniCkzveggHWMSxfvvxCwzD+JCJc0jN8nk2n03MXLVr0F1LAaa677rovNDc3P9rR0XEWNYDswwALyOKDI6XE5/NtsyzrS3V1dY0UgdNMnTp1nG2nfyiiiqgxbK9EB23bnrhp06a9tHhbGRIcW3V19Ryl1M8pMay6tdYRr9e7pKys7Ag54DSFhYWLE4nEot7eXhc1gOzBAAvITl6v94BlWaX19fX/Tg04TX5+vmWa5kIRvVBEfBQZTqowFov9Gx2OUYYE7y4SifxKRGZQYtjtUkrdVlFR8TtSwGlmzpx5djqdfrKpqekqLisEsgMDLCC7mKbZb1nWI/F4/NvUgBOFQqGrtdYrlZLzqTHsVsditSVkODYGWO9hyZIloz0ez1at9XhqZIRntdZlVVVVe0gBp7n22ms/1drauq69vf0D1AAyGwMsIEsOhJQSv9+/YfTo0dO3bt3aSRE4zeTJk/9RKblfRD5PjYywp68vffHzzz9/iBTv8rpNgve2YsWKq2zb/qOI8M1gmaFXKbXS5/PdM3fu3CQ54DSzZs1a0NLScncymfRSA8hMDLCAzOf1epsDgcA1dXV1NdSA00ybNi3Q09NTJaK/KyIeimQEWynjUzU1NRtI8e4YyhxHeXn5BhG5jxIZw9JaL+zt7d0RjUaLyQGnWbt27fIJEyacOW7cuKddLpemCAAAJ87tdqdGjRp1R2Nj4zkMr+BAKhQKFff0dO8W0XcKw6tM2jSLGV6dQCUSHN/KlSu9qVTqORG5mBoZ53+PXlb4KingNNdee+2l7e3tT7S1tV2gNbMsIFNwBhaQgQc9Ry8X7O7uvrqtra2LInCaKVOmXKq1XiWiJ1Ej016f5MWensOTt2zZ0keN47QiwYm57777PmLb9ktaaz81Mk6fUuqhvr6+HyxatOggOeA0RUVFZYlEYlkymeQbY4AMwAALyCx+v3+vx+P5en19/cvUgNPk5+efaZrmnSJ6roiYFMk4ScMwL924ceMuUhwfA6yTEI1G52qtH6BExkqIyJ3JZPLn4XCYr2uDo5SWlvqOHDnys6amplmpVIrXdmAYMcACMoPb7e61LKu8oaHhYWrAgYxQKDRbREdF5GxyZCatpbS2tvaXlDgxHOSc1M6lVTQa/Y2IXE2NjN5OL4nILVVVVc9TA05TWFj4ocOHDz+RSCQmclkhMDwYYAHDfNRuGNrv9z8TCAS+tX379hRF4DRTp06aattqlYh8nBoZ7dexWO2/kOHEMcA6SStXrnxfKpV6RUTOoUZGs0Vkrda6sqqqqoUccJpZs2bNbm9v//HBgwdHUAMYWgywgOFjWVaDZVlfqqur20kNOM3kyZPHKqWXiqjZHOtnvMb+fvvjmzdv7iDFiWOnPgWRSORzIvJ7+mWFAyJy1/jx4x+YMWNGPzngJOFw2Kirq3to//791x8+fJhvnQWGCAMsYOh5PJ5un883r6Gh4V+pAafJy8tzW5Z1s4heLCL88TLz2YahP7tx46Y/kuLkMIA5RZFI5AERmUuJrLHVtu2yBQsW8HXJcJw5c+Z88MCBA7/hskJgaDDAAoaOaZq2ZVk/j8fjN8kbZ+ADjhIKhT4jIitF9EeokTWWxmK13yXDyWOAdYrC4bAvGAy+ICL/TI2s8mw6nZ67aNGiv5ACTlNaWvrF1tbW1R0dHWdRAxg8DLCAITiIUUp8Pt+2o5cLNlIETjNp0qQLDUMtEZFrqJFN9MsHDhzMZ32+U3ztJ8Gpq66u/phS6kUR4avrs0u31jri9XqXlJWVHSEHnKawsHBxIpFY1Nvb66IGMPAYYAGDy+v1HnC73dfG4/HfUANOk5eX57csa4GIXshxaNbp6e+38zZv3swafaeIAdZpikajlVrrakpkpV1KqdsqKip+Rwo4zcyZM89Op9NPNjU1XWXbXHEBDCQGWMDgME2z37KsR+Lx+LepAScKhUJXi+hVIvJBamQfreU7tbW1P6HEqWOAdZrC4bARDAb/U0Q+Q42s9axpmrfOnz+/gRRwmpKSkk93dHSsa2trez81gIHBAAsY4AMWpcTv99d6vd7pdXV1bRSB00yePPkflVI/EtGfo0bW+n0sVvslEWFB2tN5PyDB6Vu2bNlY0zRfERHWlcleKaXUwz6f7/tz585NkgNOM2vWrAUtLS2Lk8mkhxrA6WGABQwcr9fb7Pf7Z+zatWsjNeA0BQUFZ6TTqUUiar6I8Bkte7X09aU//vzzzzeT4vTwteoDYOHChU1a6xsokdU8Wuuy3t7endFotJgccJq1a9cuP+ecc84cN27c0y6Xi78MAQCGldvtTo0aNeoHjY2N5zC8ggOpUChUnE737RRRC4XhVTbTSunrGF4N0BODBAMnGo3+XGs9hxI54X+11mVVVVWvkgJOU1JSknfgwIHH29raLtCaWRZwsjgDCziNg5M3Lhfc4Ha7v1JfX3+IInCaUCiUp5RepbXkUyMXXtPk/pqa2vmUGKCeJBg41dXVAaXUyyLyYWrkhLRS6sd9fX0/WLRo0UFywGlmzZp1W0tLy5JkMsk33AAngQEWcMrPnb+6XK5vxOPx56kBp7niiivO8ng8PxDRtwhXSuWK7f399uWbN2/uJcXAYIA1wCKRSJ6IbBYRNzVyRkJE7kwmkz8Ph8N8XRscpbS01NfT07MukUhM7+vr4z0DOLGDcAZYwElwu929lmVVNjQ0/JgacJqCggJXOp2+Til9r9asqZxDjihlXFFTU/MKKQYOByODIBKJ3C4iiymRW7TWLxmGMa+iouI5asBpCgsLP3T48OEnEonERC4rBN4bAyzgxBiGof1+/zOBQOBb27dvT1EETjNlypSrtNarRPQ/UyPnjh5vjcU2raTDwGKANQjC4bARDAb/ICIF1Mg5tois1VpXVlVVtZADTlNUVFTU2tr64MGDB0dQAzg2BljA8VmW1WBZ1pfq6up2UgNOk5+ff65pqiUiajbH5LlHKfmvmpraz4sIf/Ud6LYkGBzRaHSc1nqbiIymRk46ICJ3jR8//oEZM2b0kwNOEg6Hjbq6uocaGxuvT6VSrNEAvA0DLODdeTyebp/PN6+hoeFfqQGnycvLc1uWdbOIXiwi/DEwN7UpZXy8pqZmPykGHgOsQRSNRq/RWj9OiZy2zbbteQsWLKghBZxmzpw5Hzxw4MBvuKwQ+HsMsIB3Mk3Ttizrl/F4/AYR4Y9/cJxQKPQZEb1KRP6JGrlLa/lqbW3tv1NicDDAGmTRaHSt1rqQEjnv2XQ6PXfRokV/IQWcprS09IttbW2r29vbWXgUEAZYwN8dbCglPp9v29HLBRspAqfJz8//B9M07xfRX6JGrr/eycM1NbU3UWIQG5NgcC1dunSUy+XaKiLnUyPnP6D12LZd7fV6l5SVlR2hCJymsLBwcSKRWNTb2+uiBpyMARbwBq/Xe8Dtdl8bj8d/Qw04TV5ent+yrAUiepGIeCmS68eCUm+a7kvWr1+fpMYgdibB4Fu+fPlkwzA2iIhJDUfYpZS6raKi4nekgNPMnDnz7HQ6/WRTU9NVtm0TBI7EAAtOZ5pmv2VZj8Tj8W9TA04UCoWuFtEPiMh4ajhCn1J2qKZm8wukGFwMsIZIdXX1PUqp71PCUZ41TfPW+fPnN5ACTlNSUvLp9vb2de3t7e+nBpyGARYce2ChlPj9/ucMw5i+Z8+eZorAafLz8//JNI2VIvJZajjptU8vrKnZtJwSQ9CaBEMjHA67gsFgjYh8ghqOklJKPezz+b4/d+5cTieF4xy9rHBhb2+vmxpwCgZYcCKv19vs9/tn7Nq1ayM14DQFBQVnpNPpu0T0zSLCUgoOorVsHDt27KeeeOIJvpxiCDDAGkLLly+/0DCMPwlfmepEjUqp71VUVKwmBZzmmmuuCSqlVjc1NU3v7+/nfQc5jwEWnMQ0zb5AIHBPQ0PD3dSAE4+nQ6FQkYiuFhHOOneeThE1MRaL8UVeQ/WEI8HQqq6unqOU+jklHOt/tdZlVVVVr5ICTlNSUpJ34MCBx1tbWy+gBnIZAyw44iDijcsFN7jd7q/U19cfogicZvLkyZcpJauEK2wc/DqoZ9bUbHqMEkPYnARDLxKJ/EpEZlDCsdJKqR/39fX9YNGiRQfJAacpKiqan0gk7k0mkz5qIBcxwIID9vH9Lpfra/F4/HlqwGmuuOKKszwezw9E9C0iYlDEqdS/xmKx6+gwxNVJMPSWLFky2uPxbNVa860UztYuIouTyeSqcDjM17XBUUpLS309PT3rEonE9L6+Pt6LkGsH9wywkJPcbnevZVmVDQ0NP6YGnKagoMCVTqfnishdInoURRytoa8vfcnzzz/P2adDjIOGYbJixYqrbNv+ozC1dzyt9UuGYcyrqKh4jhpwmsLCwg8dPnz4iUQiMVFrTRDkBAZYyDWGYWi/3/9MIBD41vbt21MUgdNMnjz5k0rJShH5GDUcL23beuqmTZs2k2LoMcAaRpFIJCIiFZSAiNgislZrXVlVVdVCDjhNaWlp0f79+3986NChIDWQ7RhgIZdYltVgWdaX6urqdlIDTpOfn3+uaaolIqqIGhARUUrurKmp5Usrhgln/wwjj8fzfRHZSgkcfS4WKaVej0Qit4bDYb5+F47y//1//9+jI0eOPGPChAk/9Xg8XFILAMP/ObV75MiRc/bt23chwys4zUUXXeQJhUK3mqaxk+EV3qL2nHPG/pAMw4czsIbZfffd95H+/v4tImJRA2+xzbbteQsWLKghBZymtLT0/EOHDj3DZYXIVpyBhWxmmqbt9/vX7dmz51oRSVMEThMKha4W0feLCN+ajLdK9vfbl2zevLmeFMOHAVYGqK6uvkUptYoSOIZn0+n03EWLFv2FFHCa0tLSa5qbm3/W2dnJQqnIKgywkJUHBUqJz+fb5vV6v1xfX/9XisBppk6d+iGt++/XWr5IDbzzNVIX1dRsWkOJYd4OJBh+WmsVjUZ/IyJXUwPH+EDZY9t2tdfrXVJWVnaEInCawsLCxYlEYlFvby+X1iIrMMBCtvF6vQfcbvd18Xj8GWrAaaZNmxbo6empEtGLRMRLERzjiOzJWCx2DR2GH2tgZcLTQSnt8XjmiEiCGng7rbVfKXVnKpV6tbq6+ksUgdOsW7fujg9+8INjzzvvvA2GwdsWAAwU0zT7g8HgTxsbG89keAUnCoVCV/f0dO8Q0XcKwysc+2j9r/39/d+mQ4ZsDRJkjhUrVnzetu3fsV1wHM+apnnr/PnzG0gBp5k9e/ZnDxw4sLajo+N91ECm4gwsZPwBgFLi9/u3GIbxpT179jRTBE4zadKkiw1DrRKREDXwHmyt5TO1tbX/S4oMef8iQWaJRCIPiMhcSuA4Ukqph30+3/fnzp2bJAec5uhlhQt7e3vd1ECmYYCFTOb1epsty/pmfX39BmrAaUKh0GgRCYvouSJiUgTvTf0wFovdTofMwbUYGSaZTFaKCJ96cTwerXVZb2/vzmg0WkwOOM26devuOOuss84cN27c06Zp8lWFAHAcpmn2jRw5MtzY2HgOwys48bg3FAoVi+jXRXSZMLzC8W05cODA3WTILJyBlYGqq6s/ppR6UUR81MAJWq+1nldVVfUqKeA0RUVFlx08ePBXra2tfN01MgJnYCGjPuy/cbngBrfb/ZX6+vpDFIHTTJo06fKjlwteSQ2coG6tJa+2tvZ1UmTYexoJMlM0Gq3UWldTAichrZT6cV9f3w8WLVp0kBxwmpKSkvlNTU33JpNJhv8YVgywkCm8Xm+z2+2eHo/Hn6MGnGbKlCljtO4Pi6jrhSuPcBKUkhtqamp/TonMw6mTGWrSpEnPeTyekIhwRgFOlCEiVxqGccO0adOOTJo06cX169dzaRUcY9u2bc999atfXaGU+mhvb+8/2bbNH2kwLFwul7S0tBACw8btdvcGAoH5f/nLX77Z2dn5V4rASfLy8twXXnjhPBH9lIiaJJy0gZOin4nFNi2kQ2biyZzBVqxYca5t29tE5Cxq4KRferV+yTCMeRUVFfzVFY5TXFz88a6urseam5s/ojVzXAwtzsDCcDEMQ/v9/mcCgcC3tm/fnqIInGbq1Emfsm21UkQuogZOQVMq1ffxF154oZ0UmYkBVoarrq7+mlLq15TAKdIiskZrXVlVVcXpAHCckpKS4kQi8eChQ4eC1MBQYYCF4WBZVoPP5/vyrl27dlADTlNQcOV56bR5r4gqogZO9bhJa/lSbW3t70mRuRhgZYFIJPKIiFxHCZyGThEJJ5PJB8PhcJoccNaH2gLX2LFjH2xsbLw+lUqxBgYGHQMsDCW3293t8/lu3bNnzyPUgNPk5+dbpmmWieg7RCRAEZw6HY3FNlXSIbPxQT4bnkpal4lIHSVwGs4QkfuDweCfI5HIZ8kBJ1m/fn163bp13x4/fvw/jBkzZptS/O0GQPYzTdMeMWLE4/v37z+D4RWcKBQKXW2axnYRvVQYXuH0vOpyeW4nQ+bjU3yWiEQieSKyWUTc1MAAeDadTs9dtGjRX0gBpykuLv5ma2vrTzs7O0dSA4OBM7AwqB/elRKfz7fN4/FcvXv37n0UgdOEQqEPi+j7ReQL1MAAOGwY9hUbN27mjTsb3gNJkD0ikcjtIrKYEhigD8A9tm1Xe73eJWVlZUcoAqcpLCxcnEgkvtvb28s38mJAMcDCYPF6vQfcbvd18Xj8GWrAaaZNmxbo6empEtGLRMRLEQzQUdEtsVjsQTpkBy4hzCLJZPJeEVlPCQwErbVfKXVnKpV6tbq6+ksUgdOsW7fujnPPPXfseeedt8EweDsEkLlM0+wPBoM/bWxsPJPhFRxIhUKh4p6e7noRfacwvMLA7Vr/GYvFfkyHLNpiJMgu0Wh0nNZ6m4iMpgYG2LOmad46f/78BlLAaWbPnv3ZAwcOrO3o6HgfNXC6OAMLA/ZB/ejlgi6X63N79uxppgicZurU/Ets21glIpOpgQHW6nK5P75+/foEKbLofZEE2ScSicwSkTWUwCBIKaUe9vl83587d26SHHCao5cVLurt7XVRA6eKARYGgtfrbbYs65v19fUbqAGnyc/PP9M0zTtF9FwR4VJ/DDQtor4ai8X+HymyCwOsLBWNRtdqrQspgUHSqJT6XkVFxWpSwGnmzJlzZjKZXNPY2Pj5/v5+3idx0hhg4XS4XK4+v9//w4aGhruoAQcyQqHQbBEdFZGzyYHBoJQ8UFNTO48SWbjtSJCdli5dOsrlcm0VkfOpgUG03jCMsvLyco7E4DizZs26vKur67HW1tYLqIGTwQALp3ZApcTv929wu91fqa+vP0QROM3UqZOm2rZaKSITqYFBfLXd0d/fn7d58+ZeWmTh1iNB9lq+fPlkwzA2CKfVYnCllVI/7uvr+8GiRYsOkgNOU1xcXL5///57k8kki8bihDDAwsnyer3Nbrd7ejwef44acJopU6aM0bp/mYiazfEpBtkR29af2LRp01ZSZCdeILJcdXX1PUqp71MCQ6BdRBYnk8lV4XDYJgec5MYbb/R3dnau2b9///R0Os17J94TAyycKLfbfSQQCHy3vr7+PmrAafLy8tyWZd0sou8WkZEUweBTlbFYLEqHLN6CJMhu4XDYFQwGa0TkE9TAENmilLqloqKCvxLDca677rqJBw4c+Lfm5uaPaK0JgmNigIXjMQxD+/3+Z1wu18z6+vojFIHTTJmS/2mtjZUi8lFqYGjoDbHYpk+JCH+Iz2IMsHLA8uXLLzQM408iMoIaGKp3ABFZo7WurKqqaiEHnKa4uLikpaXlgYMHDwapgbdjgIX3YllWg9frvbq+vv41asBpJk2adKFhqCUicg01MIQOGIY5cePGjftIkd0YYOWISCRyvYj8jBIYYp0iEk4mkw+Gw+E0OeAkBQUFrrFjxz7Y2Nh4fSqVMiiCNzHAwrG43e5un8932549e35ODThNXl6e37KsBSJ6oYj4KIKhpLV8s7a29nFKZD8GWDkkEon8SkRmUALDYKeIlFVWVv43KeA0RUVFE7q7u59OJBITuawQIgyw8PdM09SWZT0Tj8dniAh/7IHjhEKhq7XWK5Xi29Mx9LSWn9fW1t5AidzAACuHLFmyZLTb7d4mIuOogWHyrIjcUllZuZcUcJri4uJvtra2/rSzs5OFaB2OARZERJRS4vP5tnk8nqt3797NZStwnMmTJ/+jUupHIvpz1MAw2a21XFJbW9tFihx5byVBblmxYsVVtm3/UUS4nAXD9YG9x7btaq/Xu6SsrIyFaeEo4XDYqKuriyQSibLe3l6TIs7EAAter7fT5XJdt3fv3qepAaf5zGfyRh0+7P2uiJovIh6KYJikRVQoFos9T4ocOtYkQe6JRCIREamgBIZZvdb6tqqqqt+SAk5TVFT0/sOHDz/e1NR0lW3zZTdOwwDLuUzT7Lcs65F4PP5tasCJx5ahUKhIRC8XkQ+QA8O6Myr5fk1N7b2UyLHtSoLcs3LlSm8qlXpORC6mBjLA/4jIvMrKyp2kgNOUlpZ+trW1dW1HR8f7qOEcDLCceKD0xuWCLpfrc3v27GmmCJxmypQpl2qtV4noSdRABoiNGTO24IknnugnRY6935IgN0UikY+KyEsiYlEDGaBPKfVQOp2+feHChVyDDscpLCxc3NzcvKinp8dFjdzHAMtZvF5vm9/vL9y1axdfZALHyc/PP9M0zTtF9FwR4dJ5ZAB10OVKX7x+/XNxWuTg1iVB7qqurr5FKbWKEsggjUqp75WXlz+qlOLr2uAoc+bMOTOZTK5pbGz8fH9/P++/OYwBljOYptkXCATubWhoCFMDTlNQUOBKp9PXiegfisjZFEHmULNisdg6OuTo1iVB7tJaq2g0+u8i8mVqIMOsNwyjrLy8nCM8OM6sWbMu7+rqeqy1tfUCauQmBlg5/uFZKfH7/RvcbvdX6uvrD1EETjNlypSrtLZXisjHqYHMOv6VNbW1tUWUyOH3YBLktpUrV74vlUq9IiLnUAMZJq2U+nFfX98PFi1adJAccJqioqKKRCLxw2Qy6aVGbmGAlbu8Xm+z2+2eHo/Hn6MGnGby5MljldJLRdRsjiORgfaJqImxWOwAKXIXLzwOsGLFis/btv07tjcyVLuILE4mk6vC4TBf1wZHufHGG/2dnZ1r9u/fPz2dTvManSMYYOUet9ud8nq9P4jH48uoAafJy8tzW5Z1s4heLCIjKIIMZCtlfKqmpmYDKXIbH5YdIhKJPCgiN1MCGWyL1npeVVXVZlLAaW644YaL29vbH08kEh/SmuXhsh0DrNxhGIb2+/3PiEhhPB4/TBE4TSgU+oyIrBTRH6EGMpXWcndtbe2dlMh9DLAcIhwO+4LB4Asi8s/UQCa//4jIGq11ZVVVVQs54DTFxcUlLS0tDxw8eDBIjezFACs3WJbV4PV6r66vr3+NGnCaSZMmXWgYcr+IYi1dZLqXensPT9qyZUsfKXIfAywHqa6u/phS6kUR8VEDGa5TRMLJZPLBcDicJgecpKCgwDV27NgHGxsbr0+lUgZFsg8DrOzm8Xh6vF7vrXv27Pk5NeA0eXl5fsuyFojohRwzIAt0i6hLY7FYHSmcgQGWw0Sj0UqtdTUlkCV22rZ964IFC/6LFHCaoqKiCd3d3U8nEomJXFaYXRhgZSfTNLVlWc/E4/EZIsIfT+A4oVDoahG9SkQ+SA1kB31dLLbpX+ngHAywHCYcDhvBYPC/ROTT1EAWeVZEbqmsrNxLCjhNaWnpt5qbm3/S2dk5khrZgQFWln0YVkp8Pt82j8dz9e7du/dRBE6Tn5//Ty6X8SOtZRo1kEV+HYvV/gsZHPaeTQLnWbFixbm2bW8TkbOogSw6wOixbbu6u7t7aTgcZiFdOEo4HDbq6uoiiUSirLe316RIZmOAlT28Xm+n1+ud09DQ8GtqwGkKCgrOSKfTd4nom0XERRFkkcZUqm/iCy+80E4Khx0TksCZqqurv6aU4sMaslG9Ump+RUXFs6SA0xQVFb3/8OHDjzc1NV1l2zZBMhQDrMxnmma/ZVmPxOPx78gbXyACOOoYMBQKFYnoahF5PzmQZWzD0J/duHHTH0nhwBcvEjhXJBJ5RESuowSy1P+Yplk2f/78HaSA05SUlExrb29f097e/j5qZB4GWBn8wffo5YIjR478/Pbt2xMUgdOEQqE8pfQqrSWfGsjSV/LlsVhsIR0cuvVJ4FzV1dUBpdTLIvJhaiBL9SmlHkqn07cvXLiwixxwmsLCwsXNzc2Lenp6uPQjgzDAykxer7fD6/UWNzQ0/JYacJorrrjiLI/H8wMRfYuI8A23yEpay586Ozs/sX379hQ1nIkBlsNFIpE8EdksIm5qIIs1KqW+V15e/qhSiktB4Chz5sw5M5lM/qqpqekz6TRfnJYJGGBlFtM0+wKBwJKGhoY7qQGnKSgocKXT6bkicpeIHkURZLHDtq0v37Rp06ukcC4GWJBoNHqH1vpuSiDbaa03mKY5r7y8nCNHOE5xcfEVnZ2d/9ba2noBNYYXA6wM+ZCrlPj9/g1nn332V7ds2XKQInCaUChUICIrRfQ/UwPZ/zlfbqqtrX2YEg5/bycBwuGwEQwG/yAiBdRADkiLyC9SqdT3vve97/HNJHCc2bNnVzY3N9+TTCa91BgeDLCGn9frbXa5XF/fu3fvJmrAafLz8881TbVERBVRAzni97FY7ZeEL91wPAZYEBGRaDQ6Tmu9TURGUwM5ol1EFieTyVXhcJiva4Oj3Hjjjf7Ozs41+/fvn55Op3mvH2IMsIaP2+1Oeb3ecDweX0INOM1FF13kGT169E0i+h4RCVIEOaKlry/98eeff76ZFOBDLf4mGo3O1lo/SgnkmC1a63lVVVWbSQGnueGGGy5ubm5+qq2t7QKt+aPlUGGANfQMw9B+v/8ZESmMx+OHKQKnCYVCV4vo+0WEy8iRS7RS+uqamk18+QZEhAEW3iYaja7VWhdSArn25icia1wuV9Vtt93GX2/gOKWlpaX79+9/4NChQwFqDD4GWEPLsqyGESNGfOW1117bTg04TX5+/j+Ypnm/iP4SNZCDH+F/FIttuo0OeBMDLPydpUuXjnK5XFtF5HxqIAd1ikg4mUw+GA6H+bo2OEpBQYFr7NixDzY2Nl6fSqX4CvVBxABraLjd7h6fz3fbnj17fkYNOE1eXp7fsqwFInqRiLDmIXLRa/399mWbN2/uJQXexAAL7xCJREIisl5ETGogR+20bfvWBQsW/Bcp4DTXXXfdBZ2dnb9OJBITuaxwcDDAGlymaWrLsp4566yzvrlly5Y+isBpjl4u+ICIjKcGctQREXVlLBbbRgq8FQMsHFN1dfU9SqnvUwI57lkRuaWysnIvKeA0JSUlM1taWh7u7OwcSY2BxQBrkD60KiU+n2+H2+3+akNDwy6KwGlCodBEEb1KRKZQA7lMa5lfW1t7PyXwdpxhg2OaPHnyRo/H8zkROY8ayGEfVkrd+NnPftYzefLk59avX89lhXCMbdu2vTp79uzlSqmze3t789LpNJcVDhCXyyUtLS2EGEBer7fT7/fP3rt37y0HDhzooAicJBQKjR4/fvwyEf1zYZkP5L7/rq2tvYUMOBbOwMK7Wr58+YWGYfxJREZQAw5Qr5SaX1FR8Swp4DRFRUXvP3z48ONNTU1X2bZNkNPEGVgDxzTNfsuyHonH4zeJCDsnnMYIhUKzRXS1iLyfHHCANqWMj9fU1OwnBY6FARbeUyQSuV5EWBwVTvI/pmmWzZ8/fwcp4DQlJSXT2tra1nZ0dJxNjVPHAGsAPqC+cbngtmAw+IUdO3ZwIAPHmTx58mVKySoR+QQ14KBX/xmxWOwJOuBd9xAS4HgikcivRGQGJeAgfUqph9Lp9O0LFy7sIgecprCwcHEikVjU29vrosbJY4B1erxeb4fX6y1uaGj4LTXgNAUFBeek06m7RNT1IsKl3XCSn8Ritd8hA94LL4o4/pF8X993RGQfJeAgbq11mWmaO6PRaLHWmmE/HGXdunV3TJgw4QPnnXfeBsPgowKGhmmafSNHjry7sbHxLIZXcJqCggJXKBS6NZ1O7xRRN3KcBidRSupdLnclJXDcfYUEOBHV1dWfUUr9J2+mcCKt9QYRKauqqnqFGnCaoqKiKw8ePLiutbX1AmqcGM7AOtkDFyV+v3/D6NGjp2/durWTInCayZMnf1IpWSkiH6MGHKhPKTtUU7P5BVLguJ8ZSIATVV1dHVVKlVMCDpUWkV+kUqnvfe9732snB5xm9uzZlc3Nzfckk0kvNd4bA6wT5/V6m10u19f37t27iRpwmoKCK89Lp817RVQRNeBcalEsFltGB5wIzqbByXzI/J6IbKUEHMolIjd6PJ66SCRy6+OPP26SBE6yZs2ayIQJE84cN27c0y6XS1MEp8PtdqcCgcD3Gxsbz2F4BafJz8+3QqHQwnTatYPhFRyuZsyYMREy4ERxBhZOSiQS+aiIvCQiFjXgcFu01vOqqqo2kwJOc8MNN1zc3Nz8VFtb2wVaM8t6O87AeneGYWjLsv6jp6dnRmtra5IicJpQKHS1iP6RiEygBhyu07b1xZs2bdpLCpwoBlg4adXV1bcopVZRAhAtImtcLlfVbbfd1kwOOM2111777f379684ePCgnxr/hwHWsVmW1RAMBr+6Y8eOV6kBp5k6deqHtO6/X2v5IjUAEaX0zJqaTY9RAie135AAJ33ErrWKRqP/LiJfpgYgIiKdWuul3d3d94XD4RQ54CQFBQWusWPHPtjY2Hh9KpViaQJhgPV2bre7x+fzzd+zZ89PqQGnmTZtWqCnp6dKRC8SEdYQBEREKfllTU1tKSVwsvigiVN4wVHa4/FcJyIJagAiInKGUmppMBh8Zfny5dPIASdZv359et26dd8+//zzPzxmzJhtSvG3MRz9kGkYOhgMPn3mmWeOZngFJ35kDoVC1/T0dO8Q0XcKwyvgTXtSqXQZGXBKL6wkwKlasWLF523b/h37EfAOz4rILZWVlVzTD8cpKSmZ2dLS8pPOzs4RTm3g9DOwlFLi8/l2uN3u6Q0NDXU8K+A0kyZNutgw1CoRCVED+Dtp29ZTN23axBqyOLXPGCTA6YhEIg+KyM2UAN5xANdj23Z1d3f30nA4fJgicJJwOGzU1dU9tH///usPHz7suLO9nTzA8nq9nR6P54Y9e/Y8yTMBThMKhUaLSFhEzxURvq0YeAcdjsU23UUHnPIxFglwmgcpvmAw+IKI/DM1gGParZS6raKi4llSwGm+853vvL+9vf3xpqamq2zbdszjduIAyzTNfsuyHonH4zeJiM3eD4cxQqHQbBEdEZH3kQN4J6XkxZ6ew5O3bNnSRw2c8n5EApyu6urqjymlXhQRHzWAd/U/pmmWzZ8/fwcp4DRFRUWfO3DgwJr29vaznfB4nTTAOnq54LZgMPiFHTt27Gdvh9NMmjTpcsMwHhDRV1ADeFdJwzAv3bhx4y5S4LQ+d5AAA6G6urpKKbWcEsB76lNKPZROp29fuHBhFzngNIWFhYsTicSi3t5eVy4/TqcMsLxeb4fX6y1uaGj4LXs3nGbKlCljtO5fJqJmc0wFHI8qicViq+mA08W3EGJAdHd3R0XkD5QA3pNba11mmubOaDRarLXmAy8cZd26dXecd95555x33nkbDIOPINnKNM2+kSNHLmtsbDyL4RWcJi8vzx0KhW7V2t4pooqE4RXwnrSWpxheYaDwgosBs2LFinNt294mImdRAziRN3S9QUTKqqqqXqEGnOa6664LdXR0rGlubv5grj22XD0DSyklfr9/w+jRo6dv3bq1k70YTjN16qRP2bZaKSIXUQM4oXeOv/b390/cvHlzBy0wIHsUCTCQqqurv6aU+jUlgBOWFpFfiMj3Kysr28gBp5k9e3Zlc3PzPclk0psrjykXB1her7fZ5/P9y+7du2vZa+E0BQVXnpdOm/cePeMKwImxtZbP1NbW/i8pMFAYYGHARSKRR0TkOkoAJ6VDRO4eP378AzNmzOgnB5zkxhtv9Hd2dq7Zv3//9HQ6nfWfTXJpgOV2u1M+n++uPXv23MueCqfJz8+3TNNcKKIXCl9WBJwUpWRJTU3t9yiBAd2vSICBVl1dHVBKvSwiH6YGcLJv9upl27Zvqaqq2kwNOM2cOXMuaW1tfbKtre0CrXXWPo5cGGAZhqEty/qPnp6eGa2trUn2TjhNKBS6Wmu9Uik5nxrAydIvHzhwMH/79u0pWmBAj5VIgMGwYsWKy2zb3iQibmoAJ/+uLyJrXC5X1W233dZMDjhNcXHxvEQisbyrqysrz3jI9gGWZVkNwWDwqzt27HiVvRFOEwqFPiyifyQin6cGcEq6tZa82tra10mBgcYAC4MmGo3eobW+mxLAKevUWi/t7u6+LxwO8xcsOEpBQYFr7NixDzY2Nl6fSqWy6isLs3WA5Xa7e/x+f/nu3bt/wh4Ip5k2bVqgp6enSkR/V0Q8FAFOjVL6xpqaTT+jBAYD32GNQdPV1fXDo9+yBuDUnKGUWhoMBl+JRCKfIwecZP369el169Z9+/zzz//wmDFjtinF39wG7cOgYehgMPj0mWeeOZrhFZx4vB0KhYp7errrRfSdwvAKOGVay28YXmFQX7BJgMEUjUbHaa23ichoagCn7VkRuaWysnIvKeA0xcXFha2trQ93dnaOyPT7mi1nYCmlxOfz7QoEAl/euXNnHXsZnGbq1PxLbNtYJSKTqQGctua+vvTE559/nuUvMHifXUiAwRaNRmdrrR+lBDAgB5w9tm1Xd3d3Lw2Hw4cpAicJh8NGXV3dQ5l+WWE2DLC8Xu9Bj8dz/Z49e55kz4LT5Ofnn2ma5p0ieq6ImBQBTpvWWr5cW1v7O1JgUI+FSIChEI1G12qtCykBDJjdSqnvVlRUPEEKOM0tt9wytqWl5fHGxsbJtm1n3P3L5AGWaZr9lmU9Eo/HbxIRm70JDmOEQqHZIjoqImeTAxgoakUsFqugAwZ9TyMBhsLSpUtHuVyurSJ8FTEwwP7HNM2y+fPn7yAFnKa0tPTzra2tj3Z0dGTUgWgmDrCOXi64LRgMfmHHjh372XvgNFOnTppq22qViHycGsCA2u5yuS9bv349VwZg8D/PkABDJRKJhERkvXCqNjDQ+pRSD6XT6dsXLlzYRQ44TWFh4eJEIrGot7fXlQn3J9MGWF6vt8Pv95fs2rXrWfYWOM3kyZPHKqWXiqjZHPsAA+6IUsYVNTU1r5ACQ4EXcQypSCTyQxH5HiWAQdGklPpueXn5o0opTQ44ycyZM89Op9NPNjU1XTXclxVmygDLNM0+y7IeiMfj5ewhcJq8vDy3ZVk3i+jFIjKCIsAgDBOULqup2bSKEhiyfY4EGErhcNgVDAZjInIlNYDBobXeICJlVVVV/DUMjlNcXPzJzs7O1a2trecN130Y7gGWUkr8fv+G0aNHT9+6dWsnewWcZsqU/E9rbawUkY9SAxi0d5v/jMViXxAR/miKodvrSIChtnz58gsNw/iT8NcwYDClReQXIvL9ysrKNnLAaWbPnl3V3Ny8OJlMeof6todzgOX1epsDgcA36urqYuwFcJpJkyZdaBhqiYhcQw1gULW6XO6Pr1+/PkEKDCUGWBgWkUjkehH5GSWAQdchInePHz/+gRkzZvSTA05y4403+js7O9fs379/ejqdHrLPPMMxwHK73Sm/33/37t27f8iWh9Pk5eX5LctaIKIXioiPIsCgjxG+EovF/h8dMOR7HgkwXCKRyK9EZAYlgCF4sVfqZRGZV1FRsYkacJo5c+Zc0tra+mRbW9sFWg/+lQ5DOcAyDENblvWHnp6er7W2tibZ2nCaUCh0tdZ6pVJ80zUwNPSPY7FNc+mAYTmmIQGGy5IlS0a73e5tIjKOGsDQfOIQkTUul6vqtttuayYHnKaoqKisubl5WVdX16CeoTFUAyzLshqCweBXd+zY8SpbF04zefLkf1RK/UhEf44awJCND3b09vZetmXLlh5aYFj2QBJgOFVXV39GKfWfImJQAxgynVrrpd3d3feFw+EUOeAk11xzjcftdj/c2NhYmkqlBuVz0GAPsNxud4/f7y/fvXv3T9iicJqCgoIz0unUIhE1X0Q8FAGGTJ9t68mbNm16kRQYLgywMOyqq6ujSim+4hsYeq+LyK2VlZX/SQo4TUlJyYVdXV1PJRKJiQN9WeFgDbAMw9B+v//xeDxeJCJ9bEU47bglFAoViejlIvIBcgBDS2upqq2tjVACw/pGQAIMt5UrV3pTqdRzInIxNYBh8axpmvPmz58fJwWcpqSkZFZLS8tDnZ2dA/bNuIMxwLIsqyEQCHxh586ddWw1OM2UKVMu1VqvEtGTqAEMPa1l49ixYz/1xBNP8IVAGFYMsJARIpHIR0XkJRGxqAEMw5uBUj22bVd3d3cvDYfDhykCJwmHw0ZdXd1DjY2N16dSqdO+pH0gB1gej+eg3++/ob6+/gm2FJwmPz//TNM07xTRc0XEpAgwLDpF1MRYLPYXUmDYj1lIgEwRiUTmichKSgDDardS6rsVFRUcLMNx5syZ88HOzs7HEonEJ2zbPuXfMxADLNM0+y3LeiQej98kIjZbB05SUFDgSqfT14noH4rI2RQBho/W8q3a2tpfUQKZgAEWMujFUatoNPrvIvJlagDD7n/kjfWxXiMFnKa0tPTzra2tazo6Os46lZ8/nQGWUkp8Pt82v9//xddff72JrQGnmTJlylVa2ytF5OPUAIb9CO0XsdimOXRApmCAhYyycuXK96VSqVdE5BxqAMOuTyn1UDqdvn3hwoVd5IDTFBYWLk4kEot6e3tdJ/NzpzrA8nq9HZZlldbX1/8/6sNpJk+ePFYpvVREzeYYBcgIDVrLxbW1tXwGRMbgzQEZZ8WKFZ+3bft37J9AxmhSSn23vLz8UaWUJgecZObMmWen0+knm5qarjrRywpPdoBlmmY6EAj8pKGh4RaKw2ny8vLclmXdLKIXi8gIigAZIa21TKmtrX2OFMgkDAiQkSKRyIMicjMlgIyyUWs9r6qq6hVSwGmuvfbaT3V0dKxpaWkZc7x/e6IDLKWU+P3+DaNHj56+devWTirDaUKh0GdEZKWI/gg1gIwaE9wRi8XuoQMybs8kATJROBz2BYPBF0Tkn6kBZBRbRNaKSHllZWUbOeA0s2bNWtDS0nJ3Mpn0vtu/OZEBltfrbQ4EAt+oq6uLURVOk5+f/w+mqe4TUax7CmSe2jFjxl71xBNP9JMCmYYBFjJWdXX1x5RSL4qIjxpAxukQkbvHjx//wIwZM/iAA0e58cYb/Z2dnWv2798/PZ1Ov+Oz1HsNsNxud8rv9y/evXs3f9mG4+Tl5fkty1ogohfy+Q7IyPHAQZcrffH69c/FaYGM3ENJgExWXV1dpZRaTgkgQ99ElHpZROZVVFRsogac5tprr720vb39iba2tgu0/r/l4Y41wHrzcsGenp4vt7a2JqkHpwmFQleL6FUi8kFqAJlJa5ldW1u7lhLI2GMPEiCThcNhIxgM/peIfJoaQOZ+3hGRNS6Xq+q2225rJgecpqioqKy5uXlZV1eXT+SdAyzLshr8fv/XXn/9ddaPg+Pk5+f/k8tl/EhrmUYNIKM9EYvVziADMhkDLGS8FStWnGvb9jYROYsaQEY7qLVe0t3dfV84HE6RA05SWlrqO3LkyM+amppmGYah/vznP4vb7e6xLKuioaHhYQrBaQoKCs5Ip9N3ieibRcRFESCj7RNRE2Ox2AFSIJMxwEJWqK6u/ppS6teUALLC6yJya2Vl5X+SAk5zww03XNTY2PibHTt2bN6zZ8+1IpKmCpx2fBEKhYpEdLWIvJ8cQMazRdSnY7HYelIg499gSIBsEYlEfiEi11ICyBrPmqY5b/78+XFSAEDuC4VCeSL6ARH5BDWAbKHvicU23UEHZAMGWMga1dXVgaMLRn+YGkCWvMko1WPbdnV3d/fScDh8mCIAkHuuuOKKszwezw9E9C0iYlAEyBpbensP52/ZsqWPFMiKYwsSIJusWLHiMtu2N4mImxpAVtmtlPpuRUXFE6QAgNxQUFDgSqfTc0XkLhE9iiJAVukWUZfGYrE6UiBbMMBC1olGo3dore+mBJCV/iAiZZWVla+RAgCyVygUKhCRlSL6n6kBZOUoYE4sFvsFHZBVey0JkG3C4bARCAT+qJS6ihpAVupTSj2UTqdvX7hwYRc5ACB75Ofnn2uaaomIKqIGkLWejsVqv04GZBsGWMhK0Wh0nNZ6m4iMpgaQtZqUUt8tLy9/VCmlyQEAmeuiiy7yjB49+iYRfY+IBCkCZK3GVKpv4gsvvNBOCmQbBljIWtFodLbW+lFKAFlvo9Z6XlVV1SukAIDMEwqFrhbR94vIBdQAspqtlD2tpmbzH0iBbMQAC1ktGo2u1VoXUgLI/g9UIrJWRMorKyvbyAEAw2/q1Kkf0rr/fq3li9QAsp/WUl1bW7uAEshWfM0tslpfX9/NIhKnBJAT70dFIvJ6JBK59fHHHzdJAgDDY9q0aYFQKBS27f4/M7wCcsarbrf7B2RANuMMLGS9SCQSEpH1IsIBL5Arb05KvSwi8yoqKjZRAwCGztHLBR8QkfHUAHLGYcOwr9i4cfOfSYGsPkYgAXJBJBL5oYh8jxJATtEissblclXddtttzeQAgMEzadKkiw1DrRSRKdQAcu6wf24sFvsxHZD1ezIJkAvC4bArGAzGRORKagA5p1trHenu7r43HA6nyAEAAycUCo0WkbCIniuczQ7kov+IxWq/KG/8YRDIaqyBhZwQDofTtm3PEpEuagA5J6CUujMYDL4SiUQ+Rw4AGJjjgFAoVCyid4roMmF4BeSiFpfLfa0wvEKO4Aws5JTq6uoblFI/pQSQ0541TXPe/Pnz46QAgJM3adKkyw1DrRLOXAdymRZRX4nFYs+SArmCARZyTiQS+ZWIzKAEkNN6tdbLu7u7l4bD4cPkAIDjKygoOCedTt0loq4XrsQAcprWsqq2traMEsglvHEh5/T19X1HRPZRAshp1tHLCl+NRqPXkAMA3l1eXp47FArdmk73vS6ibuQYAMh5r9m2vZAMyDWcgYWcFIlEPisi/8EHNMAx/iAiZZWVla+RAgD+z+TJkz+plKwSkYuoATjCERF1ZSwW20YK5BoGWMhZ1dXVUaVUOSUAx+hTSj3kdrvvKCsrO0QOAE5WUHDleem0ea+IKqIG4KADfCXlNTW191ECuYizU5CzvF7v90SEvzwAzuHWWpelUqkd0Wi0WGvNH2kAOE5+fr4VCoUWptOuHQyvAMf575qa2h+RAbmKD/fIaZFI5KMi8pKIWNQAHGejUqqsoqKCQTYARwiFQleL6B+JyARqAI5zwDDMiRs3bmQtYOQsBljIeZFIZJ6IrKQE4Ei2iKwVkfLKyso2cgDIRaFQ6MMi+n4R+QI1AMce2s+IxWJP0AE5vZeTALlOa62i0ei/i8iXqQE4VoeI3D1+/PgHZsyY0U8OALlg2rRpgZ6enioRvUhEvBQBHHvE89NYbNO36YBcxxpYyHlKKa21niMiCWoAjnWmiNy/b9++F5YvXz6ZHACy/eNNKBS6pqene4eIvlMYXgFOtltrVUkGOOLNjwRwihUrVnzetu3fsd8DjqdFZI1t2wsWLFjAYBtAVpk6Nf8S2zZWiQjDeABpERWKxWLPkwJOwIE8HKW6uvrHSqmbKAFARLq11pHu7u57w+FwihwAMlkoFBotImERPVdETIoA0Fq+V1tbu4QScAouIYSzjla7u8tF5M+UACAiAaXUncFg8M8rVqz4PDkAZOrn9VAoVCyiXxfRZcLwCsAbasaOHbucDHASzsCC40Sj0Uu01s+JiIcaAN7iWdM0582fPz9OCgCZYNKkSZcbhvGAiL6CGgDechh/0LbtiZs2bdpLCzhqzycBnKi6urpKKcVfLAC8Xa/Wenl3d/fScDh8mBwAhsOUKVPGaN2/TETN5vM6gGMcxhfGYrF/owOchksI4Ujd3d1REfkDJQC8jXX0ssK6aDRaTA4AQykvL88dCoVu1dreKaKKhOEVgHdazfAKTsWbIhxrxYoV59q2vU1EzqIGgHfxBxEpq6ysfI0UAAbTlCn5n9ba+JGIXEQNAO9iT19f+uLnn3/+ECngRAyw4GjV1dVfU0r9mhIA3kOfUuoht9t9R1lZGR8YAQyoqVOnjrPt9A+PnnEFAO/GVsr4VE1NzQZSwKkYYMHxIpHIL0TkWkoAOI79SqlF5eXljyqlNDkAnI78/HzLNM2FInqhiPgoAuA4h+53xWKxMB3gZKyBBcfTWs8TkTpKADiOMVrrX0aj0fXRaHQiOQCcqlAodLVhGK+J6DuF4RWA41BKXuzt7f0hJeD45wIJAJEVK1ZcZtv2JhFxUwPACbBFZK2IlFdWVraRA8CJCIVCHxbRPxKRz1MDwAlKGoZ56caNG3eRAk7HAAs4KhKJ/EBE7qIEgJPQISJ3jx8//oEZM2b0kwPAsUybNi3Q09NTJaK/KyIeigA4UVpLaW1t7S8pAXAJIfA3yWTyHq01iyICOBlnisj9f/nLX15cvnz5ZHIAeBsVCoWKe3q6dx+9XJDhFYCT8WuGV8Bb3lRJAPyfaDQ6Tmu9TURGUwPASdIissa27QULFixIkANwtilTplyqtV4loidRA8ApaOzvtz++efPmDlIAb2CABbxNJBIpEpHVlABwirq11pHu7u57w+FwihyAs+Tn559pmuadInquiJgUAXAKbMPQn924cdMfSQH8HwZYwDFEo9G1WutCSgA4DXWGYdxaXl7+H6QAHMEIhUKzRXT0/2/vz+Mkv+s7z/PzjchMKFmi2+PeWUme0Tx6vbvd0961x6Nu3JJStKan7Znpbj/msbMPs4+uSxeokAoSZUZElkAIhYSQQJUlUElGDcbmtsEp3JhLHNMiyfhFprLkAgsoThmBJCx0oCpUmaojM3/f/QPaHLrqyCOO5/NPHVmRr19GRfzeGRG/iPhHcgAn4S1F0X6dDPCLDFjwbI8Yb3nLPxgYGLgvIv47NYCT9Mlqtfqa0dHR70kBvellLzv3ZWWZbouI31IDODn5S/v3//icffv2eRU3/BIDFjyHiYmJ4YiYCi//B07eoZzzzQsLC29pNpuH5YDecN55552ZUn5LRNrseTWwAp5eXi7Pnp2d/aYU8EweaOF5TExMvDkiXq8EsEIeSim9oVar+Zw96GJnn3324IYNG66IyG+KiNMUAVZCzvGqdrv9TiXg2Rmw4Hk0m82BU089tYiI31UDWEH/+aefj7VPCuguw8PD/yYidkfk/14NYAXdVRTtfxc/uaox8CwMWPACbr755t+oVCpfDr9hBVbWYkrpjsHBwWtGRkaekgM627nnnvsblUq6KSL+UA1ghT22uLj0W3Nzc49KAc/NgAXHYOfOna9MKb1LCWAVPJJSumpsbOwDKSW/dYUOc/bZZ5+yYcOG8Yi8IyJerAiwwnLO8e/b7fanpYDnZ8CCYzQxMfEX4beuwOrZU6lUXjM2NrZHCugMw8PDfxCRbwtXJQZW64Q8xdtbrfaoEnAM9xcJ4NjcdNNNvzo4OHhfRPy3agCrpIyIDw0NDdVGRkYelwPWx3nnnfdPUkq3RuT/RQ1gFe1bXi7/xezs7CEp4IUZsOA4TExM/F5EfCYiKmoAq+jJiLj+rLPOuv3lL3/5shywNi644IJ/uLR09KqINBoRQ4oAq+hISpWXtlqtr0gBx8aABcdpYmLilojwMl9gLXy5LMvXjI+Pt6WA1X1OPDw8vCUi3xwR/1c5gNWXX1sUM7t1gON4sJYAjs/u3btfdPTo0bmI+G01gLV4hhsRHyzLcnx8fPyHcsDKGh4ePjulfFvOcY4awJqchKf4XKvV/l9/+hgPHOt9RwI4fhMTE/8sIv46IjaoAayRhZzzxMLCwo3NZvOoHHByXvrSl/7a0NDQGyPy9oioKgKskSdSqvxWq9V6RAo4PgYsOEETExOviQgv+wXW2rcj4sp6vX6XFHD8LrjggoGlpaVLUso35hy/pgiwlnKO/73dbn9cCTh+Biw44QefnHbt2vXxiPj3agDr4JM555FGo/GAFHBszj///H+Vc74tIv+/1QDW4fT7jqIortABTvAeJAGcuJ07d/7XKaX7IuJ0NYB1cCjnfPPCwsJbms3mYTng2Z1zzjm/Xq2mmyLSZs9/gXU58U5xf7U6+DtTU1PzasAJ3o8kgJNzyy23/K9lWX7a/QlYRw+nlK6u1WrvlwJ+5uyzzx7csGHDFRH5TRFxmiLAOllMqRxutWb3SAEnzgk3rICdO3e+I6V0uRLAOru7UqmMjI2N7ZOCfjc8PPxvIvJtEfFP1QDW9aQ75R2t1szNSsDJqUgAJ29hYWEsIr6qBLDO/nVZll/etWvXrbt3736JHPSjc8455/8+PHzuJyLy58N4BayznGP69NN/fZcScPK8AgtWyK5du34n53xPRAypAXSAR1JKV42NjX0gpZTloNedffbZp2zYsGE8Il8VES9SBOgAByLSbxdF8aAUcPIMWLCCJiYmxiPirUoAHeTeSqXy6rGxMZ+7Qc8aHh7+g4h8e0ScpQbQMSfbKf+HVmvmw0rACt2nJICV02w2K6eeeurnIuJ/VgPoIGVEfGhoaKg2MjLyuBz0inPOOeefVquV3RHxe2oAHXaq/Z6iKC7RAVbwXiUBrKxbbrnl18uyvC8ifk0NoMPsj4jrzjrrrNtf/vKXL8tBt7rgggv+4dLS0nUR+YqIGFAE6DDfXVxc+p25ubmnpICVY8CCVTAxMfF/RMRHlQA61JcjYqRerxdS0G3PXYeHh7dE5J0R8V/LAXSgpbLML5uZmZmVAlb4SYAEsDomJib+NCIuVgLoUDki7kwp1Wq12kNy0OnOO++8f55S3BYR/1INoGMfXHO8sd1uv0kJWHkVCWC1HrzyayLi20oAHSpFxB/mnL+xc+fO5u7du121jY700pe+9NeGh4dvTSnmwngFdLb2mWeeeaMMsHpPXoFVcsstt/zzsixnImJQDaDDfTsirqzX63dJQSe44IILBpaWlrZHxHUR+R8oAnS4+eXl8ndmZ2fvlwJWhwELVtnExMQbf/LkG6ArfDLnPNJoNB6QgvVy3nnn/U8pxe6I+H+pAXTFiXXKW1qtmQ8qAat4P5MAVlez2az8yq/8yt0ppX+lBtAlDqWUdpdl+aZGo7EgB2vlnHPO+fVqNd0UkbaoAXTRafWdRVH8oQ6wyvc0CWD17dy58x+nlP4mIl6iBtBFHk4pXV2r1d4vBavpN3/zN4d+9Vd/9fKIfENEnKoI0EWn1A8vLy//9uzs7JNawCrf2ySAtTExMbElIpwEAt3o7kqlMjI2NrZPClba8PDwH0Tkt0fE/00NoMuUOce/abfbX5ACVp8BC9bQxMTEn0XEf1AC6EKLKaU7BgcHrxkZGXlKDk7Wy172sv9Hzstvzzn+rRpAl55Ov7koijfoAGujIgGsnaWlpcsj4vtKAF1oMOc8cvTo0W/u2rVra87ZL8E4Ib//+7//K8PDw82yXP6q8QroYnv3799/vQywdjz5hDU2MTExHBFTEVFVA+hi91YqlVePjY3tkYJj9dO3C94eEWepAXSxhZzj7Ha7/S0pYO0YsGAd7Nq168ac8+uUALpcGREfGhoaqo2MjDwuB8/l3HPP/R8qlXRbRAyrAXT9SXSKV7Za7XcrAWt835MA1l6z2Rw49dRTi4j4XTWAHrA/Iq4766yzbn/5y1++LAf/xfDw8K9GRDMibw+vPAZ6Qv5YUcz8f3SAtWfAgnVy8803/0alUvlyRJymBtAjvhwRI/V6vZCi71WGh4c3R+SJiPi/yAH0iL87enTxt/bs2fMjKWDtGbBgHe3cufOVKaV3KQH0kBwRd6aUarVa7SE5+s+55577L376dkGvMgZ66vEt5/h37Xb7LilgfRiwYJ1NTEz8RUT8oRJAj1nIOU+86EUvumlkZOSIHL3v/PPPPyPn5WZEekW40jXQc/Kuopip6wDrx5MLWGeLi4vbIsKrFIBe8ysppWuPHj36lYmJif9Njt519tlnDw4PD7825/KbEekyzy+BHvS1gYGhN8gA68srsKADTExM/F5EfNZ9Euhhn8w5jzQajQek6B0ve9m5/7os0+6I+E01gB51uFIpXzo9PftVKWB9OVmGDjExMXFLRIwqAfSwQyml3S9+8Ytv2L59+7wc3euCC373v1laqt4YkbaoAfT4KfOri6L4Ix1g/XmJN3SIoaGh10XEfUoAPWxDznnHoUOHvrFr166tcnSfc845Z8Pw8PCOpaWBbxivgN6XPlsUxTt0gA65R0oAnWNiYuKfRcRfR8QGNYA+cHelUhkZGxvbJ0XnGx4e/oOIfGtE/GM1gD7w+MDA4G9NTU39UAroDAYs6DA7d+4cSSndqgTQJxZTSncMDg5eMzIy8pQcnWd4ePj/GZHfHhE+jB/oFzki/e9FUXxCCugcBizotEfLnNOuXbs+HhH/Xg2gjzwSEc35+fl3N5vNUo719/u///u/8vTTTzci8lUR8SJFgL45SU5xe6vVfo0S0Fl8BhZ03ANmyjnnSyPiUTWAPnJGRLzz1FNPvWfnzp2/K8f6PhQNDw//4dNPL3wjIl8bxiugv/4K/MbSUjmuA3TgvVMC6EwTExP/W0R8yv0U6ENlRHxoaGioNjIy8rgca+dlLzvnd8qycltEnKcG0IeOlGX+lzMzM38jBXQeJ8bQwXbu3PmOlNLlSgB9an9EXHfWWWfd/vKXv3xZjtVzzjnn/FfVavXaiLw9IqqKAH16elwvimKXDtCZvIUQOtjCwsJYRHxNCaBP/WpEvP3BBx/864mJiWE5Vue54PDw8NZqtfLNiDwSxiugb+UvFkXxNh2gc3kFFnS4Xbt2/U7O+Z6IGFID6Oczi4i4M6VUq9VqD8lx8s4//5yX5ly9LSK/VA2gz+2vVKq/PT097fEFOpgBC7rAxMTEeES8VQmAWMg5T7zoRS+6aWRk5Igcx+/8888/I+flt0akzZ4LAkTkHP+/drv9F0pAZ/MWQugC8/PzExFxtxIA8SsppWuPHj361V27dv1bOY7d2WefPTg8PPzanMtvRqQtYbwCiJzj3cYr6A6euECXuOWWW369LMv7IuLX1AD4e5/MOY80Go0HpHhu559/zv+cc2V3RPwzNQD+3t/mHL/TbrcPSgGdz4AFXWRiYuL/iIiPKgHwCw6llHa/+MUvvmH79u3zcvzMy172sv+2LJfe/NNXXAHwM0sRabgoijkpoDsYsKDLTExMvCciLlIC4BkeTildXavV3t/vIc4555wN1Wp1R0TeEREv9qMB8EsnwimubrXaNyoB3cNnYEGXyTm/OiK+rQTAM/w3Oef3TUxM3H3LLbf8Zr9GGB4e/oNKpfL1iHxtGK8Ank1x+ulnukASdBmvwIIudMstt/zzsixnImJQDYBntZhSumNwcPCakZGRp/rhGz7vvPP+SUrp1oj8vzj8AM95CvzjgYGl/2Fq6p7vaQFddu+VALrTxMTEGyPiOiUAntcjEdGcn59/d7PZLHvxG7zgggtOXVpaqkfk10XEkEMO8LynwJuKovgzHaD7eAshdKn5+fkbcs5fVALgeZ0REe889dRT79m5c+fv9tpZ2PDw8NalpcX7f/p2QeMVwPPIOT5ovIIufuIjAXSvnTt3/uOU0t9ExEvUAHhBZUR8aGhoqDYyMvJ4N38j559//v+Yc74tIp/rsAIck4ci0m8XRbFfCuhOBizochMTE1si4v1KAByz/RFx3VlnnXX7y1/+8uVuuuHnnHPOf1WtVq+NyNsjoupQAhyTMqXKv261Wt69AF3MgAU9YGJi4s8i4j8oAXBc/iYiXlOv14suuK2V4eHhzRF5V0T8I4cO4NjlHNe32+1rlYDuZsCCHvCWt7zlHwwMDNwXEf+dGgDH7ZMppStqtdpDnXjjzj///H+Vc7k7In7LoQI4bn996NDhc/fu3bsoBXQ3Axb0iImJieGImApvKQE4EQs554kXvehFN42MjBzphBt03nnnnZlSfktE2uw5G8CJ/d0ekf7Hoii+LQV0P0+GoIfs2rXrxpzz65QAOGHfSSldWavVPr1eN+Dss88e3LBhwxUR+U0RcZpDAnCi8iVFMfMeHaA3GLCghzSbzYFTTz21iIjfVQPgpHwy5zzSaDQeWMs/dHh4+N9ExO6I/N87BAAn5S+Lov3/lQF6hwELeszNN9/8G5VK5cvht/YAJ+tQSmn3i1/84hu2b98+v5p/0LnnnvsblUq6KSL+UHaAk/aDo0cXf3vPnj0/kgJ6hwELetDExMRlEfFOJQBWxMMppatrtdr7V/oLn3322ads2LBhPCLviIgXSw1w0spKJf/e9PTM3VJAbzFgQY+amJj4i/CbfICV9IWfvq3wayvxxYaHh/8gIt8WriALsJKnuDcXRbFDB+jBe7cE0JsmJib+UUR8JSLOUANgxSymlO4YHBy8ZmRk5KkT+QLnnHPOPx0YqNyac/y+nAArJ+f48oEDB/7lvn37jqoBvceABT1sYmLi9yLis+7rACvuhxFx7fz8/LubzWZ5LP/DBRdc8A+Xlo5eFZFGI2JIQoAVdbgs87+YmZn5mhTQmyoSQO+q1+ufj4i3KwGw4k6PiHeeeuqp9+zcufOFrvyahoeHty4tLX4zIu0I4xXAiss5Ro1X0Nu8KgN63O7du1909OjRuYj4bTUAVkUZER8aGhqqjYyMPP7z/2J4ePjslPJtOcc5MgGsmruKov3vIiJLAb3LgAV9YGJi4p9FxF9HxAY1AFbN/oi47qyzzrp9YmLiHw4NDb0xIr86vOIdYDU9tri49Ftzc3OPSgG9zYAFfWJiYuI1EbFbCYDVdfjw4T2f+cxn/klE/gdqAKyqHJH+bVEUn5ECep/fCEKfqNVqtzuXX+8AADRvSURBVEfEp5QAWF1Hjx4923gFsBbybuMV9A8DFvSJlFLOOV8SEV5eDbC6qhIArLqvLy/n18kA/cOABX2k0Wg8FhEXhw+4BACgex2JSBtnZ2cPSQH9w4AFfaZer98VEe9UAgCAbpRzXFUUxX1KQH8xYEEfmp+fH42IrykBAECX+Xy73b5VBug/BizoQ81m83BKaWtEHFUDAIAu8URKlQvDx2FAXzJgQZ+q1WpfjohrlAAAoBuklC9vtVqPKAH9yYAFfWx+fn4iIu5WAgCADvfOVmvmThmgfxmwoI81m82yUqlsjYgfqQEAQIf61imn/EpNBuhvBizoc2NjYz+IiMuUAACgAy2mVG793Oc+tyAF9DcDFhD1ev0vI+K9SgAA0FnSNa3W7B4dAAMWEBEROedXR8S3lQAAoEO0zjjjjAkZgAgDFvBTjUZjoVKpbIqIRTUAAFhnB8oyb5mcnFyWAogwYAE/Z2xs7K9TSm9WAgCA9ZRSvnxmZub7SgD/hQEL+AUHDx58U875i0oAALAeco73tlozH1YC+HkGLOAXNJvNMiIujoin1AAAYI09sLS09FoZgF9mwAKeodFoPJBSeo0SAACsoaWyzJvm5ub8IhV4BgMW8Kxqtdr7I+LPlQAAYG3kG2ZmZmZ1AJ6NAQt4TktLS5dHhA/PBABgVaUU9x46dORGJYDnYsACntNVV13147Ist0SEyxcDALBa5lOqbtq7d++iFMBzMWABz2t8fLyVUrpZCQAAVkfaPj09/R0dgOdjwAJe0MGDB98YEXNKAACwknKOjxZF8X4lgBdiwAJeULPZXKpUKpsj4qAaAACsjPRwWZaX6QAcCwMWcEzGxsbuj4i6EgAArIAy57x1dnb2SSmAY2HAAo5ZvV5/V0RMKgEAwMlIKd7abre/oARwrAxYwPG6IiIekQEAgBOTv/TkkweaOgDHw4AFHJd6vf5ERFwYEVkNAACO00LOaeO+ffuOSgEcDwMWcNzq9frnU0q3KgEAwPFIKY+22+1vKQEcLwMWcEIGBwevioj7lAAA4FjkHH/Vas38sRLAiTBgASdkZGTkSERsjIhDagAA8AIeXVpa2iYDcKIMWMAJq9frX885X6UEAADPI+ccl8zNzT0qBXCiDFjASanX67dFxKeUAADg2aW3tdvtT+sAnAwDFnByT0dSyjnnSyLCb9QAAPhl+wYGBq6WAThZBizgpDUajcci4uKIyGoAAPBTR1KqbJyamjosBXCyDFjAiqjX63dFxDuVAAAgIiKl3Gi1Wl9RAlgJBixgxczPz49GxNeUAADod+mzrdbM7ToAK8WABayYZrN5OKW0NSKOqgEA0LceHxgYuCh8vASwggxYwIqq1Wpfzjm/UQkAgH6VLp2amvqhDsBKMmABK25hYWFnRNytBABAv8nvKIriEzoAK82ABay4ZrNZViqVrRHxpBoAAP0ifePQoSMNHYDVYMACVsXY2NgPIuKVSgAA9IXFsiwv3Lt379NSAKvBgAWsmnq9/pcR8V4lAAB6W87x+pmZmXuVAFaLAQtY5Scz+dUR8R0lAAB69fleTJ955plvUwJYTQYsYFU1Go2FiNgUEYtqAAD0nAMppS2Tk5PLUgCryYAFrLp6vX5vSunNSgAA9Jac41VFUTyoBLDaDFjAmjh48OCbcs5fVAIAoGf8Sbvd/ogMwFowYAFrotlslhFxcUQ8pQYAQNf7bs4xKgOwVgxYwJppNBoPpJReowQAQFdbyjk2tdvtg1IAa8WABaypWq32/oj4cyUAALpVuq7dbt+jA7CWDFjAmqtWq1dExPeVAADoOu0zzjjjJhmAtWbAAtbc6OjogbIst0SEyy0DAHSN9OOBgeXNk5OTnsMBa86ABayL8fHxVkTsVAIAoDvknLdPTd3zPSWA9WDAAtbN/Pz8NRExpwQAQMebbLfbH5IBWC8GLGDdNJvNpUqlsjkiXMEGAKBzPRSRtskArCcDFrCuxsbG7o+IuhIAAB2pjEhbi6LYLwWwngxYwLqr1+vviohJJQAAOk2+sSiKKR2A9WbAAjrFFRHxiAwAAB1j76FDR66XAegEBiygI9Tr9Sci4sKIyGoAAKy7hYi0ce/evYtSAJ3AgAV0jHq9/vmU0q1KAACstzRSFMW3dQA6hQEL6CiDg4NXRcR9SgAArJv/VBTFn8oAdBIDFtBRRkZGjkTExog4pAYAwJr7wdGji6+UAeg0Biyg49Tr9a9HxOuUAABYU2VK5YV79uz5kRRApzFgAR2pVqvtjohPKQEAsDZyjl2t1ux/VgLoRAYsoCOllHLO+ZKIeFQNAIBV97XBwcE3ygB0KgMW0LEajcZjEXFxRGQ1AABWzeFKpdw4NTV1WAqgUxmwgI5Wr9fvioh3KgEAsFpSbXp69qs6AJ3MgAV0vPn5+VpEfFMJAIAV95miKO6QAeh0Biyg4zWbzafLstwUEUfVAABYMY8NDAz6uAagKxiwgK4wPj7+pZyzDxYFAFgZOSJdOjU19UMpgG5gwAK6xsLCws6IuFsJAICTk3PcXhTFJ5UAuoUBC+gazWazrFQqWyPiSTUAAE7Y18uy3CED0E0MWEBXGRsb+0FEvFIJAIATciQibZydnT0kBdBNDFhA16nX638ZEe9TAgDg+KQUryuK4j4lgG5jwAK60oYNG14dEd9RAgDgmH2+1Wq/XQagGxmwgK60ffv2+YjYFBGLagAAvKD9lUr10ojIUgDdyIAFdK16vX5vSunNSgAAvJC0bXp6+iEdgG5lwAK62sGDB9+Uc/6iEgAAzyW/qyiKSR2AbmbAArpas9ksI+LiiHhKDQCAZ/jbnFNdBqDbGbCArtdoNB5IKb1GCQCAX7AUkTa12+2DUgDdzoAF9IRarfb+iPhzJQAAfiLneGNRFHNKAL3AgAX0jGq1ekVEfF8JAIBonXnmmTfLAPQKAxbQM0ZHRw+UZbklIpbVAAD62IGyzFsmJyc9JwJ6hgEL6Cnj4+OtiNipBADQv9IVMzMzXpUO9BQDFtBz5ufnr4kIn/cAAPSj9xdF4XNBgZ5jwAJ6TrPZXKpUKpsjYl4NAKCPPLC4uOTKzEBPMmABPWlsbOz+lFJdCQCgT5QpVS6em5t7SgqgFxmwgJ5Vq9XeGRGTSgAAvS+9qdVqfVEHoFcZsIBed0VEPCIDANCrUop7Dx069GYlgF5mwAJ6Wr1efyIiLoyIrAYA0IPmU6pu2rt376IUQC8zYAE9r16vfz6ldKsSAECvyTlePT09/R0lgF5nwAL6wuDg4FURcZ8SAECvyDk+2m6336cE0A8MWEBfGBkZOVKpVDZFxCE1AIAe8IOyLC+TAegXBiygb4yNje2LiNcpAQB0ubJSyVtnZ2eflALoFwYsoK/UarXdEfEpJQCALnbz9PTM3TIA/cSABfSVlFLOOV8SEY+qAQB0n/yl/fsPXKsD0G8MWEDfaTQaj0XExRGR1QAAusjTy8t50759+45KAfQbAxbQl+r1+l0553cpAQB0i5xjbHZ29ptKAP3IgAX0rYWFhbGI8CQQAOgGd7Xbbb98A/qWAQvoW81m8+myLDdFhJfhAwCd7LHFxSUffwD0NQMW0NfGx8e/lHN+oxIAQIfKOcfFc3NzLkAD9DUDFtD3FhYWdkaES1EDAB0npbi13W5/Wgmg3xmwgL7XbDbLSqWyNSKeVAMA6CD7lpbK18sAYMACiIiIsbGxH0TEK5UAADrEkZQqG2dnZw9JAWDAAvh79Xr9LyPifUoAAOsvj7dara/oAPATBiyAn7Nhw4ZXR8R3lAAA1ktK8bmimLlNCYCfMWAB/Jzt27fPR8SmiFhUAwBYB09EVC6KiCwFwM8YsAB+Sb1evzfnfKMSAMBayzkubbVajygB8IsMWADPYmFh4YaImFECAFg76Y52u/1xHQCeyYAF8CyazeZSznlzRDylBgCw2lKK+wcGBsaVAHh2BiyA59BoNB6IiBElAIBVthhRbpqampqXAuDZGbAAnke9Xn9fRPy5EgDAakkpv6HVmt2jBMBzM2ABvIBqtXpFRHxfCQBgpeUc06ef/uu7lAB4fgYsgBcwOjp6oCzLLRGxrAYAsIIOpJS2TE5Oeo4B8AIMWADHYHx8vBURO5UAAFZKzvGqoigeVALghRmwAI7R/Pz8NRHh8ykAgBWQ3tNutz+iA8CxMWABHKNms7lUqVQ2RYQrBAEAJ+O7i4uLV8oAcOwMWADHYWxs7P6UUl0JAOAELZVl3jw3N/eUFADHzoAFcJxqtdo7I+JOJQCA45VzXD8zMzOrBMDxMWABnJjLI+IRGQCA49A+88wzb5QB4PgZsABOQL1efyIiLoyIrAYAcAzml5fLiyYnJ5elADh+BiyAE1Sv1z8fEbuVAABeSEr58tnZ2fuVADgxBiyAkzA0NLQjIu5TAgB4bunOVmvmgzoAnDgDFsBJGBkZOVKpVDZFxCE1AIBnSg9HxGU6AJwcAxbASRobG9sXEa9TAgD4JWXOeWtRFPulADg5BiyAFVCr1XZHxKeUAAB+Jt3Ubre/oAPAyTNgAazE09OUcs75koh4VA0AICL27t+//3oZAFaGAQtghTQajcci4uKIyGoAQF9byDk27du376gUACvDgAWwgur1+l0553cpAQD9K6W4st1uf0sJgJVjwAJYYQsLC2MR8U0lAKAf5Y+1Wu136wCwsgxYACus2Ww+XZblpojwtgEA6C9/d/To0itkAFh5BiyAVTA+Pv6liLhWCQDoGznneMWePXt+JAXAyjNgAayS+fn5myPibiUAoB/kW9rt9l06AKwOAxbAKmk2m2WlUtkaEU+qAQA97WsDA0NvkAFg9RiwAFbR2NjYD1JKlykBAD3rcKVSbpyamjosBcDqMWABrLJarfbRiHifEgDQi1J9enr2qzoArC4DFsAa2LBhw6sj4jtKAEAvSZ8tiuIdOgCsPgMWwBrYvn37fERsiohFNQCgJzw+MDBwUURkKQBWnwELYI3U6/V7c843KgEAXS9HpEunpqZ+KAXA2jBgAayhhYWFGyJiVgkA6F4pxR8VRfEJJQDWjgELYA01m82lnPOmiHhKDQDoSl9fWirHZQBYWwYsgDXWaDQeiIgRJQCg6xwpy7xpdnb2kBQAa8uABbAO6vX6+yLiw0oAQDdJV8/MzPyNDgBrz4AFsE6q1erlEfF9JQCgG+QvFkXxNh0A1ocBC2CdjI6OHijLcktELKsBAB1tf6UysCUiSikA1ocBC2AdjY+Pt1JKE0oAQOfKOV41PT39kBIA68eABbDOTj311GsiYo8SANB5co53t9vtv1ACYH0ZsADW2bZt2xYrlcqmiJhXAwA6yt9GxJgMAOvPgAXQAcbGxu5PKdWVAICOsRSRNrXb7YNSAKw/AxZAh6jVau+MiDuVAID1l1JcWxTFnBIAncGABdBZLo+IR2QAgHVVnH76mW+VAaBzGLAAOki9Xn8iIi6MiKwGAKyH9OOBgeUtk5OTy1oAdA4DFkCHqdfrn4+I3UoAwLq4Ymrqnu/JANBZDFgAHWhoaGhHRNynBACspfyBoij+TAeAzmPAAuhAIyMjRyqVyqaIOKQGAKyJhyIqr5UBoDMZsAA61NjY2L6c8+uVAIBVV6ZU2VIUxX4pADqTAQugg9Xr9Vsj4lNKAMDqyTluaLVaX1QCoHMZsAA6WEop55wviYhH1QCAVfHXhw8fvkEGgM5mwALocI1G47GIuDgishoAsKIWItKmvXv3LkoB0NkMWABdoF6v35VzfpcSALCS8muKovi2DgCdz4AF0CUWFhbGIuKbSgDAivjLoph5jwwA3cGABdAlms3m02VZboqIo2oAwEn5wdGji5fJANA9DFgAXWR8fPxLEXGtEgBwwspKJW/ds2fPj6QA6B4GLIAuMz8/f3NE3K0EAJyINDE9PeNxFKDLGLAAukyz2SyXl5cvjIgn1QCAY5dzfHn//v3XKAHQfQxYAF1ox44dD6eUfHYHABy7wznnrfv27fNZkgBdyIAF0KVqtdpHc87vVwIAXljOMTozM/M1JQC6kwELoIudcsop2yPiO0oAwPO6q91uv1MGgO5lwALoYtu3b5+PiE0RsagGADyrxxYXly6OiCwFQPcyYAF0uXq9fm/O+UYlAOAZckr5krm5uUelAOhuBiyAHrCwsHBDRMwqAQA/L+9utWY+pQNA9zNgAfSAZrO5lHPeFBFPqQEAERHx9eXl/DoZAHqDAQugRzQajQciYkQJAIgjEWnj7OzsISkAeoMBC6CH1Ov190XEh5UAoJ/lHFcVRXGfEgC9w4AF0GOq1erlEfF9JQDoU59vt9u3ygDQWwxYAD1mdHT0QFmWWyJiWQ0A+swTKVUujIgsBUBvMWAB9KDx8fFWSmlCCQD6SUr58lar9YgSAL3HgAXQo0499dRrImKPEgD0iXe2WjN3ygDQmwxYAD1q27Zti5VKZVNEzKsBQC9LKe4fGBisKwHQuwxYAD1sbGzs/ohoKAFAD1uMKDdNTU35hQ1ADzNgAfS4er3+H1NKf6UEAL0pXdNqzXrLPECPM2AB9IGc8ysiwofaAtBrWmeccYaLlgD0AQMWQB+o1+tPlGV5UbisOAC940BZ5i2Tk5PLUgD0PgMWQJ8YHx//XETsVgKAXpBSvnxmZub7SgD0BwMWQB8ZGhraERFfUQKAbpZzvLfVmvmwEgD9w4AF0EdGRkaOVCqVjRFxSA0AutQDS0tLr5UBoL8YsAD6zNjY2L6c8+uVAKALLZVl3jQ3N/eUFAD9xYAF0Ifq9fqtOedPKwFAd8k3zMzMzOoA0H8MWAB9KKWUI+LiiHhUDQC647Er7j106MiNSgD0JwMWQJ9qNBqPxU9GrKwGAB1uPqXqpr179y5KAdCfDFgAfaxer98VEX+sBACdLV0xPT39HR0A+pcBC6DPzc/Pj0bEN5UAoBPlHB8tiuIDSgD0NwMWQJ9rNptPl2W5KSKOqgFAZ0kPl2V5mQ4AGLAAiPHx8S9FxLVKANBBypzz1tnZ2SelAMCABUBERMzPz98cEXcrAUAnSCne2m63v6AEABEGLAB+qtlslsvLyxdGhN90A7DO8peefPJAUwcA/gsDFgB/b8eOHQ+nlHzWCADraSHntHHfvn0+mxGAv2fAAuAX1Gq1j+ac368EAOshpTzabre/pQQAP8+ABcAznHLKKdsj4jtKALC28sdarZk/1gGAX2bAAuAZtm/fPh8RmyJiUQ0A1sijZRnbZADg2RiwAHhW9Xr93pzzjUoAsAZyznHJzMzMY1IA8GwMWAA8p4WFhRsiYlYJAFZXelu73f60DgA8FwMWAM+p2Wwu5Zw3RcRTagCwSvYNDAxcLQMAz8eABcDzajQaD6SUXqsEAKvgSEqVjVNTU4elAOD5GLAAeEG1Wu29EfFhJQBYSSnlRqvV+ooSALwQAxYAx6RarV6eUnpQCQBWRvpsqzVzuw4AHAsDFgDHZHR09MDy8vLmiFhWA4CT9PjAwMBFEZGlAOBYGLAAOGbj4+OtlNKEEgCchByRLp2amvqhFAAcKwMWAMfl1FNPvSYi9igBwInJdxRF8QkdADgeBiwAjsu2bdsWK5XKpoiYVwOA45O+cejQkYYOABwvAxYAx21sbOz+iHACAsDxWCzL8sK9e/c+LQUAx8uABcAJqdfr/zEiPq4EAMci53j9zMzMvUoAcCIMWACcjEsj4hEZAHg+Ocd0u92+RQkATpQBC4ATVq/XnyjL8qJwGXQAntuBlNKWiCilAOBEGbAAOCnj4+OfSyndpgQAzybneFVRFA8qAcDJMGABcNIGBwfHI+IrSgDwS/6k3W5/RAYATpYBC4CTNjIycqRSqWyMiENqAPBT3805RmUAYCUYsABYEWNjY/tyzq9XAoCIWMo5NrXb7YNSALASDFgArJh6vX5rzvnTSgD0u3Rdu92+RwcAVooBC4CVO11JKUfExRHxqBoAfat9xhln3CQDACvJgAXAimo0Go/lnLcpAdCP0o8HBpY3T05OLmsBwEoyYAGw4hqNxl9FxLuUAOg7V0xN3fM9GQBYaQYsAFbF/Pz8aER8UwmAvjFZFMWfyQDAajBgAbAqms3m02VZboqIo2oA9LyHIpK3jwOwagxYAKya8fHxL+Wcm0oA9LQyIm0timK/FACsFgMWAKtqYWHhrRFxtxIAvSrfWBTFlA4ArCYDFgCrqtlslsvLyxdGxJNqAPScvYcOHbleBgBWmwELgFW3Y8eOh1NKlykB0FMWItLGvXv3LkoBwGozYAGwJmq12kdzzu9XAqBXpJGiKL6tAwBrwYAFwJo55ZRTtkfEd5QA6Hr/qSiKP5UBgLViwAJgzWzfvn0+IjZFhLebAHSvHxw9uvhKGQBYSwYsANZUvV6/N+d8oxIAXalMqbxwz549P5ICgLVkwAJgzS0sLNwQEbNKAHSXnGNXqzX7n5UAYK0ZsABYc81mc6larW6OiKfUAOgaXxscHHyjDACsBwMWAOtidHT0uyml1yoB0BUOVyrlxqmpqcNSALAeDFgArJtarfbeiPiwEgCdLtWmp2e/qgMA68WABcC6qlarl6eUHlQCoGN9piiKO2QAYD0ZsABYV6OjoweWl5c3R8SyGgAd57GBgcGLIyJLAcB6MmABsO7Gx8dbEbFLCYCOkiPSpVNTUz+UAoD1ZsACoCOcdtppb4iIPUoAdIac4/aiKD6pBACdwIAFQEfYtm3bYqVS2RQR82oArLuvl2W5QwYAOoUBC4COMTY2dn9ENJQAWFdHItLG2dnZQ1IA0CkMWAB0lHq9/h8j4uNKAKyPlOJ1RVHcpwQAncSABUAnujQiHpEBYM19vtVqv10GADqNAQuAjlOv158oy/KicNl2gLW0v1KpXurvXgA6kQELgI40Pj7+uZTSbUoArJW0bXp6+iEdAOhEBiwAOtbg4OB4RHxFCYDVlt9VFMWkDgB0KgMWAB1rZGTkSKVS2RgRroQFsEpSivtzTnUlAOhkBiwAOtrY2Ni+iLhaCYBVsZRz2txutw9KAUAnM2AB0PFqtdrbc86fVgJgZeUcbyyKYk4JADqdAQuAjpdSyhFxcUQ8qgbAimmdeeaZN8sAQDcwYAHQFRqNxmM5521KAKyIA2WZt0xOTi5LAUA3MGAB0DUajcZfRcS7lAA4WemKmZmZ7+sAQLcwYAHQVebn50cj4ltKAJyw9xdF8ecyANBNDFgAdJVms/l0WZYbI+KoGgDH7YHFxaXXyABAtzFgAdB1xsfHv5RzbioBcFzKlCoXz83NPSUFAN3GgAVAV1pYWHhrRHxBCYBjld7UarW+qAMA3ciABUBXajab5fLy8taIeFINgOeXUtx76NChNysBQLcyYAHQtXbs2PFwSukyJQCe13xK1U179+5dlAKAbmXAAqCr1Wq1j0bEB5QAeHY5x6unp6e/owQA3cyABUDX27BhwxUR4eQM4JfkHB9tt9vvUwKAbmfAAqDrbd++fT6ldFFELKkB8Pd+UJalt1kD0BMMWAD0hFqtNhMRNyoBEBERZaWSt87OzrrQBQA9wYAFQM+Yn59/U0TMKgEQN09Pz9wtAwC9woAFQM9oNptL1Wp1c0Q8pQbQv/KX9u8/cK0OAPQSAxYAPWV0dPS7KaXXKgH0qaeXl/Omffv2HZUCgF5iwAKg59RqtfdGxIeVAPpNzjE2Ozv7TSUA6DUGLAB6UrVavTyl9KASQB+5q91uv0sGAHqRAQuAnjQ6OnpgeXl5c0QsqwH0gccWF5cujogsBQC9yIAFQM8aHx9vRcQuJYAel3OOi+fm5h6VAoBeZcACoKeddtppb4iIPUoAvSqluLXdbn9aCQB6mQELgJ62bdu2xUqlsiki5tUAetC+paXy9TIA0OsMWAD0vLGxsftTSuNKAD3mSEqVjbOzs4ekAKDXGbAA6Au1Wu2OiPi4EkDvyOOtVusrOgDQDwxYAPSTSyPiERmAbpdSfK4oZm5TAoB+YcACoG/U6/UnyrK8KFxmHuhuT0RU/F0GQF8xYAHQV8bHxz+XUvKqBaBr5RyXtlotryYFoK8YsADoO4ODg+MR4XNjgC6U7mi32z7PD4C+Y8ACoO+MjIwcqVQqGyPClbuArpFS3D8wMOCKqgD0JQMWAH1pbGxsX0RcrQTQJRaXl/PGqampeSkA6EcGLAD6Vq1We3vO+dNKAJ0upfyGmZmZe5UAoF8ZsADo4xPClAcHBy+JiEfVADpVzjF9+um/vksJAPqZAQuAvnbllVc+mnPepgTQoQ6klLZMTk4uSwFAPzNgAdD3Go3GX6WU/lgJoNPkHK8qiuJBJQDodwYsAIiIsixHI+JbSgCdI72n3W5/RAcAMGABQERENBqNhbIsN0bEUTWADvDdxcXFK2UAgJ8wYAHAT42Pj38p59xUAlhnS2WZN8/NzT0lBQD8hAELAH7OwsLCWyPiC0oA6yXnuH5mZmZWCQD4GQMWAPycZrNZLi8vb42IJ9UA1kH7zDPPvFEGAPhFBiwA+CU7dux4OKV0mRLAGptfXi4vmpycXJYCAH6RAQsAnkWtVvtoRHxACWCtpJQvn52dvV8JAHgmAxYAPIcNGzZcERHfUQJYfenOVmvmgzoAwLMzYAHAc9i+fft8SumiiPB2HmAVpYcjwtuWAeB5GLAA4HnUarWZiHizEsAqKXPOW4ui2C8FADw3AxYAvID5+fk3RYRL2gOrIN3Ubre/oAMAPD8DFgC8gGazuVStVjdHxFNqACto7/79+6+XAQBemAELAI7B6Ojod3POVyoBrJCFnGPTvn37jkoBAC/MgAUAx6jRaLwnIj6sBHCyco7XttvtbykBAMfGgAUAx6FarV6eUnpQCeDE5Y+12+0/0QEAjp0BCwCOw+jo6IGc85aIWFYDOAF/d/To0itkAIDjY8ACgONUr9enI2KXEsBxyjnHK/bs2fMjKQDg+BiwAOAEnHbaaW+IiHuVAI5dvqXdbt+lAwAcPwMWAJyAbdu2LVYqlY0RMa8GcAy+NjAw9AYZAODEGLAA4ASNjY3dn1IaVwJ4AYcrlXLj1NTUYSkA4MQYsADgJNRqtTsi4uNKAM8t1aenZ7+qAwCcOAMWAJykoaGhV0TEI0oAz+IzRVG8QwYAODkGLAA4SSMjI4+XZXlRRGQ1gJ/z+MDA4MX+bgCAk2fAAoAVMD4+/rmIuF0J4KdyRLp0amrqh1IAwMkzYAHAChkaGmpExFeUAFKKPyqK4hNKAMDKMGABwAoZGRk5UqlUNkbEITWgr319aal0hVIAWEEGLABYQWNjY/si4moloG8dKcu8aXZ21pANACvIgAUAK6xWq7095/xpJaAfpatnZmb+RgcAWFkGLABY6dPXlPLg4OAlEfGoGtBP8heLonibDgCw8gxYALAKrrzyykdzztuUgL6xv1IZ2BIRpRQAsPIMWACwShqNxl+llP5YCeh9OcerpqenH1ICAFaHAQsAVlFZlqMR8S0loHflHO9ut9t/oQQArB4DFgCsokajsVCW5caIOKoG9KS/jYgxGQBgdRmwAGCVjY+PfykirlMCes5SRNrUbrcPSgEAq8uABQBrYH5+/i0R8QUloHekFNcWRTGnBACsPgMWAKyBZrNZLi8vb42IJ9WAnlCcfvqZb5UBANaGAQsA1siOHTsejohtSkC3Sz8eGFjeMjk5uawFAKwNAxYArKF6vX5nRHxACehqV0xN3fM9GQBg7RiwAGCNbdiw4YqIuF8J6Eb5A0VR/JkOALC2DFgAsMa2b98+X5blRRHh7UfQXR6KqLxWBgBYewYsAFgH4+Pj7Yh4sxLQNcqUKluKotgvBQCsPQMWAKyT+fn5N0XErBLQ+XKOG1qt1heVAID1YcACgHXSbDaXqtXq5oh4Sg3oaH99+PDhG2QAgPVjwAKAdTQ6OvrdnPOVSkDHWohIm/bu3bsoBQCsHwMWAKyzRqPxnoj4iBLQeVLKry6K4ttKAMD6MmABQAeoVquvSik9qAR0lL9stWbeKwMArD8DFgB0gNHR0QM55y0RsawGdIQfHD26eJkMANAZDFgA0CHq9fp0RNyiBKy7slLJW/fs2fMjKQCgMxiwAKCDnHbaaVdHxL1KwHpKE9PTM3frAACdw4AFAB1k27Zti9Vq9cKU0tNqwNrLOb68f//+a5QAgM5iwAKADjM6OvqNiKgrAWvucM556759+45KAQCdxYAFAB2oVqvdEREfVwLWTs4xOjMz8zUlAKDzGLAAoEMNDQ29IiIeUQLWxF3tdvudMgBAZzJgAUCHGhkZebwsy4siIqsBq+qxxcWli93XAKBzGbAAoIONj49/LiJuVwJWTU4pXzI3N/eoFADQuQxYANDhhoaGGhHxFSVgNeTdrdbMp3QAgM5mwAKADjcyMnKkUqlsjIjDasCK+vrycn6dDADQ+QxYANAFxsbG9qWUrlYCVsyRiLRxdnb2kBQA0PkMWADQJcbGxt6Wc/60EnDyco6riqK4TwkA6A4GLADoEimlPDg4eElEPKYGnJTPt9vtW2UAgO5hwAKALnLllVc+GhHblIAT9kRKlQsjIksBAN3DgAUAXaZer38spfTHSsDxSylf3mq1HlECALqLAQsAulBZlqMR8S0l4Li8s9WauVMGAOg+BiwA6EKNRmMhIjZFxFE14IWlFPcPDAzWlQCA7mTAAoAuVa/X90bEdUrAC1qMKDdNTU3NSwEA3cmABQBdbH5+/i0R8QUl4Pmka1qt2T06AED3MmABQBdrNpvl8vLy1oh4Ug14Vq0zzjhjQgYA6G4GLADocjt27Hg4IrYpAc9woCzzlsnJyWUpAKC7GbAAoAfU6/U7c84fVAJ+JqV8+czMzPeVAIDuZ8ACgB5xyimnXB4R9ysBETnHe1utmQ8rAQC9wYAFAD1i+/bt82VZXhQR3i5Fv/vu0tLSa2UAgN5hwAKAHjI+Pt7OOd+oBH1sqSzz5rm5uaekAIDeYcACgB6zsLBwfUTMKkF/yjfMzMz4+QeAHmPAAoAe02w2l6rV6uaI8AoU+kpKce+hQ0e8AhEAepABCwB60Ojo6HdzzlcqQR+ZT6m6ae/evYtSAEDvMWABQI9qNBrviYiPKEF/SFdMT09/RwcA6E0GLADoYdVq9VUppQeVoJflHB8tiuIDSgBA7zJgAUAPGx0dPZBz3hIRy2rQm9LDZVlepgMA9DYDFgD0uHq9Ph0RtyhBDypzzltnZ2eflAIAepsBCwD6wGmnnXZ1RNyrBL0k53hLu93+ghIA0PsMWADQB7Zt27ZYrVYvTCk9rQa9IX/pwIED1+kAAP3BgAUAfWJ0dPQbOeeGEvSAhZzTxn379h2VAgD6gwELAPpIvV5/R0R8XAm6WUp5tN1uf0sJAOgfBiwA6DNDQ0OviIgfKkF3yh9rtWb+WAcA6C8GLADoMyMjI49HxEURkdWgyzxalrFNBgDoPwYsAOhD9Xr9sxFxuxJ0kZxzXDIzM/OYFADQfwxYANCnhoaGGhHxFSXoDult7Xb70zoAQH8yYAFAnxoZGTlSqVQ2RsRhNehw+wYGBq6WAQD6lwELAPrY2NjYvpSSYYBOdjilysapqSlDKwD0MQMWAPS5sbGxt0XEXUrQiXKORqvV8lZXAOhzBiwA6HMppby8vPyKiHhCDTrsp/Oz7Xb7j3QAAAxYAEDs2LHj7yLilUrQQR4fGBi4KCKyFACAAQsAiIiIer3+sYh4txJ0gByRLp2amvqhFABAhAELAPg5OecrI+JbSrDOP4l3FEXxCR0AgP/CgAUA/L1Go7EQEZsi4qgarI/0jUOHjjR0AAB+ngELAPgF9Xp9b0RcpwTrYLEsywv37t37tBQAwM8zYAEAzzA/P/+WiPiCEqylnOP1MzMz9yoBAPwyAxYA8AzNZrNcXl7eGhFPqsFayDmm2+32LUoAAM/GgAUAPKsdO3Y8HBHblGANHEgpbYmIUgoA4NkYsACA51Sv1+/MOX9QCVZTzvGqoigeVAIAeC4GLADgeZ1yyimXR8T9SrBK/qTdbn9EBgDg+RiwAIDntX379vmyLC+KiGU1WGF/m3OMygAAvBADFgDwgsbHx9s55xuVYAUt5Ryb2+32QSkAgBdiwAIAjsnCwsL1ETGrBCsjXddut+/RAQA4FgYsAOCYNJvNpWq1ujkivGKGk9U+44wzbpIBADhWBiwA4JiNjo5+N6V0pRKcuPTjgYHlzZOTkz5TDQA4ZgYsAOC41Gq1P40IV43jRF0xNXXP92QAAI6HAQsAOG7VavVVKaUHleA4TRZF8WcyAADHy4AFABy30dHRAznnLRHhbWAcq4ci0jYZAIATYcACAE5IvV6fjohblOAYlBFpa1EU+6UAAE6EAQsAOGGnnXba1RFxrxI8n5TizUVRTCkBAJwoAxYAcMK2bdu2WK1WL0wpPa0Gz2Hv008ffpMMAMDJMGABACdldHT0GznnhhI8i4WItHHv3r2LUgAAJ8OABQCctHq9/o6I+IQS/KI0UhTFt3UAAE6WAQsAWBFDQ0OXRsQPleCn/lNRFH8qAwCwEgxYAMCKGBkZeTwiLoqIrEbf+8HRo4uvlAEAWCkGLABgxdTr9c+mlP5Iib5WplReuGfPnh9JAQCsFAMWALCiDh482IiIryjRn3KOXa3W7H9WAgBYSQYsAGBFNZvNw5VKZWNEHFaj73xtcHDwjTIAACvNgAUArLixsbF9KaWrlegrhyuVcuPU1JThEgBYcQYsAGBVjI2NvS0i7lKiP6SUx6anZ7+qBACwGgxYAMCqSCnl5eXlV0TEE2r0vM+0WjP/UQYAYLUYsACAVbNjx46/i4hXKtHTHhsYGLw4IrIUAMBqMWABAKuqXq9/LCLerURPyhHp0qmpqR9KAQCsJgMWALDqcs5XRsS3lOi14xq3F0XxSSUAgNVmwAIAVl2j0ViIiE0RcVSNnvH1six3yAAArAUDFgCwJur1+t6U0vVK9IQjEWnj7OzsISkAgLVgwAIA1szBgwdviogvKNHdUorXFUVxnxIAwFoxYAEAa6bZbJbLy8tbI2K/Gl3r861W++0yAABryYAFAKypHTt2PBwRlynRlfZXKtVLIyJLAQCsJQMWALDm6vX6nTnnDyrRbdK26enph3QAANaaAQsAWBfLy8uvjojvKdEt8ruKopjUAQBYDwYsAGBdXHXVVT8uy3JzRCyr0dlSivtzTnUlAID1YsACANbN+Ph4O+d8oxIdbSnntLndbh+UAgBYLwYsAGBdLSwsXB8R9yjRmXKONxZFMacEALCeDFgAwLpqNptL1Wp1U0R4hU/naZ155pk3ywAArDcDFgCw7kZHR7+bUrpSiY5yoCzzlsnJSZ9RBgCsOwMWANARarXan0bER5ToFOmKmZmZ7+sAAHQCAxYA0DGq1eqrUkoPKrHu3l8UxZ/LAAB0CgMWANAxRkdHD+Sct0SEt62tnwcWF5deIwMA0EkMWABAR6nX69M557cpsS7KlCoXz83NPSUFANBJDFgAQMd5yUte8vqIuFeJtZbe1Gq1vqgDANBpDFgAQMfZtm3bYrVavTCl9LQaayOluPfQoUNvVgIA6EQGLACgI42Ojn4j59xQYk3Mp1TdtHfv3kUpAIBOZMACADpWrVa7IyI+ocTqyjlePT09/R0lAIBOZcACADpWSikPDQ1dGhE/VGN15Bwfbbfb71MCAOhkBiwAoKONjIw8HhEXRURWY6Wlh8uyvEwHAKDTGbAAgI5Xr9c/m1L6IyVWVFmplBfOzs4+KQUA0OkMWABAVzh48GAjIr6ixIq5eXp65m4ZAIBuYMACALpCs9k8XKlUNkbEYTVOVv7S/v0HrtUBAOgWBiwAoGuMjY3ti4g3KHFSnl5ezpv27dt3VAoAoFsYsACArlKr1W6JiLuUOFFpdHZ29ps6AADdxIAFAHSVlFJeXl5+RUT8SI3jk3P8VVEU71ICAOg2BiwAoOvs2LHj7yLiFUocl8eWlpa2yQAAdCMDFgDQler1+sci4t1KHJOcc1w8Nzf3qBQAQDcyYAEAXSvnfGVEfEuJ55dS3Nputz+tBADQrQxYAEDXajQaCxGxKSJcUe+57VtaKl8vAwDQzQxYAEBXq9fre1NK1yvxrI6kVNk4Ozt7SAoAoJsZsACArnfw4MGbImJKiV+Wx1ut1ld0AAC6nQELAOh6zWazXF5e3hIR+9X4iZTic0Uxc5sSAEAvMGABAD1hx44dD0fEZUpERMQTEZWLIiJLAQD0AgMWANAz6vX6nRHxoX7vkHNc2mq1HvETAQD0CgMWANBTlpaWtkfE9/q3QLqj3W5/3E8CANBLDFgAQE+56qqrflyW5eaIWO6/7z5949ChQ3U/BQBArzFgAQA9Z3x8vB0RN/XZt71YluWFe/fufdpPAADQawxYAEBPmp+fvy4i7umX7zel/IaZmZl7HXkAoBcZsACAntRsNpeq1eqmiDjY699rzjF9+um/vstRBwB6lQELAOhZo6Oj300pXdnj3+aBlNKWycnJZUccAOhVBiwAoKfVarU/jYiP9Or3l3O8qiiKBx1pAKCXGbAAgJ5XrVZflVLqwZEnvafdbn/EEQYAep0BCwDoeaOjowdyzlsiouyhb+u7i4uLVzq6AEA/MGABAH2hXq9P55xv6ZFvZ6ks8+a5ubmnHFkAoB8YsACAvvGSl7zk9RFxb7d/HznH9TMzM7OOKADQLwxYAEDf2LZt22K1Wr0wpfR0F38b7TPPPPNGRxMA6CcGLACgr4yOjn4jIsa789anH1cq1S2Tk5PLjiQA0E8MWABA3xkbG3tHRHyi2253SuWrp6enH3AEAYB+Y8ACAPpOSikPDQ1dGhE/7KJbfWerNfNBRw8A6EcGLACgL42MjDweERdFRO78W5sejojLHDUAoF8ZsACAvlWv1z+bUvqjDr+ZZURsKYpivyMGAPQrAxYA0NcOHjzYiIivdu4tTDcVRTHlSAEA/cyABQD0tWazeTjnvDEiDnfgzdu7f//+6x0lAKDfGbAAgL7XaDS+FhFv6LCbtZBzbNq3b99RRwgA6HcGLACAiKjVardExF2dcntyjte22+1vOTIAAAYsAICIiEgp5eXl5VdExI/W/9bkj7Xb7T9xVAAAfsKABQDwUzt27Pi7iHjFOt+Mvzt6dOkVjgYAwM8YsAAAfk69Xv9YSmm9Xv1URqQL9+zZ8yNHAgDgZwxYAAC/pCzL10bEmn/+VEpxS1EU/6cjAADwiwxYAAC/pNFoLETEpohYyysAfq1aHbxGfQCAZzJgAQA8i3q9vjeldP0a/XGHK5Vy49TU1GHlAQCeyYAFAPAcDh48eFNETK3+n5Tq09OzX1UcAODZGbAAAJ5Ds9ksl5eXt0TE/lX8Yz5TFMU71AYAeG4GLACA57Fjx46HI+KyVfryjw8MDF4cEVlpAIDnZsACAHgB9Xr9zoj40Ap/2RyRLp2amvqhwgAAz8+ABQBwDJaWlrZHxPdW6uulFH9UFMUnlAUAeGEGLACAY3DVVVf9uCzLzRGxvAJf7utLS+W4qgAAx8aABQBwjMbHx9sRcdNJfpkjZZk3zc7OHlIUAODYGLAAAI7D/Pz8dRFxz4l/hfz6mZmZv1ESAODYGbAAAI5Ds9lcqlarmyLi4An87/9nUcy8XUUAgONjwAIAOE6jo6PfzTmPHuf/tr9SqV4SEaWCAADHx4AFAHACGo3Gn0TER471v885XjU9Pf2QcgAAx8+ABQBwgqrV6qtSSg++0H+Xc7y73W7/hWIAACfGgAUAcIJGR0cP5Jy3xPO/LfBvI2JMLQCAE2fAAgA4CfV6fTrnfMtz/OuliLSp3W4fVAoA4MQZsAAATtKLXvSiN0TEl3/5n6cU1xZFMacQAMDJMWABAJykkZGRI9VqdVNEHPq5f1ycfvqZb1UHAODkGbAAAFbA6OjoN1JKjUql8nRE+nFZ5s2Tk5PLygAAAADQMXLOqV6vf354eHijGgAAAAB0pEsuueQ0FQAAVtb/H0b0AEGsFMvlAAAAJXRFWHRkYXRlOmNyZWF0ZQAyMDI0LTA3LTIwVDA5OjE3OjE1KzAwOjAw9GoPFgAAACV0RVh0ZGF0ZTptb2RpZnkAMjAyNC0wNy0yMFQwOToxNzoxNSswMDowMIU3t6oAAAAASUVORK5CYII=;" vertex="1" parent="1">
          <mxGeometry x="130" y="594" width="52.18" height="85" as="geometry" />
        </mxCell>
        <mxCell id="XdNitLlG15K0FlTrxvzR-5" value="" style="outlineConnect=0;dashed=0;verticalLabelPosition=bottom;verticalAlign=top;align=center;html=1;shape=mxgraph.aws3.ec2;fillColor=#F58534;gradientColor=none;" vertex="1" parent="1">
          <mxGeometry x="403.66" y="590" width="76.5" height="93" as="geometry" />
        </mxCell>
        <mxCell id="XdNitLlG15K0FlTrxvzR-6" value="" style="aspect=fixed;sketch=0;html=1;dashed=0;whitespace=wrap;verticalLabelPosition=bottom;verticalAlign=top;fillColor=#2875E2;strokeColor=#ffffff;points=[[0.005,0.63,0],[0.1,0.2,0],[0.9,0.2,0],[0.5,0,0],[0.995,0.63,0],[0.72,0.99,0],[0.5,1,0],[0.28,0.99,0]];shape=mxgraph.kubernetes.icon2;prIcon=api" vertex="1" parent="1">
          <mxGeometry x="682.58" y="688" width="72.92" height="70" as="geometry" />
        </mxCell>
        <mxCell id="XdNitLlG15K0FlTrxvzR-7" value="" style="outlineConnect=0;dashed=0;verticalLabelPosition=bottom;verticalAlign=top;align=center;html=1;shape=mxgraph.aws3.ec2;fillColor=#F58534;gradientColor=none;" vertex="1" parent="1">
          <mxGeometry x="680" y="590" width="76.5" height="93" as="geometry" />
        </mxCell>
        <mxCell id="XdNitLlG15K0FlTrxvzR-10" value="" style="shape=image;verticalLabelPosition=bottom;labelBackgroundColor=default;verticalAlign=top;aspect=fixed;imageAspect=0;image=data:image/png,iVBORw0KGgoAAAANSUhEUgAAAVMAAAClCAIAAABulYmTAAAABGdBTUEAALGPC/xhBQAACklpQ0NQc1JHQiBJRUM2MTk2Ni0yLjEAAEiJnVN3WJP3Fj7f92UPVkLY8LGXbIEAIiOsCMgQWaIQkgBhhBASQMWFiApWFBURnEhVxILVCkidiOKgKLhnQYqIWotVXDjuH9yntX167+3t+9f7vOec5/zOec8PgBESJpHmomoAOVKFPDrYH49PSMTJvYACFUjgBCAQ5svCZwXFAADwA3l4fnSwP/wBr28AAgBw1S4kEsfh/4O6UCZXACCRAOAiEucLAZBSAMguVMgUAMgYALBTs2QKAJQAAGx5fEIiAKoNAOz0ST4FANipk9wXANiiHKkIAI0BAJkoRyQCQLsAYFWBUiwCwMIAoKxAIi4EwK4BgFm2MkcCgL0FAHaOWJAPQGAAgJlCLMwAIDgCAEMeE80DIEwDoDDSv+CpX3CFuEgBAMDLlc2XS9IzFLiV0Bp38vDg4iHiwmyxQmEXKRBmCeQinJebIxNI5wNMzgwAABr50cH+OD+Q5+bk4eZm52zv9MWi/mvwbyI+IfHf/ryMAgQAEE7P79pf5eXWA3DHAbB1v2upWwDaVgBo3/ldM9sJoFoK0Hr5i3k4/EAenqFQyDwdHAoLC+0lYqG9MOOLPv8z4W/gi372/EAe/tt68ABxmkCZrcCjg/1xYW52rlKO58sEQjFu9+cj/seFf/2OKdHiNLFcLBWK8ViJuFAiTcd5uVKRRCHJleIS6X8y8R+W/QmTdw0ArIZPwE62B7XLbMB+7gECiw5Y0nYAQH7zLYwaC5EAEGc0Mnn3AACTv/mPQCsBAM2XpOMAALzoGFyolBdMxggAAESggSqwQQcMwRSswA6cwR28wBcCYQZEQAwkwDwQQgbkgBwKoRiWQRlUwDrYBLWwAxqgEZrhELTBMTgN5+ASXIHrcBcGYBiewhi8hgkEQcgIE2EhOogRYo7YIs4IF5mOBCJhSDSSgKQg6YgUUSLFyHKkAqlCapFdSCPyLXIUOY1cQPqQ28ggMor8irxHMZSBslED1AJ1QLmoHxqKxqBz0XQ0D12AlqJr0Rq0Hj2AtqKn0UvodXQAfYqOY4DRMQ5mjNlhXIyHRWCJWBomxxZj5Vg1Vo81Yx1YN3YVG8CeYe8IJAKLgBPsCF6EEMJsgpCQR1hMWEOoJewjtBK6CFcJg4Qxwicik6hPtCV6EvnEeGI6sZBYRqwm7iEeIZ4lXicOE1+TSCQOyZLkTgohJZAySQtJa0jbSC2kU6Q+0hBpnEwm65Btyd7kCLKArCCXkbeQD5BPkvvJw+S3FDrFiOJMCaIkUqSUEko1ZT/lBKWfMkKZoKpRzame1AiqiDqfWkltoHZQL1OHqRM0dZolzZsWQ8ukLaPV0JppZ2n3aC/pdLoJ3YMeRZfQl9Jr6Afp5+mD9HcMDYYNg8dIYigZaxl7GacYtxkvmUymBdOXmchUMNcyG5lnmA+Yb1VYKvYqfBWRyhKVOpVWlX6V56pUVXNVP9V5qgtUq1UPq15WfaZGVbNQ46kJ1Bar1akdVbupNq7OUndSj1DPUV+jvl/9gvpjDbKGhUaghkijVGO3xhmNIRbGMmXxWELWclYD6yxrmE1iW7L57Ex2Bfsbdi97TFNDc6pmrGaRZp3mcc0BDsax4PA52ZxKziHODc57LQMtPy2x1mqtZq1+rTfaetq+2mLtcu0W7eva73VwnUCdLJ31Om0693UJuja6UbqFutt1z+o+02PreekJ9cr1Dund0Uf1bfSj9Rfq79bv0R83MDQINpAZbDE4Y/DMkGPoa5hpuNHwhOGoEctoupHEaKPRSaMnuCbuh2fjNXgXPmasbxxirDTeZdxrPGFiaTLbpMSkxeS+Kc2Ua5pmutG003TMzMgs3KzYrMnsjjnVnGueYb7ZvNv8jYWlRZzFSos2i8eW2pZ8ywWWTZb3rJhWPlZ5VvVW16xJ1lzrLOtt1ldsUBtXmwybOpvLtqitm63Edptt3xTiFI8p0in1U27aMez87ArsmuwG7Tn2YfYl9m32zx3MHBId1jt0O3xydHXMdmxwvOuk4TTDqcSpw+lXZxtnoXOd8zUXpkuQyxKXdpcXU22niqdun3rLleUa7rrStdP1o5u7m9yt2W3U3cw9xX2r+00umxvJXcM970H08PdY4nHM452nm6fC85DnL152Xlle+70eT7OcJp7WMG3I28Rb4L3Le2A6Pj1l+s7pAz7GPgKfep+Hvqa+It89viN+1n6Zfgf8nvs7+sv9j/i/4XnyFvFOBWABwQHlAb2BGoGzA2sDHwSZBKUHNQWNBbsGLww+FUIMCQ1ZH3KTb8AX8hv5YzPcZyya0RXKCJ0VWhv6MMwmTB7WEY6GzwjfEH5vpvlM6cy2CIjgR2yIuB9pGZkX+X0UKSoyqi7qUbRTdHF09yzWrORZ+2e9jvGPqYy5O9tqtnJ2Z6xqbFJsY+ybuIC4qriBeIf4RfGXEnQTJAntieTE2MQ9ieNzAudsmjOc5JpUlnRjruXcorkX5unOy553PFk1WZB8OIWYEpeyP+WDIEJQLxhP5aduTR0T8oSbhU9FvqKNolGxt7hKPJLmnVaV9jjdO31D+miGT0Z1xjMJT1IreZEZkrkj801WRNberM/ZcdktOZSclJyjUg1plrQr1zC3KLdPZisrkw3keeZtyhuTh8r35CP5c/PbFWyFTNGjtFKuUA4WTC+oK3hbGFt4uEi9SFrUM99m/ur5IwuCFny9kLBQuLCz2Lh4WfHgIr9FuxYji1MXdy4xXVK6ZHhp8NJ9y2jLspb9UOJYUlXyannc8o5Sg9KlpUMrglc0lamUycturvRauWMVYZVkVe9ql9VbVn8qF5VfrHCsqK74sEa45uJXTl/VfPV5bdra3kq3yu3rSOuk626s91m/r0q9akHV0IbwDa0b8Y3lG19tSt50oXpq9Y7NtM3KzQM1YTXtW8y2rNvyoTaj9nqdf13LVv2tq7e+2Sba1r/dd3vzDoMdFTve75TsvLUreFdrvUV99W7S7oLdjxpiG7q/5n7duEd3T8Wej3ulewf2Re/ranRvbNyvv7+yCW1SNo0eSDpw5ZuAb9qb7Zp3tXBaKg7CQeXBJ9+mfHvjUOihzsPcw83fmX+39QjrSHkr0jq/dawto22gPaG97+iMo50dXh1Hvrf/fu8x42N1xzWPV56gnSg98fnkgpPjp2Snnp1OPz3Umdx590z8mWtdUV29Z0PPnj8XdO5Mt1/3yfPe549d8Lxw9CL3Ytslt0utPa49R35w/eFIr1tv62X3y+1XPK509E3rO9Hv03/6asDVc9f41y5dn3m978bsG7duJt0cuCW69fh29u0XdwruTNxdeo94r/y+2v3qB/oP6n+0/rFlwG3g+GDAYM/DWQ/vDgmHnv6U/9OH4dJHzEfVI0YjjY+dHx8bDRq98mTOk+GnsqcTz8p+Vv9563Or59/94vtLz1j82PAL+YvPv655qfNy76uprzrHI8cfvM55PfGm/K3O233vuO+638e9H5ko/ED+UPPR+mPHp9BP9z7nfP78L/eE8/stRzjPAAAAIGNIUk0AAHomAACAhAAA+gAAAIDoAAB1MAAA6mAAADqYAAAXcJy6UTwAAAAJcEhZcwAACxMAAAsTAQCanBgAAJdmSURBVHic7P13nKXZVR4KP2vt/YaTT+Xqrs5pkiZKSGiQAAmRjQnGxoDxxffDNp+NjY2N7Xtt7rWvbbA/Y/tiG5McAIOQLWNAQggkgVDWjDQajSZ3TpW64slv2Hut74/3nKrqnp6ZbjEKU93Pb/+qq6pPnfO++91rr7VXeBapKm7jNm7jFgN/qS/gNm7jNr4EuC35t3EbtyJuS/5t3MatiNuSfxu3cSvituTfxm3cirgt+bdxG7cibkv+bdzGrYjbkn8bt3Er4rbk38Zt3Iq4Lfm3cRu3Im5L/m3cxq2I25J/G7dxK+K25N/GbdyKuNUlXwDZ+e9tfHnh5R+Kh6pq8QBV9Xbt6Q3Cfqkv4AsABRQggIYLRyEEYMc+Jzu/vY1XERSgrUdWPEQBADVQEJPSbcm/IexGna+AB3zxrThIDnEQhcNwiEI8xEP0trb/8kSxfQPYsscEkgOEfNAFuJd2BGh3O6pe1e98/W3NfyPYjTofQKHiIQLINYKtAIkBil2Pht/sxh1wF0C4sN0YAINbG6hQEAPZlZhChhhjQQJlYFvyb+NGsBsln4emvgcAKX5iMIGhgEqxRIwCxKAdMk9fmuu9jeuAdqh9AiRDbw3pGrodLM9jar85eAc052D0zAqTX6CsRLcf5MtjN0o+BKSAECgofhQH7wCGiQGGCryAR4riGh/AbXz5gIBC/H3y/H/59+7pR3T93PnNjft+4G8c+IED4NDYEHBbr7yNG8eukPwtzbD9cx8A+0B6KccWrouLz2L/fgRT0MhDjbFgD3KjP+HbNv+XHQgAhCCAkcyeebo0/1Rj3AexyRZPIeshrBgOVRlgNcWfKN3eA24Mu2qtF64dEa+qcDnSAfsB1uef+amf+B8/9OfO/7N/gLXz8B2TDWAN2IAY5EAOJLcDe1+GEBod3lX2z9aNtgJqx9xtnX8OLJBcR/8vrMK3D/o3gVet5OuOMQIRERE43EgsTAW9DTz3yc/8yJ/nR977DdPl5GN/8Mhf/Gb8/q8jbaOfwrOHHc3ADoV/1Xve3g6+lGAtfDQAI3zNgdVSngYaWdNbWcDiJZAXCJFRNsVDK4K3pAQlQGTo4r2N6+BVK/nXQNWJeKgADBkPBHkXH/79j/+jvzWxeOrOSl7rLx2ryWuC3qf+5f+5+fP/BlkHeWYUAATw8B46zAnR217iLyMUwg9iHNjfCa0YUwbV8gGefxpEIcLiZVT4cbUQ+9sW/8vjVSj5OyVz+L0owUPz4U8dtM61fumff+Jn/tnRvHOwzOiusEnBvQr1HpworX7gtz7zw9+LKyfRWfQuzQGFAzIANLIjVLXYR25rjC8hhCAEVgAWh+6jaCagcllpXxzizClkApBXSpMciRoQeYIU2h+FvXZ7D38xvAol/xqQACBSYrYQ01+HHyS/9avn/+CdR0t+InCQDCRaaIHc2ax9bCasbZx87Kd+HJ0F4wYRYoAUxH6U7EfDE6bedvt9mYAstFKfPdJPxIIrkvorl5AlSDbD1nxZ1k17Ac8+DZ+90GTT29v39fAqXNY0GgC40MoOEFGxaR9pK/2vP/upt//SsYadatpUBxpAjfWAKhCGWqKVpTMHx7v1Ux87+U//HlqrgLN5zD4mbyEAwbHmI7/f7XXzJQQruNiNicHx7ME7W90MrIFmq5dPIW9h/cLln/wbGz/yp8/8pa/5vb/+HegsQvKR5POrcHF/8fBqnhwCRKEKVfg8lhR5F49+8LNv/8X7xstu5VLWXQ9L5K06BtRCrVPxkk1Nwbc2jo8F+dOPPPaP/z42FpFn7AEptgeQ0laUj17dc/Qqx5b2Jgtbqc0c7KUCMkTYXF2GpuitrHz0d8dWnj5a2by71MZjfwQdbFVr3MZL4FW8qlVViVUJovApXBfnn/rMT/+Te8uoDjYbRiynbATkiImJLNTAGQApYgPJOvvHw9LJRzs/+5OQHnwC8rAEgfEIBaGoeVVP0KsI1/Wq6o6vZBE04nvfWBufzRJn641cgeeeQzmYnq171wevS9jqLJ6CcaAMADxBCPB6ew+4Hl4dC/vFPG0qpEpQIM+QbJz+9/9ixnfLJWMkA9SIsjijYtQZLbxFIAACArI8j3zv7rFw8UO/jz96N/IOOIPZ+kgF5Laf/0uMbZ3PQITJOQkjIYApttS7dA6QqbnpxAIWHEpn9RIGLWg2ivIXoQF5dazyLy5eBXMiI5VwrfArkRblmQyX4Tf+c/rZj+xpBllnxRtWIgAkIK8kWsTstiVZYQgsOSSdkt4Tv/Cv4Nbg2hBfRPnADpzpK6wxXlA7dHtnuQEwIECmISrN8ak9SZYidI0w2Xz2UzBZePRE1yCzxhizdvk8eutgESiUoExXaQ15yd38pf93t+FVIPkYPToGRiU3AkhRksPiIX3k7U/+t/90qGzZ9TiAkgwr8ndajFcjCBAYza6sjVWDcOk8fv0/Axk0Kz5JWbTw+F8tn9vr6NrIImTHuArbSUd81V/dxrUQIAMyaALpw/fhEvhMnFeADJDL+P5DG0kOljiizYVTYIe5Ax2OPMehsYMrC+hvAC4VB6AQ/qvfX17wg1wl87fMdvzqkHwAgEBlmJclDsjAOVmAB8jWLv+nfztTi8qxVZ8a8gThokKbrx6joIAC6qCKsEHIOnsr0Wd/+7fRacMnIHEGOciDoAwpjooeOowieAzTBopLKRaKjDgBPKDF719iPd0yy+tGMTTqMmgfeRvpGjrnoevor2B1mX1mAFYgjsydd+WNunMI4yh1bXRWcOf9PVRL1Wakvua6WDgFJAny0UMnKo5wip1if/WTclAHEXjcOjkcrwrJH8btht/oDs0qDgyc/OzGIx+aCpQgIAfSQuyLJM7hKFbX6MctKKlyVo2lLN32//wN+BRIPIuCRcPtPxAugvtFFQnIAcLFZbCArpHia/TM1dg+u+74ehsA2EETJBs496R+9Pc/9y//4RO/+DOox7AWxTwp4c7XtBD1PcMYSymWLqI56+LxzY1OsxzVKMXiOVDOo0cF5aGpOMRwLzZAAEfDdbUjVEy3yhP5cq/VE4huyRgJmADCMOhmwYwB4V3vmly6UG2UQFkhg0o3oVGFnY8S49Jn/+B33vAd34txq9YKhQajHYaxtVsEPNqGCFAwsYCLAjGzo2iQCy6AYp1tHVZ2XhWP7m8br4pd+AsDFsB5iNFs/ld/9tnfesf+epileW/qOFwXWZiHdVbAe9SmtTTW96ux+qr0cOpp3PE18eyh3sXLzUop5qx14XRDsnLEL6K5R08hz8AZmy1r0HoGsO3h3fX48pV8HertwolHAh4KEHGxUhhAa4DB2qVHP7w/cNAE5Lbr7W/mo5I0nayVBxuLeOQDePPXx74PjoAIPgYsrAGPDgkiwwoSAFJkmAAQFoZm0D402z7uqwxfYy1sDC6DAFWQ+G1GoFtZ4rchgIc14LkTx1qR3DFR9rl/IlnH6c/hgbcAYkKDJIQLqnNHk/NrBFeRNL18PvJU33tQLn8CWRIybS5famgeFrQsxcxuH/UZYKFin0kgfZCAGVSGCWHDHCyQWySU+2Uq+UOxVyUl5gAAA5lC4Bkcghxc3l6vsOLkJ7LsCuoMn4G1iAHQteb3S4EV9RA+GxyJ+crP/yS/6+3lfQfLdx7HvkM4fDdK4yjNIBqDJZ/DGAJCeMAAHkj7GbK4VoYK+mswK3ju0zh1Bt2kv7iabrST9XYSV8de93Dze34QTCiXRgSBtPXpQ0vh1jAyrwsBK0JCCMlw7wOdIEx6rTgKg34bC6fw4JuHu74aUHXq6GvaFz4dUF4GFs+fPeTd/vsfOvmxt8NLzOitLWLjCqamwTF0hx3GArAv/skGSDpYm8fGPJ559kpenv7uv2Aa9ZTCrUva9cL/ZSr5KBJ1RKlwshsAIFGjLoCHkbDTC9XB9ZJP/WHF5CgF6O/gZrkZzV+QtRrWMtJYfOfkp9qnP7P4MW4HQVaZaBy+d8+Db24cuRd33W/ACBlBCVSBGJBHIHHAaC36xx977uPvbT/1h2FnWQZpGZZ6aRmmZAIy8TPnnnn4jW/EiTe5gbcBCZEIFLB0M8eSXYqrUqSZYeN4ZnbQuhBDm0GOpfOQFOShBhwibNRmDq55B8ljA80zKOGuuxxZ1TwMNVaHlSVM3gMVJYNCC1BRwcMC9DPXSAfn3/mOJ/7HLx4IN7PMZ2N3TH/Ht0NiGItb5nncqORvx9W+uFASGBYQwbPvmawLzdHr4LHPrLzvPcm5p4Pewky9lLXb4fBWCk/QjT8+UoKQAsTkmKRRpQaTt+yM3eysJk98cOmxPzwHkvr4sQfeUP+6b8YdD6G+DxQgbyPZxO+9+9T7fnft9FMzdTNbksho0CgBQM2yQlUbivKglb79v0R/44RtzChBlFHEC82t4k96OYhCHFxgMtjy+N6jvbUzY3ATJV279NyEz6hQ3pFBXo8P3RkGBpIFQaCJwfIi7rw3rjTS7EpcMSZN2mdP1+9+C0g8w+w47Rde3tTnqMSHDu5fL8uJ8UFYjp7buIKFpzD2RkZswLz79T1wszpfrqKs33J/bVmswooR/+GNTZ8OU+VHHrSi8G6LfpEAGOeMDpAPMGih3954x6889+EPRN2Ncnf9SCUKq0Frtd3YW0G3ByUQj4LrNyr8MiroFlJDHgSQGmZj3EzFIE/BWe6hemXlE79z8gO/jb3Hj33zdze/9q1YPv/If/wZPnVyzsjx/RPor8N7iMABBFUtnH9G80aqFx/98PHeCsIScQUm5FHM8RaHqjJySN9oP4SDOMDGk/v63kFQDuzK8sKEy1kz2BAMGIuZWVtrgHIMXOBNevbZaG62OjbWWZiPmdX1O5fP1l2C0AGREIwKNIcXAzEq06UIm/PY2yiXEEjPbXbCQQ9Lp3DnQ2yGUSC+BfbjG5d8Gf3DDAjEF+duGAyZbUThLREDEHWiUA6MBZF3KQBmI5A8dx5qTcBsWIQVBAZTkYBfsGINC+SZDIc+E6jD2gV89AMb737Xxulnx+L8wTjHpJcJCdIEMqg3SHs9AkBa5PCwArhBQ1p5VJvLW655Vc1TdSmKs4CFtXA+nwhNMwrSbGHpHf9q/r//a6NuStzsdDn00P4KFYV+OvQxEMjo0JNsxqq228Kjf4hv/B5oxBrK7l9aL4VtPw4Rsj4Gl9BdxfPP95+/UP6+H556zUPnfs+BLXoD1+/i4kXMjYMcjE1Y4pLF5OTa+fP1MAwDvfL84/vf8ubp4wfX++dg/Xglunzm6bm0BTsBLqI8DpqhuwpJcO5U/6nHy3cewR1HBzGnSViLMW0ynHoMX/VnOCjUlqgygN3N4XsTOn8kFwKAh3nthcu7yIEYZteRCEQCURABBBWT5wBgrSEyRTwMCk/wUmjpIqxCgLIqeSJlcnA5nJpBho9/8Olf+w/ly6cPB/FYnaEO6MFJxhAaXsGfEFsMbtcmfW0bIzCAJU/kK8jGKwRiEEEt8kQxDOnTzqjQDhJ46bUN4ivPPT79tm+Fr34Ze1e+SBhKmBcy1D936r3/6AfvMUmp3zu5kX39N34XDh/xTtAdICgF4rE8j733QJ0KnPEw3Nx/ePPSkzEhDLBx5SJ8F8eOrn7ifWNVy5Cgv46lizh8gBRKChWQ+83/++/Zk48fjLF5Zf7hb/qm8M6/PXvsjt6j52o2rFKyefFk0+XWiRgI3RKm2A2tQQF0GFSTYThLYTQ2AJCDHFShjCKIXRzZZACXIBsgT+Eccg9VGIZhBCGiGmCgBCYEJZgyhEFMBZkWOSN9dDfwyEfO/vp/6Z57ZroWzeyp+M2WKUVIPMCSCdNV1vJIRPULR8RYFAQDSrKjjOAGMr6EJLDm1JOPT7scWmydAEbexVsbgWZjrrMnSivjSColOfMYv+mrGhMzSFcQl9B3m+eea772a6GOikO42vrRe6987A+YsoiRbl7B5hqO3t2SIFUidll7E5fP4NBXskJIAIf25t4IjVJ692S5R7HZWEJu4sZsWxnkTWjmL15oagJNQKEQ0w5lsFtxE9qHAV94YVUgBCqi1gkkgU8gAq8Qh+ef0aUL6+dOdRcvda8scJaJy7MsS5IEQBiGsJFtjNdm5yYOHy3P7Au+4mFEVXAMY2FB7AwyZK2TP/WPcerJid6Vg5Vc2WedblSJ4TpKhX3BrMXz+aI+osIAHJqBRFAF0cv2crKluMxW25tYuIwTewBQwRJ/C2WOXIVixohJVYP9+6YrtmE6ed7utmXp/Gf3vvHBqUPHcL6PyNg07y5daOoAVAFCA4aGmDs24EhJIuMjn2LtCo7dm8VjCfVCOB20sHwZ6qBihkev4L677t089VG4biXmlfmFKYnH7npd9si7QZvKKlkCSaCOJTSGaZdb+sANSj4P1b4GOiSpFPKOJLKKtIN0A6eew6c/ev6Rj2WbV9z6lUBzAy7ZYG8YWTv8CLGF4Ztojo3zp3DOrn88XNWwNZCxmQOHH/oKvO51eM2dGKvinb925n2/U/XtSJMwkkw1koEhaJ4JWG3hFiJgZGK/osJ/E498JPDby2TbU7DzHZFLFgSliqR44jGceD1ISB2IoAUJyC0HIhoe8gEQjhw+2Hn6XG3cThtz5eyTe2WAvfvWzz8zThQGsrJ4EpxAMlGBGPgA43uDxgySC0ay8Rg4fwp3PNzYf0/W+UxzfGy6t7n47Gf2WJBPYQIgQG2mcuiuS4MclABY69NUK8MdD1xpdWYmicnazOOJT+Mr56Blc2s4Xm9U5zOgKqpeVZTEiJhBF93V9MPvOf2Bdw/OPFNznbLP5gJUIhpa9eohCbxCVIeqsjiXa7NuRh4DQi3OexdXPnCu9aHf6s9MHDqwr/e5zxwK4aSn7JwlhQxr5qAM70HK8IVn7svWKtsh/EoiJARfdh55Xtw3FwEAus3zBxCX9x5YeQZVS9b7dG0RaQdHjqx9WOrehwGFWQcL57BvHAArg0KYamVij790AXA1o7gyD0STh+5KHv8s8rTKfqO7hvYG6k3AgwBPmDuklhEa+DwMBAvzuONIY7IpusyBCa3pXT5bgbs1qnWAz2PZKbNSCCf42Mff871/7tQv/ezY2afuqPgDTTMzXorKIdgADJfDe0gG9cKiJEoi8KKZSK4+V5+q9p2uO141zXRsVmYbg7l0cf2xP6yHOVtlwIKMiFEpfILwIIWBgjS3mgaq9OVS8qZb5TfXMxmEAEjsM0g2sgsUcF8e1/6lBlncfd9GUM1NFJpQOy1cWcbhgz1j+vkgtsKDNs4+BxUlZiVoCK5M7T2SZg6SlyKsXzgLCmfvfqiXeaRpKdC8s4rVZRiC94CCPWbG6tNNmAxBVonzjdOfQNjfu2+qnzthlEr20pnnIBlEbhHZvznJ345FOcH5k3dy/ppmtDfyNe2HkgXwRARrwQTDYIVRJQdywsNBpERKTDCqgVCofZeqzQwnlHab0t0TqaadNGsb8qzCkGG9zI56+xe7aHrBGNbk6vDihWhrXO/l26Ng8NkaqsNafZIRL+d2pe1QfPV6Ml/AK4z1Q2egYlglckuEjW8AbLH/aNvEudgyB3XNsHgRjUlfn0i8hKRR3sLCucK7ZAigALYZTh1KCt5EE1y5cgWq2H/A5anL+rCSDDbQXgYyzVN4BVnYqLFvfy9LEbMN/fr88zCZHR9ve4ghZr8+fwraA6nmX+oJ+aLgJiSfyBgYLlxr6mC8zzeTbDWTjodnBcQzRLWofRaQBwmMEquh4ShER9VDRL2H85UASDPJsjgCQ8KASiUKrBB7kNitZtc7Ot+RIHIIHJFui/HItT+qvZah2DuFEJwCzMRWwanTNNPMqROokAqRMikTDLElG1EQgdkJMofMI/ejKdhZhb8l/0BR7Es6cvjrSKoJIAh7DyDIMgLiCsAGAEJQqGAZbibb/b1uBZ2zFc9XVYAwvqc2tS9L8lJAY5LgzCkEY+H0cS8BJKvrwF+5hKBsJAADFABNPnD/IKqgXEIYWxth4QIaQbNsfCYwLizR+pnPwLfJZV5YnIWtV4/fs8IByjGVzObCGSDDax/2Y1POBAGldbSxfgnsxd0SltjNRpa5YKYAcgw2NevZILBB6NOt1pSCQhxo5wK+/lRe74iu1/x+Z6R950UUOdnXgQICKfKNLMiYoEitCSKYsNd1AisBeVUR72SYkWBBw5wiD3iwAZsYoUAyCx8ysQic284vp1GG4bXm/fV30iLJ0VmLWh06zBW+3cNzCLIwtfLU4ezKKZQwHkAuXeC4MTZ3TC5+BMhiI1cun9nT2kRjGloUb1lMzOVhRWlAzGHI/dNPl2eqE9NT6cWNyFAUm3TtMrIWaAIUeAUjwOyhQVjOCUGgNu1ieQH7Ds73dayGClMp6+PySez9SpADgi/1pHzBcXMrjxQMw6RfHC7z67vZFVCwFvQbO8ZWvq+BRBALOCBRDAh9TTYG61eS5TW+vBadXQ1ObYZXKgeWxg5dnDh0ceLQ5fFDi81Dy81Dq/VD53X8XFo73a6c2YgubQYrLdNpix8QXACNwVVwFUW0aKea1tHmpNfODCuFBt6FGgQYr4FyaA5hqHmpE8IthBB2sjZ3zyAzEIqMubKwiIHb95oH89xD1Jbj9fVVrM3DuIIYUdWjXG5O72/nClCpYi88+xjYlQ8c7XogqNTLpdbSeaQtWGuMMSEAwqETiJqDXEqBDdIBzp3B2KSvNgf9POawlGc4+SxcX41/2SveBbgZnT8ktRFlJXGIS2zYOefyNOAvcVxaaDs45pltYyLJfLeTJKl2Mw0bY7XpmbA+c+TY6zG+D/tmMT2Gagm2SB0sGJoxjBIai24Xmy101nHmWbd0afX8qStLl8I8CVUNTIi8ps5sZxOMKm5JVfQ6u5WyFc8ZRUIoWWgbGoKqt4JiuSGQRVAPJw/2C+4zqOYJ1tdw5LAYA7YwHEcG7WVggJwQV8kS+n5i/9GF84/VYrXsgnQNWRtT+7qwauKSDdK1eWRtVAsCFYCB2YNpVM+StXqEIOlg8TL0qyYOnug9fmaqEpbEbS5caOZ9Nu7qCpXdiZuSfN2h1hhxLF5I4B34i7qGt2Wr29F6nSmOJHVkDIxprfdaid9Y28wbUxMnHtz/0OvtPQ9gYi8mpsE1oAQNwIDKsE6OAcUWKdOQcKsBzAFweP3XW8lnRWZ9hmc/s/r4J88//nFaPN/caE0ZqtdLiA3SlgLOwQsCFjKj9LzRHkCAcWS8HAyicz/9k4f/2U/i0D2IImhAt6qP76p4PgcAync/WJnaA3cZAaftNpbP4sDrTRR2e2vVsZoxsnrqs5MPvgkogco5uaBRj/Yez8K6s3k1ooW186AU972u/9v/K6PAeFeSAS4+h7EHcp8HNoAhaFDfd8yduYTcNYx0zpysaVSanHM2hOFKoOfOnWyWyEgGxLcl/wVQVQipolwq3DPmSzdFjXKgnvPUStRY6w8ur7ZQju94+KsOvOnbcc9XYN8cOl1UGgjLsGUggFIRstXCY8/D80HIQ1+EMpTgRhy5BLCKUZB3uKc8+fqvmeyv48IpfPIja5/46GdOf27cY9/4NGXtwCeBQPyL+DQU0NyiX3f8vr/3177hF34dMxMyEC5Xb1HR3wmCOkfTky6KnLI1HEa+c+aJ2n1HZ+dmB+eXBWqs9jfnkbVgA5AO60SO3dURk5k8xKBEHgtnMHNHaergwC3VjKsgwdI53JsTkYcaBmw8feTulaffD3bjATbWV2th/eBDX/XsB/4bWMOIAk2xdJmmxm4FN+vNSz4V2dOEWpMNq/cBXePP+0JjlDknBkGNMtrs0qUN1QP3vfZ7vs285etRn4YLYSM4RmVMrUmNycEEXxIxokwEgIl1VKWnPMygJ4AUoQeUlZEzhGAUMAblMaQZdAZzE/j+hyf+zF+ZeOaxS+//nSc/+7FSa3Pa0vjsJDY2rn+5gQLeo1sWd2cn/fQP/9DrfundPH7wVrAqXxZK4jQLKkFl79Tm6ZOT1oclOvf8J+7jt0XHDrbOP65MQUhLyxcOZJsoTQEgayGM8T22NpbqxYDSGClOP429r2nOHR2cWaizVDlPzj8Xs7ehTXxqjAHH1SN3LMPCp7YU9lbXpjb7OHgnyiXoADHTIMO5c5i571Z4LDct+YW2ZGI06mIjJ70vSuHZVZpRwEosVG61zOWOTD/w2oe+63vxlV8DjoDYSZDAlEolEwCKxIkX8UYZEFVDowpDwlZhhhKUeJQpOPwQUrCyEJSEiAuqNvUgQp570Tx66C3773pg/+bi4Ld+43N/9N7KQmt/tVn2idGMCr7Q4bXLsKCJNJTkQKVkktYnf+JHv/IX3oFUOSwLcXH+2MZuX3bXQAhwbnrf4TNPfqgWmMBQmHaR9bFv/8DEarnkNVu9hHQTRgEJYUABBtqcOpitXAJLpPCLF42tRlNznZOefV4yfv3K/KwWAWZRgEwEDiuNJryDFziHS5dx4ni1Op66S1EloCzvLZ2taAItA+HLX/erGTezxIgwcofBGExOaaPpYF6k3uyqZJfPG8P0G1iBLeLkWU4e5X5eOt2NLs995YP/+D/P/fSv4OFvRHUc9YaOValZqjRLhc9RFaHlmGxZTazGsFETKBdJCaxgIrM1imjecBgDNkUOAhWVOUV9sYEybEhRswkbozqF2btLP/SP3vCv/0fjz/7YeZleH0S5Zwqsd17hPXyeK3sYD+OgokrSiGTP6sn1f/Zj8G2k/V53TYqMALmFivdoG0ZciMTwoXtyjQS2UWrQehdrPdzx4FpQc6Ay+fJgBU89CvXDUKpn1Gb2Hb5X8phdMFGLFxYWUR5vzB0Pc4XhkLjb2sTaEpCxSgYPBk7ckSlDCGRsKdo89SRC2jd3ZJAFaoJer71y9tPQ9WHDlV2Nm5L8gvqiyI1jTM4M4mombGz4wlDWKwxlKJMyNLTlyctdOof63X/+hx/8+bfj6/404vE8rGRReWDCFOyH3ECF+a6FiAegADQsHOAXlvUPr18Jw2y9ES0/K0CiRY0yFelJHhAlFhOKLUs8JrVZOfHa/d/3w/f/458J7nvzM32zqZEpxVmCbIAwNMAWSxBnKpbyybzVfvyj+O23w3VrsckkgXqoFB+vgpet/9tNUAqAEM3poDzmEQKIBZi/AlsPZw7kXgOkE4HD8nlIPjyEewKV7b5jIgGpoDAckgEdPJz0++j1YMmQx8oFaEIQKAsxyDan53LPsGEU2cH6PPIezRzouiATTE3Xesvn0F2Bupe+4F2Am5NYz1BWAwUblMrjx+4Y5ICNisPyK6Xnr7q+oeOteNhMEi51dLDnjvv/xS/he/4SOi1IAqNk2AoCRQAECtaXUp4EopHK+ZNcGxHTzkq7cgX3PzT+T//Ng//Xv3/e7FnomLhcLZeraccDV3X4UO8M+ZofPPorP4fnnwAZEhXj1Ljium+GOng3oBQBTJiaM82ZVAiilnKcfR6m0tx7NMkzaDYRY/XiaUg2DMk4BcU4dKeSkDpheAaWLmC8bGsNdYq4RJRtnH8GlAYgA0tkwUH90PGuEKKgVg3bi+eR93DkWDuDUlgrVbLeOlYuA7clfwcE8BAt6qVgocHsax7sZv4LrvABKHsKU1tfjSan3/yt9/zkz+KOh1Adl1pZjcDABBGDjMDIMMH+i58j441NOUY0hjd92xv+za/Y+99ywdXaubXlmpD1RU8OsCG1KuSzigzGe8tn/uO/wPz5qNcmuKLGAXRLZJLsBDFgCM1prU+lSjAUUNpevAhTKk/O5R5wPgyptbIAn45anBEQotzI2XqGWmYjvaWzcIOxuQNZVEVoLbve8imgC3U8TKm2mD7QQwg2cWTc+jzyLvbua0tAHCLPypxi9VIhFjrCl3p6viC4KaEtSleUiGAiBNX48F2IqyPSy1cSBftNMecGxiLcSILH+qXJP/fXgr/+E5g8DFOFiVGp+DhSNmSKFmoGYCUGD/X56OvwbUd6vnjxi4ALoq0d2PJwXHU6fcFv1FhEniswFcwcn/mJn5v+vh99MucVL11lspGNKzawBsTkA3Gh6x6bLm9+7mPd9/53mJSSDkGAHOrBSrueGuIaGIKtzL3mtT0YGG1WTGfjCigc33c88aYw8JP2Gi6dAQbQDKEFW5iwOrMnJUOGSwEWzj6FEsrH79xU0+v2w0Dbi89jsARVhiUKwDFe++Z1b5wKJGlIF6efwcR0OLUvd8Y4N1kiLJ4bpajvOHN9uRSFvmL4fNS1FJ2tPOPICUSlL8SMFKHDwrOWeNOm5pmk/PAP/wO85dtRnkZUB4cKdsyeIFTQdgKA52E+3pckIGsUAHK2PixjbF/pz/6lr/oPv3y5MrnYd5ly7qXVSrw4Fs8qrM5trJyYLp/8vd/A+WeQJZTnAIEUsmtVzfUgQA5mmDjedzQR9T6zlEveQ57h+N3OloUDEEeWsHYZ0gdyBAwSEFVm93WUhWA4761fhibYd2DdkzcUBRK4VaxfgGwV3lvYUmVqbiAOmpSljScfRa8/c+wer1ZzT4PO2sXnoTm29cTu9LncnOQXr/aAMHIhNCb3Hb+r1R3sJC3cquT9vNzUOypggoCYVNFB+Jwfe/if/By+4c+gPI4wlqLFoooBmR0mh2fkgPvC7s4McHFov8ZTwFAgNUgD5AY5+muISjj+htf93DtLh+9pdwZOUKuXtn0QBFunSsXv6V5a/tmfwqCHrOjbS1s2yy0DD2OAAPsPaxin2YBNrnkPly9gfCJsTCVchokDG7Qvn4R2gaKK3oGkeuREy9vce6NZ3rmC9ipm92VBReMgDD0n61g6O+TnIIIxMKXm3KGBy4BsvGz88iVUG7WZ/b1+HjGVDFYunkaeqiqghUNIt22+3YObkHzGqFck4AETREiyxkOvu9BLMg6FSBXqwWKghj6vc3axawx967CgqMXhkq29/v/453jwYZSbCAJhHunzqy5+23920x87Ism91kdZfM6NWg/b5BzF13IZCAZcxdSxA//Pv68++LVn2mjlgSAsPlEUuUFnvbunxAuf+giefxxZG7kfFvneWrAgC8SgyFbKthTAOrb58nNPYH1lvDntYMCIA5esXYDrgJwOnxpj5kjPRV4phC/5LlbnUa6b2jjIlEIT+j7WFqAZivouZpTqwfS+vleIR2SWl5fBYf3wsSRLEQZRzMQK1yHfAlKM2Bh2H25a529VygsBtTK+8VuSfQddpTEYKAmzGJIY+jJpz9fwXmwTYBRvqwTPWB/00visNO790Z/AA69FtQJDKJWGF81GR5kERayuOJAbkL16f955br+qMLYQsCKD97pDABGIFMG24Z+MPpGIhgkBpEQKViWICT2Fnq2nUDVUBIEpAWVM31f5m/+/yhu+5WzP9pMIpYlBhr4CamuVCE6OT1Sf+rl/BqwjtAKrusvdS1eD4a1KySPAxOTE1MxGu40SBVHWvvA5hHl9eloFMAPLndXTjyFZgzoBAzF8BdN31hoHoWGZtJZ19NOfRH2yPLY/zR2MqRvqnnwWsYEMAAEHiJr1B97gOQARcmllgnaKw0ehOSAUVYWQPP1x+BVkHcDvVsaEG5f8UeOzLa3GCi+IyuW77j+/tFptNsgAocHnaecDgFE1w5lmH1SfvdJ53V/623j916FU9qH1lv2W2NJ1eNEZMDuu8GVwFXfPC34cfgxDLcSiIAfaqszdkeq38y0FLDCOjCPjyXgyAHmKEDQxffzw3/+pA1/7HZd6BAlKE2PwyHMp6p4rRuPVS/jj96DfYrrlonoYnfVBdnxuf0LQgMNA89ULSFo4cLCV5gqtRBRLH1cujuLtDA1AjfrEAS8BAQ12rrsOCWpzh/uJg88bYZBurqKzDJMDfrhG9h7KKACHsJbDAAuXYc3Y5AR8DmODgDtXzsD0QJlCtp/27nLy3aDkF7rPFR21GDAKAgksKuN3vPnrAAN1YIHJwCngi9pVepHBfJ1hAPKAUwDKdkHprj/1XfjG70R5EmY7lfIqv/oOr/uwbn8k/C9xY/LCQRCCH40hBxjzkD+jMA38zlL8a7Jthxe2dXk7T+mmSBImIJ6a/mt///DXf/NaJuilVcMAEsnAIIOGynPv/O+IPHz7VognX4PRI7PBsbv7XBIOIsvob2JlAQeODEw5FxuXa0YdFs5vF1eShSk19x4d5IBHLUB3cw1ipo7ek3tFmiAyvc0rWL0EzqE5QM551JulxrjzijCoxHb51OcQ6tjcXMd5ZarEZuXiaRgPUzy2rbjOrtL9N32eHN49QQTOBAgbwQMP1/cfbbd7TuEyAA6UgeTzcYoURfLgno1Xm/sqf+sfojzRTb2n6xQHFI9l9CFbxsCNbsw8ZPO4Tu7RlrH/Alq/4b3f1K15qHjnyGSe0Jwt/9g/dAfvuLyZIYhNYKWoHiSZjCN3ZR5//C5oB3KLST4BgIECFnPH+qacUxiwLUmKK/NoTLrabIYQYYkll9UFqBuZRRZBNZ48kIgB1Bge9DpQxZ65cqUBsoCE7NFahA6Q5UBAwlDTnN2/kTtEHAZu49Lz4BxTky0hRxqS6y6fA+UgdVsO612k7QvcqOTzyLeHIqVHi7TWIEMJ9ZmD3/rdlxK2ExO24M0zCjNsonPdcX0oQIRqHdXGmZ5/8P/8lyjNJmK4XNdtFr5rLvjz4bTiUb9UEg9xZrjmvPepyxORDMiBXH3iXepc4iUV9WoUI8MfVGSfFG9H28kBTMTFl+FNihbsW8YEkS1FAKM2N/N//7966K7VVMNK3RpyhhAwhRLnG5979zuQtSG7P2/8KhCIYECgAM3Z8tzxTorAUI0yPP80gurE8fsSHyF1Jfari+dgSKVo2RaBynTghJgYQQk2VFV36lnMTIZBGWpBxJT3zzyJvAXngYApgOfG3P4egIBLocjmPPIW7n1N1wRBKQ7YRXkLF0/C5y7PhwwsoluR492BG5SZoYDxsHPusC+WgVUYcAVf9+3h0Yc2VnM4AgisRTblzfWNLBxwns6u5/d/9/+O4/dKWEnZ6hfMw6IqaZrmgzYGqyZZDX0nQi/wLZOtm2zd5BsmX7WuZbTHGJC6IW/kMKPhxiFMRV9vAw7BJVQm9/+jf3nRVDeTtNd3uQpiC+3vnazIxWfx6IduLckvwihDK8vClKOpfZknKJohBovzKDeCiYOdBHBSj23aWUdv0xaVF2zhLCb2SVCCGHDEJu6szUN6E2PjyBRsQqt5Zwl5uwgFEgIo0/R+H8aAi62G2SaWzmNifBBE7X6vGts6Mly5DIiyGTY8312mPm5CWw5DTRbYCqrBqEYOoBjB5PE////d7EagBtiogZhhriSuN4YH/iJXp8iqLMQ+0JUs7+5/EH/2R0DxQFzFRtGLt725St1f10X3kjAmjONyAIf8Cvrn0T6FjWeRXEI6j3QefgnYADaRbSBtI+1RnrOHGQaUbnQpMEDiIMLeCEJvrChjz/GH/srfXegkk+NVLz7xWR5rqWZqndWNP/4A/La1P/yY3eVeugpbtMMKwCKsNPYdGuQCgQ2o116F8MTRuzJEkktYCvqbK1hdJpCIE0WGGJXx8em9g0zBNROVNhZOwbd4dnaQ5FAKQttvLcL1YYwKYEPA4tAxKlVylwcRBVkHF06hXI7HxjNxDF/iPDn/PBSBiYt2kjsYkncJbrK4XnfIlW6RXoZozOErvjo8dt/KmU83m8bQyxxTi+gYjd7NKQwDChPVlvrmvr/wIwgnEFtri75z7PV6/HY3eMEAACnab2oGyeAzeAcj6PXo4qXVs0/0Tj6C1lKr1er2ulvOOQVX6+NxfaIysTdszEw9/FZMzYFjmBBh4aUMQRZst/YfEi9gIQAcFOUDimFKIQFQD2Q+DyqNUKr4uu+869yTFz/429OlpqYdrlCe9o5Ojz335GfGXJd8HxwKjBZs/8NG3zfnYnhVoWDDsNByZfzAkgfIAQMlh04Le/fFpZDjENpTn0lrmTFQF6itwgDOje8/cunio7M1tkrJyjx8hvHJlueSMbHh9fYqXBexU68UEDjA3gNZVOulG81AjWth8QL0zaXJo7y8ofkgJu2szMdwFuKgCtHhA9g9fRA/H1qN4fIjwCqUlUngTHVs7q//2CM/8VdP2LShsNdktoxAREKquqNZvYNTuADlRnPhsjvw0Nvw+rcirANZKCANATKsMqTSuMpNMIqzC4Z1RCMoodhZdFjcQSFc6qxvId/A+mU8+Wjrg+/tL1/eWLkSWQqRRiE3wmB0f1BVEfUbl70aDwxgn33Hz7CN9x06XHnN/XjLN2FiP+qzQNzP1JaroQl9njAHKNL7FORG8s4CU/TfLQqIhTkQENsGf//fX/70c5X22YnQwjs48YNBGRZ/+Jt423fBTmhUGxJ1DhMKtuP7uyvJb4sEJ4Q04oP32iAC2gjRSzv1089ED3xFrcoy2NSQDPHys5/ac8+bjR8TW7ZMMIIDhwefrUiQlUSCpIskw2seXPn935y1xniR9TVcPou7HgAPHMochIzSxIkH2p+93MgGtdDla4tBr9KcfWjl9CcnxrgUaGttGTpg9IBQwARhekU6tn+54CYln4bdNbegDCFWMIIIM/ve8P3/++Jv/eumFL8f/dGONVq4002xdRZvZGAZCvQz78YPNt767bAVB7bEJHKzjvSdKCRQkoRLlpZXbMlj7ezau99+7kO/V20vHoj8HtY9dRpeBDwkh3gob3OKV8ujq3QwA0g3O7s0f/ITS+/9H/Hxe088/PXB695cnjwID5iqCQycI7DqsMJky0QqUpMAR8oWrCqemIMyxo9+xY/+k5P/8C9NhCGEDXIYX2N/4TMfPvjmt8DWmY0XVeVbh7EDPkTYrDYn0v6VwIJFO+uXI7lnbLI5uCCBsVHI0l5C1gbqqs7lmQ1izO7vUpiiF7Ev6wALl7Bn2k7tz3UpgKuHFssLuCcHxEOVmbUytv+OtUff5UNXLqHX7TXre5uH7t14tAzuRqHRtIf1BUzPMFs3bI6ye0x93MQ5/+oAGo8YrFBwVEoOjjC1D1/zTaIxFCkjN1Qk1mPIf6Ng5S2x0uGHMyO0FDnqtckefw1e9wYYqwUlJjk1medcbuB8JSTFAIYJwFJ8YjVEto7lTyU/87ee+Zt/pvf+Xz8oSwcnpDxBGCNUgDIhIg2sWOOi0MXWhexCuEhy1xmNVh5mGI/C6bhUxbGmL51/5Mwv/9Mn/u6f2/z5/wsXH8fGPMSN4sxeWaVILSgGmF+QkytkkRMO33P8Ld90cT2BlmFiBFkQ9y4+8xiSLsoNET+cJsIuW3lXg4d1DwoBIS7Vp/a1cygjCnlj/hwkpX2HO2KJo0op6G8uwnfAIs4bYwGgucdWJzNvWHxFOzj9JExlbN+dSZ5B0lqZs/mzECjBIgnEAZHddzy0lr0Pqo21bh+DHvbvNcVCL0U+T3T5IpANG6CCaXelVL8CJHpU+Pr7PbjUP/oomAQQQ0rgFyQ9X0ttWEh4UEZOrSw69rXfAo5E1IbDdS5wHpZHLbZuDEIQiBh18AmyXvc3//PF9/7KXrd2d9OABKTOS+5gqDh0KMBiiqBcYVALCDLqAFW8qTHwvgegUoZLWkeqMcikeffiR3/n2U9/4ujXf/f0134rpmdMUDammRZmPxc0PkWG0bVyq8TdzFXHZ+n7fih/6tOpa0eaIIIxeT1Pcek0Zu7x1BzSitHNxUleTbhaolQUUSUan1nzpq5qidLVS/ADTM11NB63pqTsOkvwHUQqTolLSFZgG+XmwXzlMlsXozdYOFPicmVif3IatdDZiJbWLs9qRnAMDwWoDK1UqhNsAMNOc1w+i+MnvAfIIAydaw/W58vaN2j6HSHtXYPP/352VK8bGAtV+Gzhc5/iUPIAzGpImekq1WcAA2ECzDD7jqACSV1GceXAnXjdm9GccYEddspjo8Pdg16SZeeaK3NJdxUmRbKKi088+3e+u//Hv3og6lVLAm1D+xn5LDRZYB0XAXoLIuLCjSZMQ94vyzCkllEMGqXuhoxKALjE+USM31PXE1jLf/cX5//5D+EPfgHZIkgjEKsjZKSuuO6tQOAw6E8shGqzDBth/PDR7/mrlzbbqMZigZCa1vcf+wSSNlhNwS/ApEZ3Z0sewlVRGmNhgvC+N0rczJQMnG8voLWM/SfaUvZkQ3acruKZR8DOGEBzRDWY8Yn9d4kPjEhc4c2NJQTlSnMuV0KzAev7vXV0llkziAcstIKZI6ASnIIpCrFx5klwNj0753yAQW+sUTr1xMdgUmhmABLeZZVUr9Cd5AJVXDnXPvV4iZKCw5IIMKrXrc/hkXUHZA48Nn554Pa88WtgywmFxhK0SJWxQAjYmzrkkrg4VqRX8Mh7P/Tj/9tccmEqW4qlC8pgVAyECz3O0MLkKaI1bsd4yfjNMMBW8LqJ1aRhunNRa6Jz+vQ7/t2Fn/wxLDyNwTr8ACrDzP/rzbOqpnmmWYqoiTd/U/nonalQYgJRnQipfekcgm1BHx1kdqnBv6N0goyBJ1TGJK47UEjS4Bwrl0FxPDmXOA9NG1GG1bPQVAunW05AZWzmMCsDHsgYDr2EDx7ppA79LljDQLE2D6QAC8cOZaBaHduXZwT1kcnTzYvIu5WZA73MiIrh3LouOlcgGV9dr7U78ErdjEEc4dkP65VnGq4fCiyDClVqrk3aB5MzpGZI3heUqOPcRrOKr34TuAiRFd1qWTUADMMQ+CbiWT5D+wre8R8//jP/4K6xQcgdNZ5Jib1nKIMVgUjkJdAM7MAC8rwzZrtT7EclfYQAalks1AIhNDQ+NMJKSK3rlZyvuMONmJ775LN/67vwyf+B1mUIQazqVWkHDCk+i1RYvPM5QKg3937Ld551to9Qc1+13F28hEGXzdZN716xx1bkAgDYEETQnDaVMWEbGKoGOS6egY3H9x5NnbDkYyUsXz4JSQGAbJ4DGmPPUYZAHUgEwNIyxqdKlZrLFcaEltrzJyE9JZtS7ImBuLLnaDtxgKvbrLN0GnkHR+5s5cYJAivsO9hYhnhgt4k9XinJzwYZOiv9pz6xp1q49ECAGbXVve7nCg3DgxzHfa97XvswpuZAtrAJQFIQ+2NkCF5X7FmF4YyKUWGFEWfyLpJV/M5/O/8H//Mr9lcng8QgATlGZlSFIIARWIFRIZUdZuZWi85rJkj42hAaj4KSwgpAlCVnKKG/3j5QCY6XNp7+9/8An3gvNi7De1KQMKs1Wnzo8F3ImCAKiMizgi2+7k/1Jg+kakMleAnzAVZW7LA/N1iLLKjdtv4KyLUpWAaVvXk862AtfA1ZvjwPUypNzLncs+RRwcknaQAPUO6hnhFVHUJwCBN4lv7yWeSdmT37EESANzbrrV+A75DKqCgjwOTetjMQKUeUbszDd7B3tiPI1Ieax24TnUVoLkXO2e5KpXglVhJJWA8QpOvLF0oxJABC0IgM87pJ+6wCQIcltSYf6N4Hvxaog0Peqdlo+4/4OkOIPKmHeqgSGWQDbJ7N3/mzGx/93YMm5V5HXD70Eqhudb5kWBZLRYgyLM4To8oEZjbMTEWvXmOYAksBs1GQAzkhEXLCmXAGykCZUWcFsUPoUItD1Ty3/b3j+fP/+Sfzt/9b6BUYj1yYmRKhglx3dGIUWLV22A9cqg/+6R/oDHxIBrnPu4P83GnkA6iDgjwZt0t7726nKAAEVYGtQMbH7/6aHGUSiSLeWFpAZaJx8E5SwAmcaJJg7Qokg+QcRjlbhJXmvhNiquCQA9pYPwnbiWbn0gxe+sTdfusiwhTosiopQIK775P6WEaGAtuMFeeewkSlOjthwiCumLpfSU59Ekiz3Zg/+UpIvgqkjfZyr7UeB3AWbitu9+LbpJIUtjd6CcIKDt2FaOzqWEORnyNFgOxFMNomiifT38TTHz35/nfU3SZJf9jrpsDwbAFHVgEYRhQhiAfOrudmU2yLohZKLY3aGnVNZRDXXLkGE0IAL8OSUKKdJwJiYRJDCBSBwhCBVYwXi5D6d4yh9fjvn/13/wcGlygQ9B1KEVw27EcKhloRMWyIGBSiNm3u+8osqjm1IA4MDVauIBsMa9F1uIPtcgy3+cijUpo9miGAKuCMOnTa2Levn+XeAUShJawuAClcHthI2YDCysRczxsPay0665eAHvbub2ckBEO5cS1szEMzQk5FVDmqcnPGSwBFmXOsLkGj8tTBXj9HmlZM3lu9CAx2ZdH0KyL5DnlfTz0LlwKjw7wF7FCBXgeGmJkZatDxNH74OCamRkl615oGAK6upt+GFCxOFAKCdB1rpz/zq/92Juwx9WFcwdK/xcSjBqmBMyLsRNMsTTcTrLraih/fqB5aqR5cqe1frsxdCqbOaP25rHqyGyz3Kcmt18hJCA2ZIgPDiqG/fZRQWFQfiNE88M5q0c4DJh0vp9ln3pv+93+L3nk3WMGghXIVsIW/gJVHeYcMZSQOiO57259ecAZBGER2eekiNB1lAt50dfCrCNsJncMbNCKmMj3nyQozGMIOl86iXik1xzMDGAoD2lg4Az8AgYiMhlCLPUfaAxXVUsB5ZxXtDcweyGyDbByHFkkXSxehjtWxCoxFWKtMHSSUkErF+PzSPNKpyamvyPIAmQuMXV+9AtcPkRB2GxX6K9EUTwXkF597shLZQvcKwQAg6FZ+7Q4IC7SIkyBn249qM3c/CDWDNI1K9mbWdmEwg4mhDsnCk7/y07V0ebzqkemIOWNU8DLskGtzCvLA+iBeT3j62H37738YR+/EzOR21W2tim4PrRba6/0Pvq+zcGFj6XKJ8ipnZXKhFfVeAVWAYawRv70mhAVDBwcy12XJ75ypfvpdPz/r/b7v+RFEFQwSCSLZyg5RkDKpHUb9ogpe+zVX3vc7+2IOSQatVfCIDGRX5epejevcmTIZeJPDZEQxe5BrXzpZv/PI+Nx+ubIJk4WBDNYujkkX6mhYQxVifK7t7BRJbBBLH6tL2HuHacx6m4fsuNvS9QXSDOoNKZQRj9nmPsxH0HbAbnVtbVoqNHY4isZAPagz6uB7RrugAEPX1C7BKyL5Dt31bGU+llwtTEGVZUFeoOaFTHIEeAaDScVx3AqqM3fdj9q4QYyr3eA7cP0ZJ1WAVUHSxwffTmc/cng80EFfLWHoiGOKSml3EI03g1wHiawlJmnsu/c7/uLUQ2+FrcNUQBaGh9ysxdXWBXVApHzim8uUT51+YvCZD5762Ltp/excVcenm9js+tyZUgniGVBRg52knRCCxFBKNU1fM2sufvjXMDWJt/5lNObgvJA4AgFREUYoJN9Y2CpOvLZ85+vWzj8ShNYNNtDbRGOq6GsG7M5j/k47TrWgMyJCiPr4xOyB9MrlmJSsay+drbteae/c/NLTgSAKdGX57F7qF30eCYAEmDwQNGa8LsWa1i1w9nkcf9iXZ5PBUmRcpP3W/KlmECFzHAJiobXxow8sPPrre5uGJVPNkTgcPJFkglrAqlXDuPgcThxAUAMsXkAA9+rFKyH5IsgG/cULs/WydFpFMuXQYid5IZ9BcfwXwCg8cxo1cehOqM2FyN7EBQmQCVzSqQZA68Kj7/rlO2tita+M1CiAwIMhMEFYQp7ma6lZyWr3/um/gG/4TuQllPcq14UjKXyNANPwYrd2qxBELsO99dKho/d915/Bh3770+/5jdWVjSPl2FLqBwMTBmCmwrQhKJFQsRXBFNFpRgx/YkKf/l8/f8+x1+FIxHGJlIgsFwmhBQUoGCLgEEFz5oGH1898YoyzkD2CEfcMOSW8+M746sVO04yBQlsUq8ROzu5fW+acxVrtFRS6e/e1HtWJiAJVk7SxtoCpoyOrwYIrlYl9fn2BKK0Q8u5mIFF1z5HWk4822NeM9Dpr6G/YcBxFWnQaYOZQRopYoYrMYXUeBw5V6jXoGgWB8S5dnY+O9aEZOLy6WPXVjc9zGV1FC6uC3ka+uRZa9iiS+wADDcAMMtcONhjx1cJz0Dx4FLVxkGG+uk3dy14DMHAcW4Iub773l8PBan2snvVysvA7eUEMJ2m+utnz4/vv/X9+Bd/+txEfwORBNbEQG4/AI3QIPKwg8KMhYkWI4eB8kiMaB03jG/7y6/7Vu81X/cDFHmVJbqoVBAFUQQQywiYNTBJqGkIsWMEeADwhG3Satvu5X/z7yJ+DdgIvsUhwdedcdaIcApWJ178JpYq1RH6ArFtIhe7iNB7INd+MVhabY3dkYGfJRJR2VtFaxexcHoQc2FIISjexfHHb704GJprYdzB1DuqqgXY31+AxceTubu69z8sBss4q1pbJMJyDWuQWjcl4vAr0UA7E+s7lxxB1mlMN5xXWGPLrC2egA0gO3lV9tW9O8ocBtELsZYuS0qGzWtFB1utZc1XMWVmxI893Oyo+SsbN2U4duw8DhQkDG93UxShARDYqY/65U3/0vw5PVZB0w1JQ3JZnKMERekm+auule79m7u/+NObud3kF8RS4kXMoReKBAsVOPiL2K+L1BHifiSGJK3lUzcozqZnJK0eO/oW/c+Rv/tRCaW/b1NRGoCLXXHOVHD4H8sIdREPTBgpDOhnLeHKh8+v/FmkbquTkGke9EBxzAoPxuWhir8TVNB1gcxWQwsiXXSv5LwKymDuWcNWrCVnL0sbaPMJGUJlRMODDrIX1S0AGFLNtYZvh1IGB+KLP6qDThhNM763EJQMF5QENXGceNBCXgwlhCDL12QOdHGoC4Wxj9Qy4i3ojgYU1lqW/vgRNgXSXsaPcqOQLxKPoTuC9qqojyaBpLhmQYeVcKWuHBspEZAoWjKGT3xS0fMNBFmxQ1O8JUU5hfPh+hNNAyCDeinhdO64DUkQESA8f/aOp/kZMKfwAACiIwgAKYQyMnk18/NDbmj/y7zDxRnCNS2Xv2TsxaplYCFLwBe6gGlEmHbLrsSVjYA1sYKPARipGeRx3ffuhf/4/L04ev6gGzTpE1HghMaThsDYPOSM3yA1AMB5Rnk6ZdO25x3D6GUDBnDk/PBAxhBRGDSx7Qm4PvP6tzy51cxi4fEeJ5C6z8wtc9aBH/MUgLrieZrR2zLk4AqZKA1x8GqhVG8dzZ+GTvRXfOvs4YoYWRI0hqInZO1CrZCQgEZdjYR5xEDoPAJacdNcWPwesiw5gDCID5fKh+690oz5CDhidJWQd3PsVqwnBGLZeOytYX4BxQLabzK6bXExF7owqqQAOWTfwLXQu4dRna7EwqWEGREb5N3I9ym0weJS9krPFxCxsCSCRm5tWFilJitbK5Uc/NFcLjWbCQ740yyYdQAzWHJr3vmnqB38cpf2rWZSb+BoyzyJF7iVpQhkAlFWIyARBpGFDKvswefdr/vZPdSaOLW06VCpsTSkyEVNgEJhhqygEYAtjhh8VqKto7/R73oHBCkhNEChJMYi1OOkYEDjE4fsXo4k1rmB6L9gWYb3dG8znq77fuk+2MGPx5KEsJ6hrhKJLlxBM1epHktQAFLLjvI3eCkxWJH+kYtGcTY11BiAEgRmszUPSieYkhMEUhJp3F+E2LCuKvpkmRONgZiYcTGAUeQubKwjrVJnORQzlJdvD5iVAMji/3QDlVf8wblTyGWyErefA8zD6GlgkLfTP4Hd/qX3y0+VaBCsccKEtmYmZipY31/LwGQYbBEaYPAMT4yBSVbrJZnIEDxpg+XS3taxImQuhJqhzg2SsCWKYyUP7v+/HYebSHOUA/Cd7YCqqokyekSJJUTvxmr/+05W7vmYltbAWxhkLa6kYhlEMGIYNELAaWErTC5+SD/8m0g3LxdaDkfx7LfpnmxhHH3jwL/7ofd/zlzF5GCZWKkIA1x4QdhGuNu6KwyABttycO5JlDl5hw+76AFk8duA1WW4QlBAY5/tYuwCTwicgCYyFDapjc6lEMNZGtLp4DpKGe/b3EoJyKbDpxgLyDgiq6ovo6sQ+2IoxQRQCeQtXLqE8HjdmU09k8lLUxcpJgNUR76Ls/Zu/ExHjB+za6F3GE+978id+6PxH/iclKzYSkEOgI1/U8J0FL9ClBRW/DcWMPH5Q//mcoDJI58wf/U6ljLA6KugnwJKNIcAG1w98yw9g4g7HjajSKIXBn9xaGzIyiUNU0byM0oHaD/zdtfK+rKj3VC12B90R0VACjCIwEpiQs7ny4DO//2vwm+itsl4nOUwoRGnP0Td8677XfgPQVOwqx9JNgBgclyf3ZkJgAwWRotXG3MHUGxiLAN510JkHOnAJiJkC9Pz4zNFuHjpiG6C3dgnSx8Telrc5TBSwtJfh2jAqXkgEsKjNiG0CHLKo76C1hLhClalMidjHNhlszgOq+a5K5rlRyVdVgcIoYkbWQuvshf/3R8/+xj+fys4f2htW4lzRBycgx0aJRwT0fJ0IqBLAhMCk4mcP7ANBSYXIF9lqN07QLxl0szX/udgMwMmwqsIoWOGw1oMceiPe8F2wVQpLHiTERIaujxeeSnbCbA0oKxXtcI2aEqIZTN1351//yYv9MMkDuV5HECURI844sd6avGl7k3JFHvl9oAO/za69VbfPGiIpgWZBM8giEjKynd+2e9X+EDseSQCE5uCdElYgQGwyP8DGAiaqpWYTasHipNtaeBbagmSFfYXqeDBzIuFqX4kDT8kaAsFd9/VMPUMQWFDnCpbPFuSGzAEkQDA+tf9u59nCz4yZxeefgK005446NUG1ErPfWL6IZCMula/jq37V4oYkvzjYsE/AbaTn8NT7H//pvxMtffZIfTDbtP31NZAb+sThyICHHSwNwQwfIu8YBBhCYAUihsBFhIBvvimPw/rFOFsNgwHMUHkqQZmF0DGVfW/9HmAcXH7FhUWJFSzKQuFgU3DsDcfe8r1r1Ex1m5t1JMhETMIFUxgIor123QzOP/p+ZKvQF+PVt0AIikEhsNVmb/eYmjcGhgYIq+WxqVw9OIdNso2T0PXGxFjmRKFss7S3ANkcccEr1KI8RfFk33tjUTEJLp5BULWNPQ4GkEaQ48oFwBOTKfKmtTK196h4ZkkDdMEJbBDO7E+8+Fab2QTOo70C9HZTAv+LLSbZEVxVVVVRSBfZObz3333yv/74pH++FHcHPhk4R7EtCEtG9bQy6rHDRf+Z63nrqYh4jfiubqL6fgc8ls+abD2KBLZIFiCy8DZcTrh24H7c/TBMU8kSimJeR8Mo4wucjjcJ2dHPk8IIPsA3/uBg5sGulACQMgGF67CoySMCmyHNgFPUo2D95KM4/wQkAUDYUbpb0ARYh0B8CG8xJAMa5fDoLqJ8f1moEMJKdXrvhvewuZR6y8ufgl4u7ZnoDHJHLozQa80jb8OMUsRyRX0vlcYdWw60ZHOcexZBqTK535NFnk6UyF18Ht4xCAU1H5Vp7zGACY4oAyfodjAzl3vnM4VWA2exdgnauhUkf4iClI59YvwG8oX+O3761B/+8oN7dH8jI+mSFbJQ9bqz4oIx7ElCrkhMH8r11mBSVrAqM5G9yrVzcxCsrwQ+CQyPtg4VgqOwY5p7vvY74WNwBWq54K59pWrdrmZlCuMSUkV5z7Fv/cGOracaFMSkxSWNDFcAw83NRrCxzlWz9UfeC00YSgpVUdl24AvD8bC950jUGcq7NHv3xcAiBqiUmzMDrzl5a5Le6hn4NiYm2yK5QRgh7yxBOsOoPgA1qM6YaCLgMFAXm77kXYTNYGyfUgASjrGxvgDtQRPAgw0QASVPFmTYQCTHyjIqsZooKJVhjBqfdS/DreJ6fplXKa4rcttVcUS0ubkGbSM723/Xf+ie+vCBamrSlh90aiFF5CLKyhGCCBzsLLRWsAd7kL+utAnt4N5QJiWrN8m5BUCRXlkO2DLbUdEcWOEoXPMN7LkT3kJ0WONfBNlAbPBC78NVh5HhkWTnCf9aGBgDY4ZtggjlOoI67n19ed9dfa6xLQ/P71wYGGbbvmCIBUwyWUk3L34WvgdyEEeiKPat4nqIMCTrVS2coGzARqkY9Pk2HnmVwSAAArv/eFRqCnxAwp0NdLs4fCSrVJ2xNvCBtHD5aaALSQEFRzD18dmjQW5MmlWC7PLieWi1NHs32RIgCLCRrKM1Dy32CwsNMHOQwrpSCFNWh6XTTyEIZuYObngSm6HcX5z/NIJNYPClnpJXDC9h7RdwY7FAVpI/+JVLj7yr5tdCTQwcDyupPRUNs3WU0XwNuQpdb7AyK4wSqyEtmG2KOA7fvE42hnVE6VfAk509fBeqM4CF98Co5cYrmYHFwHYmopJVE8KWZ+//ysTWYGPeIhLi4XGCRrWoRIAMAs4pa+HSc4XBfw1GO8Bw/71OffKtAGVwACGUJjisC2xgqMLAyiqCpq3PebLsfZVyrC8CCs0BgBhark8fEU+QHMYTHDIX7z3U6iTee2fIRIqNi9AuxEtBz0JhZXJPz1twYEjzzhVIuza5N9EwZ8Ckml9BsrzrdX6Bgn8sg2mvvffXnv7gb+4tSahy/bNxUZK+U7wNwdB1JX9IRQu3RWdLf/JKlIIRwBSXYvccOoJaHWAt8vIIgCrpTlW/U8O/MiCLh94ktan2IOMiiXgr/a7wdRRNfAkQBUPzZPnpz8D3AF8wfhPTsLZheE9b54RbFUURVXOWSpNAFHAQBRaX5mEnahPHjJRMqlVjk8UrMHGeM1CkmJUwcyxngAVgy4y1C6ghiIJcAyKKLJKFM9AEmisBZEC2tPdwO3EKLgU82JxH0sLckVxLZKxKJkkHvc1bQfIJEIMEsuk/8bsLn3j3XCmvhTkjf6k3e1Gdf3W4jEGsgBjADGN5qgXNoeJmc22I6JqEKiW2tQbYgkiIAYWqssPLdfv7k4IsmjOTd97vTIBKZdRjY9Rk65o5EQQk6+efhtsE+eEtKAOstPsK8j4vFBaTEirTEk9mEhKZwGprZQXcjKtz3oUQipk6G6tgqHpAc6+QAGEj5dAToGThs5WzSNfHpme4VAGbyFJ3/Ty0DXWOAl9wIo3vbbvAK0XGS/cKshYm9uUoEwKWnJI2+u2hNtwV2LHCdtYjiGatVaSL6Jy+/KF3ngh605FTSYrqkREzHg3HlgGwlbZm+Orf0FVj6I3LS2XabK3AKkhEsu3aP90ewEvp5DRNC2WpMiLZK5Vb/a6pN6ACskOlQU41l2EDnM9vlq5NL79OSoAJwJOlEw9tZBl8PrxTqzBaOD632YoAMCbrJb96HhsXQeJG9B6eyBNhyOtT2Aq3MhgUII1njjzoNIJyNQpaG+tAUN93wiEgGDLUaa2gtRiaHOizDZRCBJU9h+9M1RZJvr3lU7CDyvhY1zGA2KrrLcJvghRslAgcoTkbNWadwGhWQQuXT6M6CTuROomM+t5afvnU8ECxK/AiC8tLWAoQdS//5n+cyJciv84Fp911neM7FdqNoLD5Vclq5nMMWoBT473kL8yIfmlTvF6vqwobJt62iwWcsQVbV7BkkQAi5BTuC3tUphAIsedoCoZRX/AHkoL8deaHYNWV8hbWF6BuK16go6zH2xiCQ3AFk4dyDQGAHChHu41SVdh4a8AaBg4b52F78DmxdcaCbdScTjUEGcN5b/Uc0MXeuU4qThAZtdpBbwkQaMH8a1AaC6rjTn2gWYV72FiCRLXxA2maB1aqkbZWL+8unb9T0IYNnxlBjJDxnl+1z/5xFSuwA5ABImK73S1nR7e8oX666o1f8JudIChgAnhJsLkOZMZoLjmxFta7qhYx8JfBxIRzHgUZCA97HHtGahjG6va+JoCTL7CbTGAzlDC+Jx4fg/diIGa0J5odZQsju4HJ27yF1cuQnANDDOVhVW9B6vGFu9RXDxRswBVMH1CEgAE5RoKNBdQjLpUSImfJRLq5+DR0AyTKrEbBwPjBJItgw9CI6y2iu4TZvRyUnBPLwr6LjSXADZ2pxCjXo+ZkngtRXg0yv3gOaqf2HvailqkW8ubyPNQDEMhoLYnsGF9UP6zuGJ8XrlWpqoDLgDYWnlr42HtmuQPtAb5oCr0zjWTnRyuJ8nDgZcdoSavAMqGzDj9gUpGhKbWVHakvM42M+kQCC2uHnTgIBRM20wCaEcBsIC9f8PsKgQUREExOzfSytChYlC0n/wtBjqSDziKQE6lAipSmYlvUXVQK/ieAQi1QhlQ8IiH2cCCHzSsohRQEOYdkOAqRrJ2F34DmoxCKRWPvQMsw1rKL0MbqPEpNW532ZEHO+Ba6S4CjIvRjQtA4V6ZzVZAGoWxsrIACHt9XrY4BFJEEmkH7wIDgefhEBRD9EkZdRmtEhvQNcuN7AV/19x4+B7sMgwsLv/2zoV9HZYsNKlWTKYnyVU3yyO4YAVFAKEb4EgMoRBVcUpbFefTayNNqqV5cxlbo+2W87myx54jWp7vOJ94PD8WUTE2Y9sVn4Du+3yUClCERocIIv6CSz0CkDM9C4hlgiIEL4SLIkHGLdg5m3xgzvbVzQO5UABQdBBiedjy969EVCN8qMT6GDyAVRON7Dx9PVT2hWgk2588jTyZnDjqJDEVVI27tLII+4IiMgQViNPe6sO6F2WK8DCxeBMY03O/Dsqfcamf93BMwoUERxQqBicbBB6hUEQaV4oQM+h6H7uxuZtDI2igil194HNgkZAAU3sM75B4eQ/aEL65rdofYK0QLu0NvVPiv8vClg4xyQQQ8+5H80mOTTQtJRnHporXbMAq3Na7qg0G6NWTHKFiOt8bIvoJhtsjXznwOZcBn/mZXM1lUpsLpw+1+FldigJUAgkHSufQUpBWxL7INIDDCNOrf/YVCQQ4wYh8GQQh+lIq3/c1IrIUE5EEZNNuq8CPNgfQWDN6/EKoK0aGTDyE3plMNlYng+msX4RPsOdjPSBRGsyBfx/I5oFhfRdJ0tTJ+cOAcyAfoo9+BVqoTR9VHFhoEqUgH+RVGbqhoVR7ZqUNdbykwYA4CRmsN0Ep1DGJAzJS47mWgDeQeXobC9qXmSiKMLmOEG9X5OwzRUmgC6qNzqfvx902gn6XriA0iIISYEnFMhsleRapXaP7CP7VzR8B2OsqLXC8RGWdNZ33pKSSLgA4r+2/8eEshbHPfvW/0RZQMRSs/GPJu7RwufA4xex1tSXDm5Q4PrxSGzQIMLA+NF2OJA9ppH8GCzI5sXJKt6brhdKbr9yDYXSimEiBg/GDiI7axZUk6y+iuYOagM9XEC0hUEqwuAEqkBilYYZrNPXckjoCcOUv7G0BU33MMiRIHNjC572DjsvEt5mKLMYgbQXkspRhswoC6i6eh/cr0LLxBYA3l/dY8pAWIU7fjKX0p4i8kYAcuGsAWmtcCFsMshpfH6KILCQkJtoeFp9fOfKYk7XCsnCFLDBJrPLEQ33gP95cR+9HnGh6YfBmXn4ZxRHRzifVsXRLau75CS2NZ4rXgciIYdTXpuGc+iSgxJgElQAr1o9IjFOMLAlWwkRfkJBQVOTv3xKu890Q8Mkc+71zG3QsBOxCjsWcgFeLYwIXUwdplxA2uzuRKXjKDAXwX6iAeUBCDG5XJowMPqICRJH0QY2pWcoIaIlXpS/cypKjDYaAEx9XJ/V3HAEfGd9fPQ3uoj3XFgIU5dZ0FyCaGXTcKDin+IrOkbbMCKQEYFXDzyPHAN5j/xR6j5k0Asi7c8uWP/fa+MWNKgt6GL8jkGGI92GNIULfj0FnofIISOCAOiC3xiJem+M0WTc3wl5ZhDSzBIjR5jTvumUdgMyCD+O1gvuDlpNQOwjrimXjvnYOwoWwKIhcLPxnK+c98EK2zsB34NpAVLF3XMAZvj5vESzwWGBYvW+eK7bw9Ltj9htEQJRGS5lhjZWUF1ho2RKZgJSrIP1hu9YQeIip6icJ4WIuJgxrP5M5YdbVokDz7aXAcju/PQDA+sm7lucdhA/gcIKUIKGHvUY4aBU9+kmRYuICx8SisIFOFN5z21k5B1yD5MPpiKrWZw32JhBFwjnQZ3MHBoz2ESjo2FmOwgNVzQGbAHkUlpmVYxbXpZF8gFJ+iqgIjMJlap1ZB6rx3qfMpAAHdCGtYkX8uACCAVaRXusvPGeqCHEhGYTUp+kkSKYi2u0Lt8MPfBEjAHiyFgVLSQWvxNJINn2y+VNf6F0DAaquoz06/+dvWfNWTLTYJUkSk02Vdfu8vo3cKpq/qRCEKleFsfKEeEzNEc5eb0cQV81So+qJYf+fLncvjOAZGVD8FdiGp/uePgq0MzKBqeeJQmjujWUwdl26A49rkoUzZWA2DTF0b2RqYAPIIuxqgMp1zCBOBysYE7eULQLvWqMMDyiG7vHcZ0gaNovQUmcZsakteiSkJdAO9FcQVH1aVCToocRedRYgbtlIuwrNKX0wbrSiZVwUJAnGh75ps2WTnAnchNEssl6CrfAPVxLx1SnS5IE8Gn/sky6YzAsNQNsIREJEG7Ng6tspWjYExzIa2urtzwBzwMJ9vlNjzUgY/+eHaVtQD21m+hMWTJr7pI2sQWHAJd725ceINqdqh/UUwAZUoW37qD3Hyo8BASIrTygsm8fPJF37Bm3hVP9xODMHlzqVBwFRoe6bhRFlSo2p0WILHIEaepNVyGao7W3RtbdVfwFPJqwU6OhgSg6vje47muRCyiNO0vwKEtQMnEudNSGGg3nWwvgRD6o1H7DgC4mpzwvkYqIRBeW3pNNDC1PjAEdtSIDLYWITfBI8Y5GExNae2mnsxRq1rYXMBtaaJGmoZGEQ8wMY8fKbbz4tG1/lFBYtnN6B8A7qI4BzKp4FP+Yu/ufj0rzPOk/avJrOSF3qFttmjbMBwQemOB7NH39XVXs2zkgWcEdmOSG8X4kMIrLj2UEE7nNsvgiENRfHnSgjjsnObz328OXcH2VAR73g3HV3o9XN62NAgcSVbmXjb96z82lPxoG8xGObXSn+uglN/9BvH999hGmRcMzc15XBre9ZRp0rBdgKgqhAXXQJeXOtuTejwnLV9ZwDDd3yemCBQ5AoxoyrG605IlvtaHEJyhge7YYqPbjUAuA1ASQgGIagRjh90nqA5LAb9DkgwMeG9BykbURpod57Q8x4w5RARkE3MHN648tR4LSTxobSQbaI5nmhcQsLi884VSA9IiSAibEKU9vigkWYrZfaGuuiuI5rUcBa4AOkE7KS/zpIbDj38kCsFkOGaKS4YAEZFIlevom1TefjvzrgAF2l126XuUiTRABmQFJzfRDkhAzzUARnmn0fvcq/9dDpYXO+scFSmaAavuRc4uDV7L2ZH22FmeNEohqsY/4rX/NV/+ex//EETBiQmpoCkw4S86D8l2+/DBTvqC4midsrN9TNYtjYIBoeArcWy/tnfb77hTaiOkW2qckHXDXJAArBBtL1JbYkuKaAal1KYaOKeqbd+7+nf+dn99XIUOUk6jKzshPJL53/1/zr0td+PE28NqncOp9tDJS+a/AixFFesBS+zQF1E4chuKYpwX3ALow1Q4UFQISiRemTz2elHVAbGUibGKEFkqyNTEbfY0RJcLYPZo7VG5T0oxwAjZ3jAFn1EgK10JirYhG6t/aAobzYIAILGmL3TxhUBEAIOmH8Gh+8ar1eKPgthoO3WyQaWDc8BZQMAFZo42NGowblSPx8sAzlOvNY99phzV0h9RB5XLqHSI+uGBEo0Vps6nixddqZjyS8++7k9R39wYub1y49/eO/+Oqe+1V5vhBG8MWIwit0aqBJIt5JfBEgAwTCFZJQ1s1OjEIq4IIMUmsFbNdYbCMErSMApOIG0gRWEXegSemtIN3oXnk86y2l3tUxSFRj0S0EnNFk8FqRSTkSQr8JeY+1vCf/24rNAYXqqKECh8oSJj971//knz/zKPx2zic/bZQYrTHFLOwzj0dmVgJc5nhev5J22wPCYZAH24mMrjcEqPvZufN09ZDKSmAGQKol/cd3LWnwwO8SRGccD3zKzsvj8R9+5v64VE1hJY2QsmxWKzvz+fzrqBfdZ0F6gJiIeSoaZrJAM4/AAK4hk0F6NamUwI3OwNbwM9e1Ok8RBWv21C4F1MAqBEIzyS5jslXp4/vknDp14HA8cAAJICRq85MfdelCgIG4iBlWiSiNLYBkc6GD9QunwgXq9mXfXAmMt+7R3GVgjOwuBgYIsylM+qCRYNpyU0MXl09h3r5SnMrcSWiojx/oiDhTaqEi3rjUmj2xc+YiQBOwYDtWJYP9dwckpaAfVUrejjeVFTB65Wq0Vx8yd2eIyChmMKrSKsW00gyGKXHyfKYuHZrUDclAOTWAFvRW3eXnQu9Be/QzciiQt5K2I0nKY12MXeIED1BE8E1QYpum9RXcFzZc/59trYhLEBJrE+Nff/cNzp379H2nv2YARFKYodlTdXq1/9KoU/e3vaYuLYus329+zEnnviZmsj2K6cvb56YcWMTkHZZCFeCJ2VC5m9LpOFKMwRUEOx+Lnal/3Vw4Di59+V6kawHsiF8JnyeaeQC69+1+Pn/x45av/N4wdt9VZ44zjkgdYYLyyDvdrpixsxOhexmADURXlY2peIPm01dPaYXgsF2jBBdzemH+uagUENmDlIT8cg1iGCbnbfgWGCUPtP/db/+bExjK/6fsQH4ZaFC2CR319bzE1fz0MzUMgNJX6dNrngDkO7PrC2bkHXxtOzG22LjVLxJnrtxbhOrCSS2bZIFc09nB5LJX5esnLYBOXnsXh11NzKlujcmSquestXK7cGyMzqBTqu1KbPrz+DDOc0YyQIF9Hs7Qmmq4NSrWpARq9wWaFWsyRwgIBALN1fiaWYUovA3bEo8YEy1v3Muz46BhC6oxxkA7cOvwaVp7DYB7tpf5gvdW+AnIQb03WiPoBDzQUDbwZ8jJuCePIPBWxAcgP0FpC4xo62+uoz+uwRDuKLc+hhOPf+beWP/hf21eeZFmPNYNeddwuSmuGCfa6RbB/gy6pwtAQYmLKwczWba6eqZ/8WNzcD7KwVagXZd62Ka7tIT/smq5MEGUemEYNtdob/xyA1affP8USaYfIh5bI5uVq0rr8yc/9xsXmiYcP3P062n9PwDUgBiyEAUMqZPqgLtYvXvzY+5LFM429d898248D9RdcvIxq6kAghRLBS27Qh1vN1s+WQoERiBtqqtENXOd9NJ+o2UlOn/vI2480x+O7vxn2iLgS2V1Prn1juFahWFOZGLigQlwK7MrqJSBBY3qg5Ya2DYtrL8G3YbfcbxbRNOIJcqGibaBZ0gqpLOWpbC1CaIz6VmuhQjmyBBULNkAlk4lEZ/sgQ9KjibWzCxN33Fc9/Ka99YD33zfBB1C/G6yErNDcPDqYjWQeGNqzUjAqEjJGsQYKgUwYXSCBOmiC5z/ru8uDzYt57xL8vOWWCQfgpGEck5owZhWTp6pCBLDxBAErsWcxjGGEgQCBUWfR1/4KcaYCNkUU8PpW80jyaVgjV/yUwRkzbqbfNvMdxxZ+52dWLnxi2qwH+aYKPGCtZ2OgRTs6HT0guW4qzgs851dJrzECANojg7mpcOGz7zxy7A7MHoSyWDhyVpjEDsMm1yhBIlJbqEcSV2Hv1Zn6vbWvn45sPP+J35whVx6LqT9QySkOG0xHsJpees/axT/wKE3uO8H1PZg8jHoTPsHGZb9yYXNjcf78M2X240Gw8OzSzLf9jRfM2LUyzGQEuXICbicf+r2aX4ujDOyJldRvu1i3ZmbnhGgaGhbIvgk884Gfe+jAXkxPsy0Xezq2uDdvVQy9yNsWsjEnHkif/wO2Yp2rmT7Wl3DX/a1PfqTpNA60GiY49yTu/CpjLFQRVIDK1IF7+uceAaFcDlZanSnUpg7cu7nxeLv9fLUeQR065zG5F+jCGI9SOP2g1L8qr2TVyX2H6wcx+yA03PfVfxMCZGPQGvIyhDXMARgVEAkYMA65QkeNIw0gwMAgAdpwbdgM2Sp6y0hXBvNP9LvzSW81ImfhLRCoCa3jaADukxmA8uEykQELwwekDJaCzwYsAhEWsmAMmSnYQCUJrV1ZOjV9j/GaMqKXcAxdR+fzUJWFKSai0O79lh/BkydO/tGvz5Yr9bBHg808h2Y+jHca8br9dfgbevFw2UgNFg5CkuLhGmpPhEHn4++s/anXQqc1JClKW0hUh3wY17zRiGDPgsDwnkwfQUwavv47D+87sPzHv7kw/8x0vVIyLmCF61Ukr0KgUDWDk+c6Evak5BWhJKHJiVNhOdCsZZlN8+COB7/yxaWOd9g47GQjMB7odhefqqNlyW2f7alwBF5vKooNAWKQhHCTtnPhPb948NsOYLwCBC/nX7hlMIoWqSoRo77HVmfA6z7tWg9sLGLsYFCbclgpWR9nPdddssiYCF5gI6BWHt/XOVOwpMQmrCJxZv/dix+U/c0DC71+S+vB4sLUpAO8gj1CxvhdX/9X4ftwESjyEsGEQNVoCK7uLFAFFTs0mFSQhugBg4KFyahAU3CGdNlvXMrai+sLz3C2JumacesBt+Igr4U5iSMlVktFSItz4YxIdCvaxEJQ+J2xrcJ2UBC8gY4YpS1DNQ+NN9qHrhmzF/Db+bI7/AsF7PbPOnLXaWGziAWgITCL1373iUP3Xn7/f2mde9/+sTCqRa7V2fl0FNvvS9s0fQQRGj25Ir+QijQV2vrvUTE6wZBUzeDM2Y/Xzvwujr3V+D1iyp4zBpOEO4muAYAEwgW5HogVoSIHhEFCFQ32m+OzM4cern/2Axc//j+r6cVqv9WISZ1XZSUIuTCUKaszgVMyDkaEjZqM4kub6suH7/6GH8CJt4DHh2pnG8U8btkdDPQFfUKSLzzaWXpu0g4ZNYe5DrzlE9Gdb7C9rAkAAnaTVTm/9GT2xAfCN84i2AMKSYtmZPqCa7h1IDI84sPDWxvCTgbliSS5Yo3UI8HieRz66vLYHHqnYbIyZ/3NxbqknnJLBRt0icbmwJH3lGa03JHalV4wO12qHw3Hyvtm7t7XPIHphwTCCAScAw5BJJNGPWwIQ4adVzXCALvQsfLQ56VmdMDPgIR5E2YZtIL1Z9Fdwtpy1l9vdeYJGWlmja8bZ4JcTUaaEByJhxpCyFvMS5yCMwZUibbjfx6kCNJCHcuoUe1O6MjUNqqAJ2R+fclM3CfiiYyOSh8AbIWZcF2dj60XFW7VeBacYs/Uvu+fw4f2LH72D6S70azWrQwIjreFftRfZss+245MXvONYOjkH25dRY0dK4xmE2Xz2ff/wgNH9gMVo2ERdTPKpEWXVdrhTReoFv2WAUCZqThdGY2moc6EE6UHa3fc+xCe+3D7qY8vrl6w6DFEiWE8sTfqrXeOZLmbUlgJTRnBxB1v/UY88KcQ34MsAu9ILtg50zJ8AErweRoHDlg4+cnfm+BuoaN0tPtJ4eDdYQ3tFGEqbrzYbTOZa2L99B/N3v9G1OrEZSKFakHIeUsKv4wKsQBA1YEYqOThxKCPsXJsQ0bShUZRdS/1qyCnLN1ut+6FFDAEZaWQdGw9PRLX55pTdx4MDgUTRxBOHv1TfxVpgsph9EOhmiL2yAvvm8B62zBSlOHmABnkEID6ljzgQAKNSadNseSZYKFLZ1fOvbt95VMVrJWoVebUIGmSI/YcMCCZy32RkUTD0gyiokWngASUKbuRoIwaOtBIUrbD50Vft+HrRrz1VATp/DC/IO63O7UJr6JgLhbYi+j84pfb52dAzbAEQBgEKMMb6EG86cf23P0trSd/98Ln3jsVuUYABrk0gzfESpZgBH5EdzsKBO6M5G35unakPuwI+zk3xplEywu/9wt7v+dfMabTQRraiLRwK2jRVZEAeAJl4CLwrcOZUTYEA6MKglUVMntAVdx7tH7P99d1M3v0PdJdXG+t9gatNO2BnCGfGZtN7GnuPbH/4H1m9i7wJKguEnsbFu2wdMf8qCoJQUCEzECBclBHOo9zHwsuPtYoG7hhEYUyoEVejr9KZnc6CnYkO0YEI/1+61F8+jfwtjvyJA1LdtDrxtVacdjxAJECw47Auz22f60/hYiBAKhXDz/Qf/xToAw+bbc26kGj1ji0dtZyX11Y20h4aq0fjhl4gExOQVC+8+7v/E/QDExlDh0qFhb2DhhAS1oJHRdFlUyQAK5omph7F8AjUEDhc7gWZAPWQ9bQXcegjMm3gSZG1rQb9C+m6x+fDi9WmIxkoB4gTIGnUERAzgRiSFiVAHaFT84VOk8LNgotuGUsKYQEEOVhX4VRjMxCAV+EDhgkSl4IgshT2fnYaeRc0HMTh+vTyBOjgRpSCJSHRUYGL6fzCcP8pIJPHgRYUBk8wZONxpsmGvc8OP/J/3Vu4Xntru9tTpckDzQDHFwKYFvyCaK0bRYMv7la5nfuCypMg7odXFl9avX9vzz51r9SCmed16FTlDxgVVkVBUk1MAzp45r3HhpLrKjClIt7Ju2GX70HWNsLB8mADJqDFWSBOlADmkAtl8jTMKj+ouQgOizXYIFPl4xpnfvQuw+WPeep0Pbf6NV3V7g+iKEyfM0wSWeY52OMprUAK5c+PdWZD6sTAIIg2J6oF8tk3M0oHnHxRXMoUA4nj3SCGXDQk95KXq53TXDkDe3P/lG1ebw+u++w2R/UJxEZ5ICAOfKIrM6AkDA8PMMJJOQqCvVNRVd4GepGCDQhIgQpdB3pOiKLbBmr59G5tLb6vLpNSTrtZPbYt34lMKFWQUKgciXsms0yrRqNAIFmIADBFhsF7ciU35IO2lokw3XCUN4S+8KoJIUFiEowZSACGe/gHSWCngjKlTges9FYfewAyjNoziI+gu4sBLBGCzP5etbii1v7LwAREVml6YxKPLV/7rvehtVnVp786MUnPzg5uDQeIKyWEcTotooJLCLSUpDkwRPxSOHr9uPcqbeG5wsYwphpbXz2naiUcP9ftOVDIgOQEAtgBWUBCwMIIihd765eCAWTxsiq0BhBUVxQROYK7g4DhNCqakDDHAfBiyQRKMEbQBEJDDYRrbhPvTtKl8NSKiRkrnpl8QajMz9Iip6fwxsvDmFFuY73SsTVqmkNWoNzT5QeuhuiQRTj6iRhvlVS+a/ZcgufFwNhNHb4/EpE0/u0UdHwgNMpGx078R0/hbSLSqMcVOFs7nsGZQIZ3U79tECRAuKhGWUMEZCVYR9EmFHdGnJQVxcfzc69P2s9l6SbSgNQotSt1gPhTEM4E4A7IJ+TA1yIEM052FiZIAl84SUrZHhHTFdZSFjV86jtCkYrsViGLMKZEoRUR1QXAUASIY8yH/a1nGqDS7Px1F5bnpmdPEqlMZSaMDXAAqXhqJbEsRqlreNSMZ2jHQc3K/kAQCY3TU/NUHthvTT11Sem7n0zLn8K55+6fPaZPNmcau4zSIxmDOepYNT0xP//9t41RpLsuvP7nXNvREY+K6uqn9Wv6XlwhsM3qQd3SS4t7UpaGX5ovVrBC9iWBEsGDNj+aMD+JsBYGwaM/SD4gwE/vhg24PUKAhaWxTVMreS1uKZXhEQtMRQ5z56e6cd0dVVXVb4i4t7jDzciM6u7eqZHZI9kdh80urIysyIjI+655/U//yNNgLRUp5N8VWt8HjpxMbab73zzH1w49QxnZzrcCVK0FqCGvM1YrGXOPkjMdaLvWJQQ6mjmXNrLiDFYiJh6l6s6tRZ//BBkYrofargwx25z8EfXvvVbO71SnFCvTufRuQyOSa8bJ9P3rv3J5U9/FTmNGxFrWaV6n7hYv5VUPM5jqLHNv/oL/yGnCrIObMIzZSjyzot0XZwcadbF1xk+WiWar4HLg2fuSLF0CQcwS64zplgPtrEeUdEKqW+8/Up86w/Odt4tmEhWUxAddY0DEXJ3gEzReaRKI8DobIn2RPNoR+pocbsBWVa7lzn2aDQAGDvmAWskM/OV+GB5RR7wAS+x8Iti2D+bn7qcj86zdYV8C38KTkEXehEf0ToK5lU7KoBFH7TZTswwcfcvxw/Q/CVcJyLBcIJBN70U+zjB+myM2Pg4H59ejBPs6PCf/149vTOf3GZ6a3b7e6eHPi98vTgIoUYQfWixr3XUcRHnMsZyNL/x2j/5L5/7qV9m45ccVyEDL5gLrVa6k3eQYzHwstAAEkVMVfP0QSkgd9KWOLQ1r41ropLQlms3R0Qc5kWm+7d8P5If7P/Pv3mmel1cpwyVWzNUJ4cJ7f7bntTqPBs2osl0PDx1c+/PiDfJthaT/U4xEEMblli3duAf7TgfVl81UcCZmhfpRcn1/NioKzSSKz2VLJoqaH8AENSqSn3dkNKlqYTM4IZwD4R6l9mbzN/lxqt7775xeHjohp+78NXfgC1Itld2nv/MrRv/a+bK1NoSHabkoQkknUVuvsqFZ8RqL5tmTsxvn7m6+/ofjYdg1vDiuNDeYRURLPOqEGMdJFpK3SbzDkTLiaMy9hfVYMZGd+u5wfZzne2r2IjOOXREnryWxN9MRCOdAEpUXKEd8ESzGMRFUDOfwIKhBYYo2RKz+8g2X2w51dW18EGzXqWd6IYm0Vmd2RRZDL9ymXqf+R7zd8rf+vuRvaoKoOYsfThtF8r9UasQQQQNHpiW5Wigm8V7r/7+f/d8cYEzYnK6pOuyTsNQbQlq/4jnnwZRR6HNAliTVI+yCshjQ5Ypy/fICVFStLjobRjzt46+9t/ovdcHeSiZmZMYj32ph+5x0ur8MQBEw+7gmOfxNodvsP0xnEtWQonYY+YR/EsorWvaAp+V2I3qSjaMGJZ+lUYi0WKIU2e1t0wyRaypCcZIfUR9fbH3/0ze+07Y26PaX1Rv+3i3b3tdm/e7OrUhNlm1omqXYsN3sxhqTY5qMp3teTnm1exaxp08jMRrNBHJdXDGdBjkHlKhsXFym4UHlnmfpRY1cGWtVW2LwAJ1ea/bH/hs3Bs+m/V3+hsXGFxEtmEMA+gThgQIKW0cotRGjARQtagWNc7hCIs4FVfDlKiiOxI7tdoaO6gus2IfwtsnpdaXvwGCR9IGp3hjIFagXbIN3Hl87+xzn56+9gdlWXkX1asSUmSja/HGepdD5VAjqxUYduVwEp1M+vPJK7/9n3/8r/978tK/1uHUQiQ43zElKh8ivx2R5fbast4vy5tCFBMWLvXsWuslHvfG2i8eUeHwHf7kf5q//rXNjpmJeBNnrj5B25fzPNev3Lon0kiLp1BqV9/hvdfZrtRnqKSXHgYIemJEwZkohkeAos3TQBV14Zl5N4uTPWzBYItqCBuYhznl7t63f3f33X84ynbHeRdb1HoY5Ui1ylQUq8sJOidB1CWC0Ou6Ybc80EI81MTKKXPFJLoIdjQ5fGUcflLimNCJda25Y/MKbiOwUCrTmtSQLkAUnIjUtYV6XobuNGy63k53vNPtn94+9Tzd03RP4baZO6TAFQTfkrelbqWAptbAxnoLqDkXcrEAE3yJHMIB3IN93vlOXW34y39H4zlVF/EaRQzcSt0eXfObPHST89fVghZLWAs1COLr6ER6KJ0i8tmfn7z5ali8MXTqEnnPw1XV2um8qlEMgg26LBZsdckW16994384dXDQ+8zPd4pzyCYMIIdICE2RdLU+lkdsHzTXK4JZunzWvrPNrOrSgKRMbyrVCpgIZpI2jrSFHzF7c/G933nvj/7Bxa0yHC3Ma8oU3UdW0AzLW8c0N6WStms6lSNFsWa6MKYLGRzZ+GCSjci9900niL3fpXuiREFZYAfEI0fpNCBzOIRpfO/dvXfecNPd4cZV98LfRk4RHZLhs82NTm8medwvZ+86scxVIlIvKtfrIZhV6BEyoVJ8ARn0tRguDjRXNEaalC8RnKAynU6vwS4SCFiISMborLmtiinEWryhlfpoOdYzirrKh4Pt3qmtzuD8cPQS+RnyLTgFzhhVDM1y73NnqzWJRpNEZxGQBdQiJbJwlFBDjYAt0CPsYP7Wt+bTGwcH71ZHN/pxN+rVnfNfwm9KqgwkrOEjIXlaaYB9tOnp9ItgDfefgFtaOjW8dCBlFjYZ/tjpL//ya//HfzXyu41jnhyfpJ4GbYtDcrwbDWlHXzol86hn5Ko8vHH47f/+4LU/OPezv8bm54mX5rUVYlZX4jO0RwwmiomszHXrKzaePKhrAo6UGjSJK7/DKY1rjdD02K2ugYFH9iEQX7Vv/7fl618/NToI1VQKMWsmY4mm5urWPW2vcmwzlymuqEN0yX1SQ0XQaF3N+/NKprMwzZ996Vf+M7JnYVtwqKTmH23uxZO0Acjyp0v5JgeiM9jD3mD2CgdvsXdnvv/O3b1XxWZdX+QWHbM7ey+c/cS/Sd0hQt7Fthldqq8Z9ZH0iFJmMUrwXobMneW1urh4/Z93XrxM6OOH4KBfDC7s3cxH2SRRSEVF8F5i7qMT2z18h+o23WlVz8RlmEPGpR/PZ3dz553bqN2os3k1H14Zjl9kcBkZIx6J4JE+JFhqFsVHvJr34ht1jBhUGoNQEwjl0Hk4gj1sF46o32HvOrMbR7vfr8q9qpyipZNKqUca80HVs/q9e5HFG3QuOrZSgkiPG48P4+3ff1dOcD1FnK44LntkF3jmS2df+uad7/3uuX7M2yHEJ3cPr42PtISriDgHhlP6VEO5NZ1M7/zub576yr/N5b9WxDHZpqhZMKmjad5iENYWTSK9Zdn6opaam1IqL21FJrQvtBCcNhWxjAisprpJPmN2/ejbv21v/OPu4nrCYBjNcO5VzUKksfTWDBewJqsniKLqxaOJ/8liZB6yWSxu3WV0+urFT3526zM/jz4f5bzSwhNb7pAf3sTv/3+JNmA+0g2tiQev/d//qHv367L/3a3NntPFGX9odfC1iHqkLmWD6jZyqXEGLef0pXmt47wo9ShqdJaQtwHDLHpXVZM3O3IHn7cJqCwfnQvaDzLzja+mijqXoTgd94oN7h5xwR1W03G+TcjxZzYv/UsaXuoNB2xdoXseNmGDMCIMzQZR80iMguDagnGE2FRqwxRKrMYjEnMqqGCOm8GU6Y3Z3bfKw7eP7nw3D7sa9nO95zv3Ml9LQSIHU0Wd+GhEulmHyVuMPg0jTT0gx5Evj6r5D1ILfyCGzERFu7jx4Iv/1o3rb5f6Z3mcJR30KxVfPXDgUv3xgeW9fLLIDvPsjbe+/l9svvT7oy/8LeJnzF0woa4rR64qRpOxixjUCZvRuisaj20v699uDX3U/NOGDqlxT+aEXeobN7/+m4dvfmNnMAPMGmrdtfyHtMYdMHHiYlu3NYmSqvEJ6pDCtrCQbJ/+PqdP/+RPn/7Ylzn3OawXwmAtB2Jt3v/JVPskulorpmh/0B/6WdjeHtaTu9gimqliZqKGiBLYv8bGs/itZtsvBr6/EeqU7iYoeFSm6eBOptPD1wa8h99ZpBQcka1LuHFg6qkx780FjaGSquzO6v7Uzt076G+cz/rdDcDKrvD84Jm/g6sxRXrUHkuUvjmZE8OFSixzbZJHGiBwS3Tl57AH+415P7rG7Ea1/+5s9t7k8K6j1Dh3zEeyyPPKu9q5GqchEIwl46uIiBqKyzm489ro/CHJ3Arx+AL6AWz+B4mhh5PJqH8W7IWv/vKdP/z7BTNvJVa1jOWtsrHyQ3T5+FhhvHmfA2d7pztu93tfu/bqd575sV8dvPDTko3UddCkXZk16fv1mdmpCsKJyqMJZ6+tzV/qf+JUsjnMsTu880+vfeu3urPvnu8fZVYBzh3LMDZF92XD0rGInyB+ov0qeg2B6KLlQXwpNjx7defKZ3bOfopzPwnbczZMBpmmaUbr/tmTrPb3iRL07M6V69fvMZiKm7u0LZhYsMZZk5LJdbb2cKOqclmWYYxOnd+7Tp6rQMBHRSQ6Q2PMrKyOrmH3EAgt2292Ze6uHEieMzXLI76qw7B/unf22c7wufH4kwxfqMrM5wC1+IwOWR/KWEuoXIyu4xQPVmM1ljrKSihhhsybWF1L0rBADqq3vrmYvn10793F0a2+n+Yyyd2iq4tcalGyXEQDoaxDVdfMK7pdTO+3yhFU0CxOjq6N2IPyxIv4w9H8E+1/FFf0NusYvV7k4pe2X/gXb3/rf9np1z4emMxWS7rV8BOTWEmdbFlREZjTc9LxOg73bv/ef33w7a/tvPQlPv4V3AX8xcB4HiQLZS6ImPjU2bP8nESnkUQBtbhiwm57japgRsxdTXWA3+fGP9v71j/i4JXTtu/83JkXAjFqwkyYibRXwCK+3cwSB09alJFSOtcXWy/9+N+8fXOv09/ub+1k/dPuwotQoH2sRzVCeh0toqArUtC1dMWTLWtrzFE7xmfqOpaT/Sxro6logiRQllIf7X9v8MyX4Ex0AxCkJ5tnq3eKTCYiYlKIqcaFUqu4jtK1imqPet7JgBLN4czo6r88PbzmR4Px1hUZ7sAm9IgFoQMFtfMajDkMxDmjrCkB8Q7x3qRpKgs1VmIL3AJfIXvIbaq3ObjF9Pb+3bfLer+qjjpu2o37uc23iNpHiKoNRNUn0xWjWTQn4lUl5qkL98Ryj0JWMr9FeAf3InaC2XuMNj8FwdG0lCLXs/Lpf328d/vg3T/cyEqRhawM8urtPEDtkbaD1cJPj2J0oRyKDc8Ow+z717/xxuxbv3fpsz9XXPxsfubl3A0hzWAVgkczFR9XHfXc1w0SYzCLKoimItE8c3OqIxZHzG7e+5N/vP/6Pxnazc38UGKJeJPjxvgDRYRh/2gyePln/l2ufuXcFFyfvIf0CX2LHcEl/BYmDeXhWpnhqdrfL6bEAjcY9LcsXscqWLppZoIQlbKc34Q7cNm0FxM6f3yWvG92V53iukKHYNXCYu3Kujdlu/f9veJCxAUwrECeP/XMCKYQI73a+iIbSk9lGXzU4meprUuQGowQmTpi1vghC5ijM2xOdY/Dvdn+jWpybXb3j9XeizYXt/DZoshDryhdmBYgYW2rN5CMto1XE56fkPya2Gav71OZ5nmtM3/A0TU20piZJpH156jqfViJas6WE4alh3tu9FO/fvi/3wrTb3u8yMlOyLGStT24+GWVgbM5hwun2bl+Mac6/Bf/4+3v/MPi9PkzL32RjZfJz9DbQjZgIHSgiOny3XeWAuKC+RgWvtqTeAt/j2yf3e8ffv+bi1vfyxa7Z+Wg8BUWVtU4FZBjPQNyPJvfbmSA4aaTqnPqRc5+BfsUHU+ksoUFl9WFpFJIijY0rKF14iMNSXoSJRXeBuPRxWr3VXyFzFO+NqYcqKkQFrMbVLfJprAJQh0Ynq4k7zkNIUzLWVk7x6jTudjf+Nige3Vj83nGH6N3Dhyxw7yuQoiymWZLODfOpJt6PaI0k2bE0ESTHEWMTPOGITveJrxDuMPsJtMb8eDN2eRWvTiUuqJWrOoWkywP6lTEzEKMtVWVtqMfUn44JgOjFYi2vezYaiyIQnQ8OEUCMMUsiJ+Uh2/nGyUNL+AxeZw2vz0/jEhelr1i8Inhz/7qtd/6e2f8vLCHaP6Dq31N+ZfKJRbb6xS8LgY6HWTTKHrr7e+89uY3pPtcb+v5jbPPdLcucfXTyMBJ4chaxY/t/tJcDqc93C4HbzJ5e/e1fza58904v7mRLU4VFdU+HvKcskYwJDagrvvdrNg+lX5abGB5C+kd5ZfOffXX0IsH+9mo18fhdSAKtbXpAYsajSVOEp7EzrxHFvUE7/vnJrd7hU1Ak3+ZFluKtcr5PuGQrPSoihI7cO6ofibWxWjot05d8aMdBpdx58ivomdhBKNolUqd0nJZB7QLYywQPQZWIqUSkQpKpAQl9ghFA/aUen7nu0y+U+//UZi8WpfvZf4o9weFr1wPDOoME8tCUGKIIRhtVUitpXZsAf6xwWpbbGaypZWydhmO1a1SWUqDqOFLKwIF8lAq5x++5ou0FTNprZaJYGQ5cU7385f/1n+6+zv/SR4OHuFYwKphLpCi6pBekhYRI2qRkrqOJtsDGVsV7Fp9cGNy8I29oOEPC+0Mev1xtz8q+kOcrl8mDKS8c/utxWK/nh3kLnS03pRF1gvOSqtqyQQPVlqWWh+ak7kPq5e8k0XmIGZmCouSPPPlrLo598/+0m8w+itUo9Gw3zpyZoBv2iJMbS2yWeKOXPtgKU/zfElqnHLuSvmqr6vKSR19DlGtxhBxpnJUzqd3bvUuNhwuxA2qqy/91N9rIjUniIcCcqRn+EhuYJJbuu7Z0ggJ4pkBJfmcfAYTOIRdqMp39/Odn6DsIR0MZFIUt1/74//tXH+34LZ0Z8hcCSnYx8CCicYgFgCnCR6mx4rt4o7Pp4cYiQamad6dhcpJs1Y0lb2cx+XUWtdWln42G1l2Ouab12/LsxcK1jLpfy707p/vDgHiQzT1rpJc5LQvzlSSr/is7lOhBzJ/YS3ZxTI9ICBNFVAazpuY4iEvwZp8popzpi5EZrvV5LZNxIlbYpjb0r2UmZsVnix3IuLazB+ABINmGAHN8C5A7aT4SkFqgyCYUQx604U7DP1nf+yXGH+B+hyy+rbpZ9Ro0aLe5+fog7wUT2UlgpVBuiO2n4vdS9IraptMQlGV5kPlfdf1N2P39Ghj3Nt8CUYWkVAiim1hZ5ABhkWCEqXZBxKgEmpNk3NknQRxn8U+eYXMsD32b1YH12bzdw6PrtVlWU4HL5w5BWPopCPQkUEvqN31es+kXFHRQAO/NVZzKW1NKZORp9nwE5qsWXgqESU4UxGc+q46VfUHB0eiHee6MfZD2RPtu2zo+uPTo4uyeYXiAuzAMK2o++rZj0vzU4t7A5sBUfFkdZhkrqY69K0df7AB/r6BNsm0rp+y3vdmbcH165A7DFMRzKJipjboOrOUPQurmiJN3d5MlqNBdaV16W0GqDQ8KM35yOrcluIkVe8S93JuNaWeGj3/N3j571L12tr8A9zhekJ2tm0TfuCFh+4IT5IvYCrSp66ohrvl9pFkRa+Xj5/t9M5vbO1QbNLfRjaGONiEM1oKLNAKbby8KERNvDc4UwGXAELMhQUoskECdMp72P+7/+bXhuFOdfTuYrEf46KKi5rZ5qne4aKs5j0Ov0PvJdgEoEN2pj+8WO6/XniLJxE8KImUGWhi+rTma6V2liD+LjbjbbxhaHB5FDUJok6kG62YzPM6FHO5mnfPDsaXi94FHT6PbuO2kYKmpN2DvjGIDevPsSL3Y7X5KtFUNKTIPMbcKRzUt16VFsW3Ti/3vqP4gOPJvwfesHaRU/wfDUSceOeBEE1qEcEdV5KEc4jK/VzBK7V/mJxIL6xGtLyUwe5B3jv9ya0v/jLuOWywevcDyv9UPrQ4sB7dl1/+8r9Dp6LbxV2ATehCUdKrjKqeF64oGp/YJUKnFIqLRidzLyU2S0OioWqq68SmJcQGyXvn7p/efffr/d6+K+9sdHOoLVglYTG9sTkYZzESb8AkYUEFD6d9/8J812LqzD++hJoQ3lqSOxoQaUw+YzPS3hsaLdfgMa2kmOmosq5ZBO9kNOyf7e1cYniGzllsQOxaGJE/E+kvyk4dUTny3jkdqPh2o7OPsqpHMoRpmYcYVAPc3b/xitequRBr4c3JZishrtYeP/Bi+3gN5RXbTEiKkpJXIDjE2lEI6QxbeGzDbLdKlrQp06ZdptHZiDjU1vz8NRscBRVfBYqid/dwGLf+6vl/9T+Gy7BFTLmJ+79A0xOxns6w1fNP5SSJoDiIQhgz/goyJ/Xv4SUWWM9JFg3UWd16jL7AMmKGlXAgWsEBHCEH2DUO32B2+9aN64t5iNXgmS//GraB9Ztoe/tcT8TXc+o5VW2iQbyJiqOqJ77rZruvd0eztmqWw6bm56t0iise6uXpJ213mOIE5XAycx3nu3me+zCfWKCcm+9u1qEbGFTBz2VrcOFLw+HVbHCOWGB9JEMEKbAe5KgXzYm54ossLf4BqT/f0qpuo3tru9Q+gtx+imQiSExMansyf8+1if2lrV6fvfcwOXYNH3i/sLYTLH1yDVjSurUmoUZa1h1pw6n3mxFwkmiqvzSwMTXqEH2xfesgO/XMV4sf+/fhueqgygY8Wd744xaJDXCaAQzMzGKMWgMel6DhRUN6MbV6JppbUxUHrXB32P324uj71eStxf41ld0otwOH/e6go3kZxtSvI1eMIGnauet2Olsh3PQ5pnXQpoDoDGKlTKv5blcW5uoIDo8N8/5Fc7m5cLJzZ8nldWSdSC69jZlpuXA2c7bYGnQ3i9F20EH31EVGO93Rzogz2FYtW3XsKQORQsQ1Sf2YN7UhgYZIIrR6vlRtbYkKjslj1vy4ysmJCLFicWdxdLPn4jLJIeuRczxZ8U6KhWEtKXBfH5K2igzWgi6aisDq/5SvSzuCS0ezhjE35U1Tn3YqtUjDf90QKxlI0xa4uuYmWae4cyBx40vFj/861TnoZr2O1QvxT8dm/KCyzK7CirhZDcPE8MGbUKsIpbNIOETvqELegaxiQyX3CnZ79tpv33zrdza779TlrSjga/Uz75AwL/xmiHDvBhsVmkhfFU5n/WdmB28PB9OqniAgZQrCJaDMq2ofqQO1oJDF2NfxZfW5emfh/hDWNAoe34mxOy87ExtI95z0Tg36Z13nXG/rZbJT0Ev0UwRPqYS8dl3xHTRL1b2k2C5VGRudThNHNQotOJV2VaqtRmmtvNrHb/PbVLWkzt7FQSgP2lmDjybLfPjDXWA7jnqRJZnAuqrflz5sdp7VmYiI3Z9CO+E8W3w+JhGX2r2I5IHB3mFv85mfzn/i17HLZNsWVLwTq1vatafyw5EVwkNKtQkyIc6F0pPK7HPc0eytP75568ZwvHPqYz+T0QkUSI2U3VPd/J39Ue9OcIdaaBVjjIQITFQyY8bkXQaVoCaIdOGsdi7O6JD7puAjENq+MjPHHKaOeaADvg4+d6eijqPbiGEBapZH8kAeKQwf6RbFuDs429u60BteQE/BBgxgG85B6hF2IA33Wk4K1u1YZnpp9GJLI8dyuao17erNYDeUB8z+Y9b8VveUiHpCoJo6CW41apx1opkGw7Cmn6kjPcXZD9p9WS2BdjW0kMaTka8PaN/6jHqjabOz5U79QHxhyw9N+GAgQ8zX8+F71aXtz/9KfvVn6FyCXkIbCYK4Y921ayeWDu8e+Kz1SagP3TDWL8cTkBZYh16nvdcBzNDrLF5h9/tw5+jWK/PyTjW/m2eoZt2ZK/e2ePaK6LZyuibzOmD84qFu+FkcOLIqquEU74iIyWy46fdufWfzdA0+ZKB9z5nexc8c3fltqnppSlAWASBzGAsO35HxSxoF7SkVyGDz4/v39jKbmmZRtms9NTz9ie7gqhteRgZoDzqQYR4rwIOHHOm2KmnHlkhTkVsfaJv+ZatfUVlfS7L+8wT5KGz+Kr+pggWvcqItfYisF+vkvucf5gWsB/UrugC5v2S4PIK119ViQtO03GkPk6UTAQhl7M3z5y5+8VcY/RS9l9JLSwoXTmg7fio/LCnvvvZ7kxtfz45e7XAr60wGnXk+RIRQaTcblOWM6dt0f1xEgwO6nn7WP2t1IXoAKIgRES9iIYhExxxbJJRuJPcUZAPLs0WMlsjAEPE+zz0QI1bn5d6NfDxTBiGUPlfIXPGZ3IrRuKDo0btAtkPYiJwpZdM00Un5NGnHI23wyIfGa/8AfA2P3+Y3skKnREFVWcX56+W4Bu+wTM6n11wD1b/f6rdhwMM/FpYE+O1hT5Cm0mciDkzXTumh3NuA4MX80dH8SMbnfvY/ovgCcq4KQUT0qbI/XoktkIOts/3pe4cb26ETBfWiHdEFICJF14dFyWyXfp3oERSFznC8o3uFLpek4KMJDvOIy4LH5sgcekCk1jyzvDsJZJpr205vtYh1nY6QM3feu7Fz5jads87nZX2Q+43+pV9sEL4I5ggOMqTrJa8bGsi4bOv4CF221bL8KGw+IBBCUDHMYgjvD0k3PTnH/iE2uBNd/Q+UB3P7J6l9pMkDuqARzYvOYHiB/hX00qIECc75GONT5X9sEtc0X+nmIU59UatEQkyZGjNEjUxcvqC6h9aCuIAh+G63e3pxN/fiUt1HG3OjoGmOLDrB31M8uCrEjtuo/fnF4nYny9XS7fedbKNXnM42dorulWHxHPk2ZQDU+0WoO7ITpnUVSp9lvpM15G4WEwJ/ZYGaZoNGPspOjcem+Q9obggh8wB1CLpEw1lirbN20m7jwzctNSvVfdCs24mfcuztD+B/EhRvXfRYCjCBnWK8D/Zw/MOt5fNyEpUy6/o75eFA41GcdvOxmk9ZiXW9PwaeeoT96Ome8UESoR1R5sYq3aPJ/jA7SIw0sW6Hl5WHPsv33/nu+GIpmAYCih8NTz+/uJ47y3BRBHyBOPAEjZEQqsmd7/UvXhUppnMbF31sa+v033jzYNA/c2Vj83w2ukDsQRfz4JAMGRB7qGALkY5oLxh0vRdPCz9Pi6KZrdR+DaVZHCei/X6o8lH26j34XZz7gJi3HTGnkSVa/ocjj4iFX20o7bvfT1EjEIPv98eQu2V65eFFiKcp/h+eRNLYBRkMujs6fVX10CyYRRLmSiJSq4c4JS5Mg4j3lhtd8RuegiiiOYFQaiVZdL2aIoR8YpsDyS1G59goEqvHmd6Zn3v5zOegAz3oYQV0kCUdjkFSpmgJBLZmUY6thuWS/osejvyYvf02Q2mQ+QzxZFmWZSLSqsBSwdYzmWoa2473dJyHXKSHqdhxwE7zTl39dvIR2uqILrssTjq+gJqKgauxwhbDjdPPwaBr+bFCxeOWJyCf/3BJZapaRam3N3ovzmZ/qnIQbAKs5ZQjWsKc8jDmC6cel1e1z/04z3pxLnGxQIvajUrdnNbbVpztbOz0O8/0Rp8UGRteyI7m+2p1rzuCzdZaC75t+sLF5sNSFKjasOyH5jm0STVZg9JtTrDhhrAH9f+jMQ+PU/PXE+CkuZEOP8B3I3tO4kM84lZMI5YobJeIvTTA2qyINggUQRwgLDylSDPMbzVAQ2TddC/RsSfstc2OExvizQ9SX5OYqvoBXYS+752DAvENHvupPE5JTKrt4skJI+3v2L2MTGK5XHXiWhQWUsa4L3oEGdLBctha6POz6nDQH3QGW9nGpe7g4sbwsw2Epu7jL0C3qoPorFv0DFuUIdNMXY7QwvslFdNt6bATEuismcuwSkY0ZkcMlbUg/+HTYD8C5f+IMnykr2mK3846Z+pwwyUFa2ZKtz62NIkQEY1oFA1KjKVEnJE7VKWmczDpL+ILFz71s+xcYe/O0e0/O7z7apy91dX9rjsQgkUVcaKCMyzUFhLhdQI0gSGKemJtIaYOmmbiVQL2rZUDzO4PW0yoJZoQlcrcoXX6V54Hj6aiMKs/buWR7uL7bzfHqv2PfMwfSTE0KkmFpId06Q2rrKqzWVkHL+rUq4hEC2Vd1XEeZtM7f3r+8svEjJgJXTi/+en/AI6IHSxHMyxvevXJ8GkAVuYkqGQpYZhnWYMYjCK60prG7q//JsvBEmkATOvbtkHA2mzLlZ/7IBPD45bHr/lLUIwIleK2fP98dfidXBOAJi4ZiJZQ2CXUP1Xg1WmeRREi3ZLx3mzYPfPpC5/4N+g/h3U4FwfnfmKgu7z9x0zfnu+/OT/aM2IIZV0tjIW62mchy1VioLIQAhItmoWYCbkr3WpI19qUPnmoKkYhKEFRqMW7rWfJz0Dno9xGn3hJ3hkRNB+TX5xdE6+dqXUdfY05lsfgHZkvut5fdP0Lzc0MhmhVFarPIFGsi+USFWiHrqz00jlnZrBGq35i+EfbHSZrOPFmF1h//18uhpXHtlgFiEgJSCpgqhI9ul2MLs8mvjrWJgeA4Zao+JQqIfqICi64it6RbB/YlTMv/mL32b8OHWKG64FiJVJz+XNQF7Es4oRwj8Ob1b2bmU6ODt6ZTe/cm97WWBWSWRYrV4qGLEaNcynvSjiIriQBbppygDTeokRpmnnWAUVEbZxOs87o9OfRZ6k7YNzPsfEY5S/XOvooRWrcHDTV26v5NCu0kq2DcjqT00X3wnDjYrd7Ph9cRjdxm0Mb1Nar6m7Hb0RThyHWot/0Az1rffTczaPneN636vzgYR7HvX6MDJztP9Yubo7bdN2dQC+2wMJ1XG7yjaISwaIaOdaJsbh3N2ycf3HzhZ/YPP9XqD65WJzOOvncKgkdlU5HG2/LQqQ20YpszvZhdmpBOBhwOLBDbIZGKsEC+RSpMeXaK+Vrf1BO38j8HJlrRgjRGhy0tiYgPOiFNb37psG2OqMX4byFQqTtmmrO5glPwj1WWa2rrBjB9pXnfwF26b0MY6xT1gOyS9ANMasr1+l0QhnwDgypILbQ6ydXHtP3Tzrf0G80Q3wNXI6MsqufLV/p+G7PjxyLw+kEpyjdzGVQQRWsri3OJM/yc7jzml258IkvM7rKcAf6Me8JGomFdggdTVOS0qh0QXyahOuwLlLDGbSOUhq1M9AMatwUIoy58CnZn9RURTHB9qMchbhAUBWaODImmt11ol1RVOn0RmE23tr8ghs8ZwyIrgngbG0bOynmfyo/kKTcUBoXRQ1pEuoFur8ApTGq6aipdxA9UZ2pk5wFuTnqdsDZKrus9xvRZsxjmyeUNEC6/fVhBvdYheiRb/ZDOi8+msXyWG1+kvbiGrgMMWQ8Pve5g90ju7uf5Ruu6xa1W0w7YSH9Qc+E2kulRXfj8ujsxzn/GbgIF2ADOoaLySEARL24JYJXsLUP9RiQm0kwghkqYbVe5oCnQFz2yV9a/Cnvvv375zcHi3ImTsSbEcViFEl8e3p8jqUIubc6FJPq3KkLX8KN6yiZc0+Yz/0XJ5Z48pJrGE0yiX1iD5NKG5vjG0RGRJpGSUnYseY2PiK640dZHp/mr++pSup+JwZRz0Z+7ov7s2kZbhc9yrL0nUGnf9b5zbK7WQzOj8aXGFwidhu8BBk4yIndhk5M6koIqChuWXq31suQiAgKpqLqTX1saymeoBbJ0o0/mlF0Pzl4MSusmtz6v7qjYRkWYkEFk1rUW8JWqa2ndkTwokdz1x9/gc3PQ8fiLHqvDSnnB3X7PJUfRFaqu9TeaNrUxX2TLY5IjM3gc9BS6KzZYpecuOZwDSnDEyePSfPXe9+PzY6IKAz8hb+2c+HjcEDcRwvIiT3qAb6PbsIWDKfT2jmvGeoIUik4RAwxRT1rYJu2u2dN5LjPZE2tJSihTTrMbFaMtheV+EL85//u8Lv5u9e/sbHRC+XbQu3NoG6yEIk1PJWHvZhlZd1Dr3Q//jeZ9Ol2RBrCjqdO/UcraWUF0oTMBLNI1l4iCWStEXDUmMqSfK3529Sb/SSqPY/P5seV79u4+kk9HAp94iU4jdQtbEbB4z3qwWO5Yd3e8txWKPo0uMaJSENNbJg05KXi1sFD1gRpJom2LdUIm6QDoCGI89LJwDaQz/Px8anNT11/9Xf6shhluz4E6rqJ1YPVNQjeg5r58b17Z86+/K/gL5NdjMELxbElJUsCB1ZPfqA88rbxhC7V+2QF1xJa2y0i7TBDRMQBtsLI28pE6Or/pvb+UMz1h6dE/PPf64f95eO44y255A9bjvWosLxPsRlxFU8qlZzUP/8Bn9Ji+06UpPnLx7Hh4jzWyCMg0YKZ2D0friGvxdtfv3frmzJ5d9ynOryjWqmY5IIIdVzUTKoLw3O/mH3iV6nOEcfmOujS4regUThe4XuqrY9VYkQNU2P9jj/KHwLvr/k/qvK4NP/9xcweRC5+WLX/QHnwXq6j3xLjuRoWE3kO6u6hR3DI7NXpzf/z9lv/dGS7w2w/60zQQOzUlSsroff53hd+g9nH6J1LRzkGUxbWZu8t5anmfxTysMX8pGn1o8hfmOZ/BJ/y/vd7ZRysHWklEOdUNXKH4hrxda7/Sb332t7R69EmocrU9b1unPrU36bzcwt7Jstylh7Hquj3VPP/wuRHQ/M/GnT2j7LmJ/mAux5bqHBi5ZAaFyJzY+qZwRyOqO4SJ7ffesXojjdf6Jz+zKIaRddzahki0RNXFCtr8f5TzX8qH1rSnMWP4IP+P+WzjfOJ9LlaAAAAAElFTkSuQmCC;" vertex="1" parent="1">
          <mxGeometry x="370" y="690" width="143.82" height="70" as="geometry" />
        </mxCell>
        <mxCell id="XdNitLlG15K0FlTrxvzR-11" value="" style="endArrow=classic;html=1;rounded=0;" edge="1" parent="1">
          <mxGeometry width="50" height="50" relative="1" as="geometry">
            <mxPoint x="200" y="640" as="sourcePoint" />
            <mxPoint x="400" y="640" as="targetPoint" />
          </mxGeometry>
        </mxCell>
        <mxCell id="XdNitLlG15K0FlTrxvzR-13" value="" style="shape=image;verticalLabelPosition=bottom;labelBackgroundColor=default;verticalAlign=top;aspect=fixed;imageAspect=0;editableCssRules=.*;image=data:image/svg+xml,PHN2ZyB4bWxuczp4bGluaz0iaHR0cDovL3d3dy53My5vcmcvMTk5OS94bGluayIgeG1sbnM9Imh0dHA6Ly93d3cudzMub3JnLzIwMDAvc3ZnIiBwcmVzZXJ2ZUFzcGVjdFJhdGlvPSJ4TWlkWU1pZCIgdmVyc2lvbj0iMS4xIiB2aWV3Qm94PSIwIC01Ljk2MDQ2NDQ3NzUzOTA2M2UtOCAyNTYgMjU1Ljk5OTk4NDc0MTIxMDk0IiBoZWlnaHQ9Ijc5OS45OTk5NTIzMTYyODQyIiB3aWR0aD0iODAwIj4mI3hhOyAgICA8Zz4mI3hhOyAgICAgICAgPHBhdGggZmlsbD0iIzAwMDAwMCIgZD0iTTExOS42MTY4MTMsMC4wNjg4OTA1MTQ5IEMxMTkuMDY2Mjc2LDAuMTE4OTMyMDM3IDExNy4zMTQ1NjUsMC4yOTQwNzczNjQgMTE1LjczODAyNSwwLjQxOTE4MTE2OSBDNzkuMzc3NTE3MSwzLjY5NjkwMDg3IDQ1LjMxOTI1NzEsMjMuMzEzMTc3NSAyMy43NDgxOTE2LDUzLjQ2MzE5NDYgQzExLjczNjQ2MTQsNzAuMjI3MTA0NSA0LjA1Mzk1ODk0LDg5LjI0Mjg4MjkgMS4xNTExMjQxNCwxMDkuMzg0NTk1IEMwLjEyNTEyMjE5LDExNi40MTU0MjkgMCwxMTguNDkyMTUzIDAsMTI4LjAyNTA2MiBDMCwxMzcuNTU3OTcyIDAuMTI1MTIyMTksMTM5LjYzNDY5NiAxLjE1MTEyNDE0LDE0Ni42NjU1MjkgQzguMTA3OTE3ODksMTk0LjczMDQxMSA0Mi4zMTYzMjQ1LDIzNS4xMTM5MiA4OC43MTE2MzI1LDI1MC4wNzYzMzUgQzk3LjAxOTc0NTgsMjUyLjc1MzU1NiAxMDUuNzc4Mjk5LDI1NC41ODAwNzIgMTE1LjczODAyNSwyNTUuNjgwOTg1IEMxMTkuNjE2ODEzLDI1Ni4xMDYzMzggMTM2LjM4MzE4NywyNTYuMTA2MzM4IDE0MC4yNjE5NzUsMjU1LjY4MDk4NSBDMTU3LjQ1Mzc2MywyNTMuNzc5NDA3IDE3Mi4wMTc5ODYsMjQ5LjUyNTg3OCAxODYuMzgyMDE0LDI0Mi4xOTQ3OTUgQzE4OC41ODQxNjQsMjQxLjA2ODg2MSAxODkuMDA5NTgsMjQwLjc2ODYxMiAxODguNzA5Mjg2LDI0MC41MTg0MDQgQzE4OC41MDkwOTEsMjQwLjM2ODI4IDE3OS4xMjQ5MjcsMjI3Ljc4MjgzNyAxNjcuODYzOTMsMjEyLjU3MDIxNCBMMTQ3LjM5MzkzOSwxODQuOTIyMjczIEwxMjEuNzQzODkxLDE0Ni45NjU3NzkgQzEwNy42MzAxMDgsMTI2LjA5ODQ2NCA5Ni4wMTg3NjgzLDEwOS4wMzQzMDUgOTUuOTE4NjcwNiwxMDkuMDM0MzA1IEM5NS44MTg1NzI4LDEwOS4wMDkyODQgOTUuNzE4NDc1MSwxMjUuODczMjc3IDk1LjY2ODQyNjIsMTQ2LjQ2NTM2MyBDOTUuNTkzMzUyOSwxODIuNTIwMjggOTUuNTY4MzI4NCwxODMuOTcxNDg0IDk1LjExNzg4ODYsMTg0LjgyMjE5IEM5NC40NjcyNTMyLDE4Ni4wNDgyMDcgOTMuOTY2NzY0NCwxODYuNTQ4NjIzIDkyLjkxNTczOCwxODcuMDk5MDc5IEM5Mi4xMTQ5NTYsMTg3LjQ5OTQxMSA5MS40MTQyNzE3LDE4Ny41NzQ0NzQgODcuNjM1NTgxNiwxODcuNTc0NDc0IEw4My4zMDYzNTM5LDE4Ny41NzQ0NzQgTDgyLjE1NTIyOTcsMTg2Ljg0ODg3MiBDODEuNDA0NDk2NiwxODYuMzczNDc3IDgwLjg1Mzk1ODksMTg1Ljc0Nzk1OCA4MC40Nzg1OTI0LDE4NS4wMjIzNTYgTDc5Ljk1MzA3OTIsMTgzLjg5NjQyMiBMODAuMDAzMTI4MSwxMzMuNzI5Nzk2IEw4MC4wNzgyMDE0LDgzLjUzODE0OTMgTDgwLjg1Mzk1ODksODIuNTYyMzM5NyBDODEuMjU0MzUsODIuMDM2OTAzNyA4Mi4xMDUxODA4LDgxLjM2MTM0MzEgODIuNzA1NzY3NCw4MS4wMzYwNzMyIEM4My43MzE3NjkzLDgwLjUzNTY1OCA4NC4xMzIxNjAzLDgwLjQ4NTYxNjUgODguNDYxMzg4MSw4MC40ODU2MTY1IEM5My41NjYzNzM0LDgwLjQ4NTYxNjUgOTQuNDE3MjA0Myw4MC42ODU3ODI2IDk1Ljc0MzQ5OTUsODIuMTM2OTg2NyBDOTYuMTE4ODY2MSw4Mi41MzczMTg5IDExMC4wMDc0MjksMTAzLjQ1NDY3NSAxMjYuNjIzNjU2LDEyOC42NTA1ODEgQzE0My4yMzk4ODMsMTUzLjg0NjQ4OCAxNjUuOTYyMDcyLDE4OC4yNTAwMzQgMTc3LjEyMjk3MiwyMDUuMTM5MDQ4IEwxOTcuMzkyNzY2LDIzNS44Mzk1MjIgTDE5OC40MTg3NjgsMjM1LjE2Mzk2MSBDMjA3LjUwMjYzOSwyMjkuMjU5MDYyIDIxNy4xMTIwMjMsMjIwLjg1MjA4NiAyMjQuNzE5NDUzLDIxMi4wOTQ4MiBDMjQwLjkxMDI2NCwxOTMuNTA0Mzk0IDI1MS4zNDU0NTUsMTcwLjgzNTU4NSAyNTQuODQ4ODc2LDE0Ni42NjU1MjkgQzI1NS44NzQ4NzgsMTM5LjYzNDY5NiAyNTYsMTM3LjU1Nzk3MiAyNTYsMTI4LjAyNTA2MiBDMjU2LDExOC40OTIxNTMgMjU1Ljg3NDg3OCwxMTYuNDE1NDI5IDI1NC44NDg4NzYsMTA5LjM4NDU5NSBDMjQ3Ljg5MjA4Miw2MS4zMTk3MTM1IDIxMy42ODM2NzUsMjAuOTM2MjA1MiAxNjcuMjg4MzY4LDUuOTczNzkwMTIgQzE1OS4xMDUzNzYsMy4zMjE1ODk0NSAxNTAuMzk2ODcyLDEuNDk1MDczODkgMTQwLjYzNzM0MSwwLjM5NDE2MDQwOCBDMTM4LjIzNDk5NSwwLjE0Mzk1Mjc5OCAxMjEuNjkzODQyLC0wLjEzMTI3NTU3MyAxMTkuNjE2ODEzLDAuMDY4ODkwNTE0OSBMMTE5LjYxNjgxMywwLjA2ODg5MDUxNDkgWiBNMTcyLjAxNzk4Niw3Ny40ODMxMjUyIEMxNzMuMjE5MTU5LDc4LjA4MzYyMzQgMTc0LjE5NTExMiw3OS4yMzQ1Nzg0IDE3NC41NDU0NTUsODAuNDM1NTc1IEMxNzQuNzQ1NjUsODEuMDg2MTE0OCAxNzQuNzk1Njk5LDk0Ljk5NzY1NzkgMTc0Ljc0NTY1LDEyNi4zNDg2NzEgTDE3NC42NzA1NzcsMTcxLjMzNiBMMTY2LjczNzgzLDE1OS4xNzU5MSBMMTU4Ljc4MDA1OSwxNDcuMDE1ODIgTDE1OC43ODAwNTksMTE0LjMxMzY4NSBDMTU4Ljc4MDA1OSw5My4xNzExNDIzIDE1OC44ODAxNTYsODEuMjg2MjgwOCAxNTkuMDMwMzAzLDgwLjcxMDgwMzMgQzE1OS40MzA2OTQsNzkuMzA5NjQwNyAxNjAuMzA2NTQ5LDc4LjIwODcyNzIgMTYxLjUwNzcyMiw3Ny41NTgxODc1IEMxNjIuNTMzNzI0LDc3LjAzMjc1MTUgMTYyLjkwOTA5MSw3Ni45ODI3MSAxNjYuODM3OTI4LDc2Ljk4MjcxIEMxNzAuNTQxNTQ0LDc2Ljk4MjcxIDE3MS4xOTIxOCw3Ny4wMzI3NTE1IDE3Mi4wMTc5ODYsNzcuNDgzMTI1MiBaIj4mI3hhOyYjeGE7PC9wYXRoPiYjeGE7ICAgIDwvZz4mI3hhOzwvc3ZnPg==;" vertex="1" parent="1">
          <mxGeometry x="690" y="770" width="65" height="65" as="geometry" />
        </mxCell>
        <mxCell id="XdNitLlG15K0FlTrxvzR-15" value="" style="endArrow=classic;html=1;rounded=0;" edge="1" parent="1" source="XdNitLlG15K0FlTrxvzR-7" target="XdNitLlG15K0FlTrxvzR-5">
          <mxGeometry width="50" height="50" relative="1" as="geometry">
            <mxPoint x="210" y="670" as="sourcePoint" />
            <mxPoint x="260" y="620" as="targetPoint" />
          </mxGeometry>
        </mxCell>
        <mxCell id="XdNitLlG15K0FlTrxvzR-16" value="" style="endArrow=classic;html=1;rounded=0;" edge="1" parent="1" source="XdNitLlG15K0FlTrxvzR-5">
          <mxGeometry width="50" height="50" relative="1" as="geometry">
            <mxPoint x="210" y="670" as="sourcePoint" />
            <mxPoint x="440" y="360" as="targetPoint" />
          </mxGeometry>
        </mxCell>
        <mxCell id="XdNitLlG15K0FlTrxvzR-17" value="" style="endArrow=classic;html=1;rounded=0;entryX=0.5;entryY=1;entryDx=0;entryDy=0;entryPerimeter=0;" edge="1" parent="1" source="XdNitLlG15K0FlTrxvzR-7" target="XdNitLlG15K0FlTrxvzR-2">
          <mxGeometry width="50" height="50" relative="1" as="geometry">
            <mxPoint x="210" y="670" as="sourcePoint" />
            <mxPoint x="260" y="620" as="targetPoint" />
          </mxGeometry>
        </mxCell>
        <mxCell id="XdNitLlG15K0FlTrxvzR-18" value="" style="sketch=0;points=[[0,0,0],[0.25,0,0],[0.5,0,0],[0.75,0,0],[1,0,0],[0,1,0],[0.25,1,0],[0.5,1,0],[0.75,1,0],[1,1,0],[0,0.25,0],[0,0.5,0],[0,0.75,0],[1,0.25,0],[1,0.5,0],[1,0.75,0]];outlineConnect=0;fontColor=#232F3E;fillColor=#7AA116;strokeColor=#ffffff;dashed=0;verticalLabelPosition=bottom;verticalAlign=top;align=center;html=1;fontSize=12;fontStyle=0;aspect=fixed;shape=mxgraph.aws4.resourceIcon;resIcon=mxgraph.aws4.s3;" vertex="1" parent="1">
          <mxGeometry x="960" y="605" width="78" height="78" as="geometry" />
        </mxCell>
      </root>
    </mxGraphModel>
  </diagram>
</mxfile>
